<svg xmlns="http://www.w3.org/2000/svg" xmlns:xlink="http://www.w3.org/1999/xlink" width="600" height="450" viewBox="0 0 600 450">
  <defs>
    <radialGradient id="radial-gradient" cx="0.11" cy="-0.227" r="1.77" gradientTransform="translate(0.071 -0.001) scale(0.75 1.002)" gradientUnits="objectBoundingBox">
      <stop offset="0.004" stop-color="#2459fd"/>
      <stop offset="0.061" stop-color="#204de3"/>
      <stop offset="0.172" stop-color="#1939b8"/>
      <stop offset="0.289" stop-color="#132992"/>
      <stop offset="0.41" stop-color="#0e1b73"/>
      <stop offset="0.536" stop-color="#0a105c"/>
      <stop offset="0.67" stop-color="#08084b"/>
      <stop offset="0.817" stop-color="#060441"/>
      <stop offset="1" stop-color="#06033e"/>
    </radialGradient>
    <radialGradient id="radial-gradient-2" cx="0.99" cy="0.384" r="1.719" gradientTransform="matrix(-0.571, 0, 0, 1, -0.317, 0)" gradientUnits="objectBoundingBox">
      <stop offset="0" stop-color="#e39a65"/>
      <stop offset="0.283" stop-color="#a92ffb"/>
      <stop offset="0.335" stop-color="#881bfa"/>
      <stop offset="0.398" stop-color="#6507fa"/>
      <stop offset="0.54" stop-color="#0d0c6f"/>
    </radialGradient>
    <radialGradient id="radial-gradient-3" cx="0.823" cy="-0.058" r="2.242" gradientTransform="matrix(-0.578, 0, 0, 1, -0.056, 0)" gradientUnits="objectBoundingBox">
      <stop offset="0" stop-color="#e39a65"/>
      <stop offset="0.415" stop-color="#a92ffb"/>
      <stop offset="0.555" stop-color="#881bfa"/>
      <stop offset="0.726" stop-color="#6507fa"/>
      <stop offset="0.737" stop-color="#6308f8"/>
      <stop offset="1" stop-color="#3919bb"/>
    </radialGradient>
    <radialGradient id="radial-gradient-4" cx="0.787" cy="-0.015" r="1.479" gradientTransform="matrix(-0.576, 0, 0, 1, -0.012, 0)" gradientUnits="objectBoundingBox">
      <stop offset="0" stop-color="#6507fa"/>
      <stop offset="1" stop-color="#3919bb"/>
    </radialGradient>
    <linearGradient id="linear-gradient" x1="187.492" y1="191.184" x2="188.402" y2="191.184" gradientUnits="objectBoundingBox">
      <stop offset="0" stop-color="#e39a65"/>
      <stop offset="1" stop-color="#e95f8d"/>
    </linearGradient>
    <linearGradient id="linear-gradient-2" x1="187.854" y1="190.821" x2="188.764" y2="190.821" xlink:href="#linear-gradient"/>
    <linearGradient id="linear-gradient-3" x1="188.218" y1="190.457" x2="189.129" y2="190.457" xlink:href="#linear-gradient"/>
    <linearGradient id="linear-gradient-4" x1="188.58" y1="190.095" x2="189.491" y2="190.095" xlink:href="#linear-gradient"/>
    <linearGradient id="linear-gradient-5" x1="188.942" y1="189.732" x2="189.853" y2="189.732" xlink:href="#linear-gradient"/>
    <linearGradient id="linear-gradient-6" x1="189.305" y1="189.37" x2="190.215" y2="189.37" xlink:href="#linear-gradient"/>
    <radialGradient id="radial-gradient-5" cx="-0.248" cy="0.279" r="2.148" gradientTransform="translate(0.213) scale(0.574 1)" gradientUnits="objectBoundingBox">
      <stop offset="0" stop-color="#e39a65"/>
      <stop offset="0.401" stop-color="#a92ffb"/>
      <stop offset="0.547" stop-color="#881bfa"/>
      <stop offset="0.726" stop-color="#6507fa"/>
      <stop offset="1" stop-color="#3919bb"/>
    </radialGradient>
    <radialGradient id="radial-gradient-6" cx="-0.035" cy="0.06" r="1.331" gradientTransform="translate(-0.456) scale(1.911 1)" xlink:href="#radial-gradient-5"/>
    <linearGradient id="linear-gradient-7" y1="0.5" x2="1" y2="0.5" gradientUnits="objectBoundingBox">
      <stop offset="0" stop-color="#5b04f7"/>
      <stop offset="1" stop-color="#2d0979"/>
    </linearGradient>
    <radialGradient id="radial-gradient-7" cx="0.14" cy="-0.012" r="2.094" gradientTransform="translate(0.011) scale(0.979 1)" xlink:href="#radial-gradient-5"/>
    <radialGradient id="radial-gradient-8" cx="-0.082" cy="0.242" r="2.243" gradientTransform="translate(-0.159) scale(1.318 1)" gradientUnits="objectBoundingBox">
      <stop offset="0" stop-color="#e39a65"/>
      <stop offset="0.153" stop-color="#a92ffb"/>
      <stop offset="0.409" stop-color="#3919bb"/>
      <stop offset="0.931" stop-color="#3919bb"/>
    </radialGradient>
    <linearGradient id="linear-gradient-8" y1="0.5" x2="1" y2="0.5" gradientUnits="objectBoundingBox">
      <stop offset="0" stop-color="#e39a65"/>
      <stop offset="0.252" stop-color="#a92ffb"/>
      <stop offset="0.556" stop-color="#3919bb"/>
    </linearGradient>
    <linearGradient id="linear-gradient-9" y1="0.5" x2="1" y2="0.5" gradientUnits="objectBoundingBox">
      <stop offset="0" stop-color="#4f1fec"/>
      <stop offset="1" stop-color="#a92ffb"/>
    </linearGradient>
    <linearGradient id="linear-gradient-11" y1="0.5" x2="1.261" y2="0.5" gradientUnits="objectBoundingBox">
      <stop offset="0" stop-color="#131060"/>
      <stop offset="0.186" stop-color="#140f62"/>
      <stop offset="0.282" stop-color="#190f6a"/>
      <stop offset="0.358" stop-color="#220f77"/>
      <stop offset="0.424" stop-color="#2e0f8a"/>
      <stop offset="0.482" stop-color="#3d0ea3"/>
      <stop offset="0.536" stop-color="#510ec1"/>
      <stop offset="0.585" stop-color="#670de5"/>
      <stop offset="0.607" stop-color="#740df8"/>
      <stop offset="0.618" stop-color="#7a14ef"/>
      <stop offset="0.683" stop-color="#9b3bc2"/>
      <stop offset="0.748" stop-color="#b75c9d"/>
      <stop offset="0.812" stop-color="#cc7680"/>
      <stop offset="0.876" stop-color="#db886b"/>
      <stop offset="0.939" stop-color="#e4935f"/>
      <stop offset="1" stop-color="#e8975b"/>
    </linearGradient>
    <radialGradient id="radial-gradient-9" cx="-0.135" cy="0.092" r="3.209" gradientTransform="translate(0.211) scale(0.577 1)" gradientUnits="objectBoundingBox">
      <stop offset="0" stop-color="#e39a65"/>
      <stop offset="0.252" stop-color="#a92ffb"/>
      <stop offset="0.736" stop-color="#3919bb"/>
    </radialGradient>
    <linearGradient id="linear-gradient-12" x1="-0.089" y1="0.5" x2="1.209" y2="0.5" xlink:href="#linear-gradient-11"/>
    <linearGradient id="linear-gradient-13" x1="0" y1="0.5" x2="1" y2="0.5" xlink:href="#linear-gradient"/>
    <clipPath id="clip-Artboard_89">
      <rect width="600" height="450"/>
    </clipPath>
  </defs>
  <g id="Artboard_89" data-name="Artboard 89" clip-path="url(#clip-Artboard_89)">
    <rect width="600" height="450" fill="#fff"/>
    <rect id="Rectangle_364" data-name="Rectangle 364" width="600" height="450" transform="translate(0)" fill="url(#radial-gradient)"/>
    <g id="Group_112" data-name="Group 112" transform="translate(-4.845 -64.335)">
      <path id="Path_219" data-name="Path 219" d="M405.29,390.086l66.58-38.479c3.236-1.868,2.83-5.132-.907-7.289L328.474,262.052c-3.737-2.158-9.389-2.392-12.625-.524l-66.58,38.479c-3.236,1.869-2.83,5.132.907,7.289l142.489,82.267C396.4,391.72,402.054,391.954,405.29,390.086Z" fill="#020230" opacity="0.6"/>
      <path id="Path_220" data-name="Path 220" d="M252.7,271.879l-.079.093,62.995-36.409c3.213-1.855,8.826-1.622,12.536.52l141.125,81.478,4.706-1.8-1.322,6.6-.006,0a3.95,3.95,0,0,1-2.118,2.643l-65.014,37.575c-3.214,1.855-8.826,1.622-12.536-.52L251.5,280.376a5.66,5.66,0,0,1-3-3.495l-.008.01-1.35-6.426Z" fill="url(#radial-gradient-2)"/>
      <path id="Path_221" data-name="Path 221" d="M405.29,356.773l66.58-38.479c3.236-1.868,2.83-5.132-.907-7.289L328.474,228.738c-3.737-2.157-9.389-2.391-12.625-.523l-66.58,38.479c-3.236,1.869-2.83,5.132.907,7.289l142.489,82.266C396.4,358.407,402.054,358.641,405.29,356.773Z" fill="url(#radial-gradient-3)"/>
      <path id="Path_222" data-name="Path 222" d="M405.2,352.476l61.339-35.442c3.162-1.826,2.765-5.014-.886-7.122L328.429,230.666c-3.651-2.108-9.174-2.337-12.336-.511l-61.832,35.728c-3.162,1.825-2.765,5.014.886,7.122l137.72,78.96C396.518,354.073,402.041,354.3,405.2,352.476Z" fill="url(#radial-gradient-4)"/>
      <path id="Path_223" data-name="Path 223" d="M405.2,352.476l61.339-35.442c3.162-1.826,2.765-5.014-.886-7.122L328.429,230.666c-3.651-2.108-9.174-2.337-12.336-.511l-61.832,35.728c-3.162,1.825-2.765,5.014.886,7.122l137.72,78.96C396.518,354.073,402.041,354.3,405.2,352.476Z" fill="#06033e" opacity="0.4"/>
      <g id="Group_111" data-name="Group 111">
        <path id="Path_224" data-name="Path 224" d="M407,303.019,379.094,319a7.452,7.452,0,0,1-6.7-.3h0c-1.981-1.153-2.19-2.887-.468-3.873l27.906-15.979a7.454,7.454,0,0,1,6.7.3h0C408.514,300.3,408.723,302.033,407,303.019Z" fill="url(#linear-gradient)"/>
        <path id="Path_225" data-name="Path 225" d="M393.453,295.132l-27.906,15.979a7.454,7.454,0,0,1-6.7-.3h0c-1.981-1.153-2.19-2.887-.468-3.873l27.907-15.979a7.452,7.452,0,0,1,6.7.3h0C394.966,292.412,395.175,294.146,393.453,295.132Z" opacity="0.9" fill="url(#linear-gradient-2)"/>
        <path id="Path_226" data-name="Path 226" d="M379.9,287.246,352,303.225a7.457,7.457,0,0,1-6.7-.3h0c-1.98-1.153-2.19-2.888-.467-3.874l27.906-15.978a7.452,7.452,0,0,1,6.7.3h0C381.418,284.525,381.627,286.26,379.9,287.246Z" opacity="0.7" fill="url(#linear-gradient-3)"/>
        <path id="Path_227" data-name="Path 227" d="M366.357,279.359l-27.906,15.979a7.454,7.454,0,0,1-6.7-.3h0c-1.98-1.153-2.19-2.887-.467-3.873l27.906-15.979a7.454,7.454,0,0,1,6.705.3h0C367.87,276.639,368.079,278.373,366.357,279.359Z" opacity="0.6" fill="url(#linear-gradient-4)"/>
        <path id="Path_228" data-name="Path 228" d="M352.809,271.472,324.9,287.451a7.454,7.454,0,0,1-6.705-.3h0c-1.98-1.153-2.189-2.887-.467-3.873L345.637,267.3a7.454,7.454,0,0,1,6.705.3h0C354.322,268.752,354.532,270.486,352.809,271.472Z" opacity="0.3" fill="url(#linear-gradient-5)"/>
        <path id="Path_229" data-name="Path 229" d="M339.261,263.586l-27.906,15.979a7.452,7.452,0,0,1-6.7-.3h0c-1.981-1.153-2.19-2.887-.468-3.873l27.906-15.979a7.454,7.454,0,0,1,6.705.3h0C340.774,260.866,340.984,262.6,339.261,263.586Z" opacity="0.2" fill="url(#linear-gradient-6)"/>
      </g>
      <path id="Path_230" data-name="Path 230" d="M250.176,272.254,392.665,354.52c3.736,2.158,9.389,2.392,12.625.524l66.58-38.479a4.15,4.15,0,0,0,2.019-2.3c.428,1.488-.2,2.98-2.019,4.031l-66.58,38.479c-3.236,1.868-8.889,1.634-12.625-.523L250.176,273.983c-2.464-1.422-3.446-3.319-2.926-4.986A5.881,5.881,0,0,0,250.176,272.254Z" fill="#fff"/>
      <path id="Path_231" data-name="Path 231" d="M402.147,337.154a5.644,5.644,0,0,1-2.91-.787l-8.223-5.136a2.4,2.4,0,0,1-1.309-2.023,1.914,1.914,0,0,1,1.132-1.616l37.821-20.118a5.383,5.383,0,0,1,4.915.347l8.222,5.136a2.4,2.4,0,0,1,1.31,2.022,1.919,1.919,0,0,1-1.132,1.616l-37.821,20.117A4.326,4.326,0,0,1,402.147,337.154Zm28.508-28.763a2.964,2.964,0,0,0-1.357.286L391.477,328.8c-.149.08-.4.246-.409.46-.007.181.165.5.669.82l8.223,5.135a4.035,4.035,0,0,0,3.551.3l37.822-20.119c.15-.079.4-.244.409-.459.007-.181-.165-.5-.67-.818l-8.222-5.136A4.3,4.3,0,0,0,430.655,308.391Z" fill="#06033e" opacity="0.4"/>
      <path id="Path_232" data-name="Path 232" d="M416.272,321.107l-2.343,1.247-.667.354-8.112,4.315a.63.63,0,0,0-.041,1.193,2.285,2.285,0,0,0,2.065.072l8.112-4.316.667-.354,2.343-1.247a.63.63,0,0,0,.042-1.192A2.287,2.287,0,0,0,416.272,321.107Z" fill="#06033e" opacity="0.4"/>
      <path id="Path_233" data-name="Path 233" d="M423.3,317.371l-3.01,1.6a.63.63,0,0,0-.041,1.193,2.285,2.285,0,0,0,2.065.072l3.01-1.6a.63.63,0,0,0,.042-1.193A2.287,2.287,0,0,0,423.3,317.371Z" fill="#06033e" opacity="0.4"/>
    </g>
    <path id="Path_234" data-name="Path 234" d="M220.1,396.584l-59.74-34.491,22.812-13.171,59.74,34.491Z" transform="translate(-4.845 -64.335)" fill="#020230" opacity="0.6"/>
    <g id="Group_116" data-name="Group 116" transform="translate(-4.845 -64.335)">
      <g id="Group_114" data-name="Group 114">
        <path id="Path_235" data-name="Path 235" d="M276.077,218.691l-66-38.2L269.139,193.4l5.079,3.611,2.155,5.948.246,3.711v10.914Z" fill="url(#radial-gradient-5)"/>
        <path id="Path_236" data-name="Path 236" d="M276.077,218.691l-66-38.2L269.139,193.4l5.079,3.611,2.155,5.948.246,3.711v10.914Z" fill="#06033e" opacity="0.4"/>
        <path id="Path_237" data-name="Path 237" d="M205.232,155.745c-3.646-2.1-8.464-1.641-13.566,1.3-10.374,5.99-18.813,20.607-18.813,32.584V300.837a27.347,27.347,0,0,1-.2,3.1c.1.038.2.073.3.108l-.7,4.691-2.546,6.8-4.73,7.967-3.783,4.438-4.948,4.111,50.034,39.925,4.389,1.8,4.074-.182,5.421-1.928,6.075-4.366,6.039-7.312,4.483-8.9,2.019-6.357.355-5.647.133-2.4V227.836l.549-5.532,2.128-7.639,3.629-6.848,5.239-6.794,4.665-3.929L260,194.5l4.8-1.337,4.5.246,1.706.414Z" fill="url(#radial-gradient-6)"/>
        <path id="Path_238" data-name="Path 238" d="M171.791,309.96l-2.088,5.579-4.729,7.967-3.783,4.438-4.948,4.111,50.033,39.925,4.389,1.8,4.074-.182,5.42-1.928,6.075-4.366,6.039-7.312,4.484-8.9.972-3.06Z" fill="#06033e" opacity="0.4"/>
        <g id="Group_113" data-name="Group 113">
          <path id="Path_239" data-name="Path 239" d="M212.342,374.229a9.974,9.974,0,0,1-5.05-1.3c-3.646-2.106-5.653-6.509-5.653-12.4,0-11.978,8.439-26.6,18.812-32.584l.406.7c-10.149,5.859-18.407,20.16-18.407,31.88,0,5.588,1.864,9.742,5.248,11.7s7.913,1.491,12.753-1.3c10.149-5.86,18.406-20.161,18.406-31.879V227.836c0-11.977,8.439-26.594,18.813-32.584,5.1-2.945,9.921-3.409,13.565-1.3s5.654,6.509,5.654,12.4v11.509l-.812.834V206.348c0-5.588-1.864-9.742-5.248-11.7s-7.912-1.492-12.753,1.3c-10.149,5.86-18.407,20.161-18.407,31.879V339.042c0,11.977-8.439,26.594-18.812,32.584A17.319,17.319,0,0,1,212.342,374.229Z" fill="url(#linear-gradient-7)"/>
        </g>
        <path id="Path_240" data-name="Path 240" d="M201.639,360.53c0-11.978,8.439-26.6,18.812-32.584l-66-38.2c-10.373,5.989-18.812,20.607-18.812,32.583,0,5.838,1.974,10.212,5.557,12.339l.009.01.078.045.009.006,0,0L207,372.753l-.072-.077C203.523,370.49,201.639,366.213,201.639,360.53Z" fill="url(#radial-gradient-7)"/>
      </g>
      <g id="Group_115" data-name="Group 115" opacity="0.4">
        <path id="Path_241" data-name="Path 241" d="M185.973,231.8a2.287,2.287,0,0,0,1.033,1.79l5.051,2.915c.57.33,1.033.063,1.033-.6a2.287,2.287,0,0,0-1.033-1.79l-5.051-2.915C186.436,230.877,185.973,231.144,185.973,231.8Z" fill="#06033e"/>
        <path id="Path_242" data-name="Path 242" d="M181.889,210.639l9.89,5.71c.571.33,1.034.063,1.034-.6a2.284,2.284,0,0,0-1.034-1.79l-9.89-5.71c-.571-.33-1.033-.063-1.033.6A2.282,2.282,0,0,0,181.889,210.639Z" fill="#06033e"/>
        <path id="Path_243" data-name="Path 243" d="M223.862,234.872l5.371,3.1c.57.329,1.033.062,1.033-.6a2.287,2.287,0,0,0-1.033-1.79l-5.371-3.1c-.571-.33-1.034-.063-1.034.6A2.285,2.285,0,0,0,223.862,234.872Z" fill="#06033e"/>
        <path id="Path_244" data-name="Path 244" d="M223.862,239.872l5.371,3.1c.57.33,1.033.063,1.033-.6a2.287,2.287,0,0,0-1.033-1.79l-5.371-3.1c-.571-.329-1.034-.062-1.034.6A2.285,2.285,0,0,0,223.862,239.872Z" fill="#06033e"/>
        <path id="Path_245" data-name="Path 245" d="M223.862,244.871l5.371,3.1c.57.33,1.033.063,1.033-.6a2.285,2.285,0,0,0-1.033-1.79l-5.371-3.1c-.571-.329-1.034-.062-1.034.6A2.282,2.282,0,0,0,223.862,244.871Z" fill="#06033e"/>
        <path id="Path_246" data-name="Path 246" d="M223.862,249.871l5.371,3.1c.57.329,1.033.062,1.033-.6a2.285,2.285,0,0,0-1.033-1.79l-5.371-3.1c-.571-.329-1.034-.062-1.034.6A2.283,2.283,0,0,0,223.862,249.871Z" fill="#06033e"/>
        <path id="Path_247" data-name="Path 247" d="M223.862,254.871l5.371,3.1c.57.329,1.033.062,1.033-.6a2.283,2.283,0,0,0-1.033-1.789l-5.371-3.1c-.571-.33-1.034-.063-1.034.6A2.283,2.283,0,0,0,223.862,254.871Z" fill="#06033e"/>
        <path id="Path_248" data-name="Path 248" d="M223.862,259.871l5.371,3.1c.57.329,1.033.062,1.033-.6a2.287,2.287,0,0,0-1.033-1.79l-5.371-3.1c-.571-.33-1.034-.063-1.034.6A2.285,2.285,0,0,0,223.862,259.871Z" fill="#06033e"/>
        <path id="Path_249" data-name="Path 249" d="M223.862,264.871l5.371,3.1c.57.33,1.033.063,1.033-.6a2.287,2.287,0,0,0-1.033-1.79l-5.371-3.1c-.571-.329-1.034-.062-1.034.6A2.285,2.285,0,0,0,223.862,264.871Z" fill="#06033e"/>
        <path id="Path_250" data-name="Path 250" d="M223.862,269.87l5.371,3.1c.57.33,1.033.063,1.033-.6a2.285,2.285,0,0,0-1.033-1.79l-5.371-3.1c-.571-.329-1.034-.062-1.034.6A2.282,2.282,0,0,0,223.862,269.87Z" fill="#06033e"/>
        <path id="Path_251" data-name="Path 251" d="M180.856,213.849a2.284,2.284,0,0,0,1.033,1.79l15.214,8.784c.57.329,1.033.062,1.033-.6a2.287,2.287,0,0,0-1.033-1.79l-15.214-8.783C181.318,212.923,180.856,213.19,180.856,213.849Z" fill="#06033e"/>
        <path id="Path_252" data-name="Path 252" d="M181.889,220.639l3.051,1.761c.571.33,1.033.062,1.033-.6a2.281,2.281,0,0,0-1.033-1.789l-3.051-1.762c-.571-.329-1.033-.062-1.033.6A2.284,2.284,0,0,0,181.889,220.639Z" fill="#06033e"/>
        <path id="Path_253" data-name="Path 253" d="M181.889,225.639l8.611,4.971c.571.33,1.034.063,1.034-.6a2.283,2.283,0,0,0-1.034-1.79l-8.611-4.972c-.571-.329-1.033-.062-1.033.6A2.284,2.284,0,0,0,181.889,225.639Z" fill="#06033e"/>
        <path id="Path_254" data-name="Path 254" d="M181.889,230.638l1.859,1.074c.571.329,1.033.062,1.033-.6a2.284,2.284,0,0,0-1.033-1.79l-1.859-1.073c-.571-.329-1.033-.062-1.033.6A2.282,2.282,0,0,0,181.889,230.638Z" fill="#06033e"/>
        <path id="Path_255" data-name="Path 255" d="M193.329,241.05a2.284,2.284,0,0,0-1.033-1.79l-10.407-6.008c-.571-.329-1.033-.063-1.033.6a2.282,2.282,0,0,0,1.033,1.789l10.407,6.009C192.867,241.976,193.329,241.709,193.329,241.05Z" fill="#06033e"/>
        <path id="Path_256" data-name="Path 256" d="M203.367,243.039l9.582,5.532c.571.329,1.033.062,1.033-.6a2.284,2.284,0,0,0-1.033-1.79l-9.582-5.531-.825-.477-6.752-3.9c-.571-.33-1.034-.063-1.034.6a2.285,2.285,0,0,0,1.034,1.79l6.752,3.9Z" fill="#06033e"/>
        <path id="Path_257" data-name="Path 257" d="M181.889,238.252c-.571-.33-1.033-.063-1.033.6a2.282,2.282,0,0,0,1.033,1.79l2.376,1.372c.57.329,1.033.062,1.033-.6a2.287,2.287,0,0,0-1.033-1.79Z" fill="#06033e"/>
        <path id="Path_258" data-name="Path 258" d="M194.584,245.581l-6.716-3.878c-.571-.329-1.034-.062-1.034.6a2.285,2.285,0,0,0,1.034,1.79l6.716,3.878c.571.329,1.033.062,1.033-.6A2.284,2.284,0,0,0,194.584,245.581Z" fill="#06033e"/>
        <path id="Path_259" data-name="Path 259" d="M186.64,245.995l-4.751-2.743c-.571-.33-1.033-.063-1.033.6a2.284,2.284,0,0,0,1.033,1.79l4.751,2.743c.571.33,1.034.063,1.034-.6A2.283,2.283,0,0,0,186.64,245.995Z" fill="#06033e"/>
        <path id="Path_260" data-name="Path 260" d="M209.43,254.153l-2.3-1.327-.654-.378-7.957-4.594c-.571-.33-1.034-.063-1.034.6a2.282,2.282,0,0,0,1.034,1.79l7.957,4.6.654.377,2.3,1.327c.571.33,1.034.063,1.034-.6A2.282,2.282,0,0,0,209.43,254.153Z" fill="#06033e"/>
        <path id="Path_261" data-name="Path 261" d="M216.319,258.13l-2.952-1.7c-.571-.33-1.033-.063-1.033.6a2.284,2.284,0,0,0,1.033,1.79l2.952,1.7c.571.33,1.034.063,1.034-.6A2.285,2.285,0,0,0,216.319,258.13Z" fill="#06033e"/>
        <path id="Path_262" data-name="Path 262" d="M198.352,228.95a2.285,2.285,0,0,0-1.034-1.79l-8.611-4.971c-.57-.33-1.033-.063-1.033.6a2.285,2.285,0,0,0,1.033,1.79l8.611,4.972C197.889,229.876,198.352,229.609,198.352,228.95Z" fill="#06033e"/>
        <path id="Path_263" data-name="Path 263" d="M204.059,231.052l-.506-.292-2.446-1.412c-.571-.329-1.033-.063-1.033.6a2.282,2.282,0,0,0,1.033,1.79l2.446,1.413.506.292,2.447,1.412c.571.33,1.033.062,1.033-.6a2.281,2.281,0,0,0-1.033-1.79Z" fill="#06033e"/>
      </g>
      <path id="Path_264" data-name="Path 264" d="M224.035,305.835a2.262,2.262,0,0,1-1.125-.329l-37.1-21.419a5.392,5.392,0,0,1-2.309-4.353V270.04a2.4,2.4,0,0,1,1.021-2.182,1.918,1.918,0,0,1,1.969.1l37.1,21.42a5.393,5.393,0,0,1,2.31,4.353v9.694a2.4,2.4,0,0,1-1.021,2.183A1.682,1.682,0,0,1,224.035,305.835ZM185.372,269a.325.325,0,0,0-.168.042c-.157.09-.34.407-.34,1v9.694a4.035,4.035,0,0,0,1.628,3.172l37.1,21.419c.147.085.421.213.606.1.157-.091.34-.407.34-1v-9.694a4.032,4.032,0,0,0-1.628-3.171l-37.1-21.42A.967.967,0,0,0,185.372,269Z" fill="#06033e" opacity="0.4"/>
      <path id="Path_265" data-name="Path 265" d="M205.467,286.1l-2.3-1.327-.654-.378-7.958-4.594c-.57-.33-1.033-.063-1.033.6a2.285,2.285,0,0,0,1.033,1.79l7.958,4.594.654.378,2.3,1.327c.571.33,1.034.062,1.034-.6A2.282,2.282,0,0,0,205.467,286.1Z" fill="#06033e" opacity="0.4"/>
      <path id="Path_266" data-name="Path 266" d="M212.356,290.076l-2.952-1.7c-.571-.33-1.033-.063-1.033.6a2.284,2.284,0,0,0,1.033,1.79l2.952,1.7c.571.33,1.034.063,1.034-.6A2.285,2.285,0,0,0,212.356,290.076Z" fill="#06033e" opacity="0.4"/>
    </g>
    <g id="Group_119" data-name="Group 119" transform="translate(-4.845 -64.335)">
      <ellipse id="Ellipse_9" data-name="Ellipse 9" cx="29.28" cy="16.905" rx="29.28" ry="16.905" transform="translate(276.815 390.414)" fill="#020230" opacity="0.6"/>
      <path id="Path_267" data-name="Path 267" d="M349.5,286.835H266.1l7.757,90.3h0c0,5.015,3.314,10.03,9.942,13.856,13.255,7.653,34.746,7.654,48,0,6.628-3.827,9.941-8.842,9.941-13.858Z" fill="url(#radial-gradient-8)"/>
      <path id="Path_268" data-name="Path 268" d="M349.5,286.835H266.1l1.276,14.855a32.414,32.414,0,0,0,7.729,6.953c15.936,10.572,42.231,12.609,60.174,5L332.5,379.681a12.972,12.972,0,0,1-2.98,7.875c-2.7,3.179-7.906,6.92-17.911,9.035,7.375-.479,14.532-2.338,20.187-5.6,6.628-3.827,9.941-8.842,9.941-13.858l6.22-72.414h0Z" fill="#06033e" opacity="0.4"/>
      <ellipse id="Ellipse_10" data-name="Ellipse 10" cx="41.699" cy="24.075" rx="41.699" ry="24.075" transform="translate(266.1 262.76)" fill="#06033e" opacity="0.4"/>
      <ellipse id="Ellipse_11" data-name="Ellipse 11" cx="35.916" cy="20.736" rx="35.916" ry="20.736" transform="translate(271.882 257.612)" fill="#06033e" opacity="0.4"/>
      <path id="Path_269" data-name="Path 269" d="M351.967,285.7l0,.007-.007-.074c0-.041-.009-.082-.013-.123l-.8-8.085-.035.091c-.358-6.119-4.573-12.178-12.663-16.849-16.931-9.775-44.381-9.775-61.311,0-8.3,4.79-12.515,11.036-12.681,17.313l-.01-.022-.763,7.2c-.021.188-.046.375-.06.562l-.012.118.008-.005c-.457,6.859,3.841,13.8,12.91,19.039,17.267,9.97,45.262,9.97,62.529,0C348.19,299.6,352.489,292.6,351.967,285.7Z" fill="url(#linear-gradient-8)"/>
      <ellipse id="Ellipse_12" data-name="Ellipse 12" cx="35.916" cy="20.736" rx="35.916" ry="20.736" transform="translate(271.882 257.612)" fill="url(#linear-gradient-9)"/>
      <ellipse id="Ellipse_13" data-name="Ellipse 13" cx="35.916" cy="20.736" rx="35.916" ry="20.736" transform="translate(270.178 257.612)" fill="url(#linear-gradient-9)"/>
      <path id="Path_270" data-name="Path 270" d="M286.662,266.775c14.026-8.1,36.767-8.1,50.793,0,.179.1.329.216.5.321a28.727,28.727,0,0,0-4.763-3.41c-14.026-8.1-36.767-8.1-50.793,0-13.848,7.995-14,20.885-.5,29C272.889,284.656,274.467,273.815,286.662,266.775Z" fill="#06033e" opacity="0.4"/>
      <path id="Path_271" data-name="Path 271" d="M282.4,267.285c14.026-8.1,36.767-8.1,50.793,0,6.22,3.591,9.675,8.172,10.379,12.864.883-5.89-2.572-11.955-10.379-16.463-14.026-8.1-36.767-8.1-50.793,0-7.807,4.507-11.262,10.572-10.379,16.462C272.727,275.456,276.182,270.875,282.4,267.285Z" fill="url(#linear-gradient-11)"/>
      <path id="Path_272" data-name="Path 272" d="M338.722,260.856c-16.907-9.96-44.457-10.2-61.535-.542s-17.218,25.567-.312,35.527,44.456,10.2,61.535.542S355.628,270.816,338.722,260.856ZM333.2,293.012a46.813,46.813,0,0,1-16.332,5.383l-.652-2.143a2.054,2.054,0,0,0-1.965-1.456h-12.9a2.054,2.054,0,0,0-1.965,1.456l-.652,2.142a46.81,46.81,0,0,1-16.33-5.383c-14.027-8.1-14.027-21.227,0-29.325s36.767-8.1,50.793,0S347.222,284.914,333.2,293.012Z" fill="url(#radial-gradient-9)"/>
      <g id="Group_117" data-name="Group 117">
        <path id="Path_273" data-name="Path 273" d="M333.2,262.151c-14.026-8.1-36.767-8.1-50.793,0-7.351,4.244-10.842,9.87-10.488,15.429.322-5.048,3.813-10.041,10.488-13.894,14.026-8.1,36.767-8.1,50.793,0,6.675,3.854,10.166,8.847,10.488,13.895C344.038,272.022,340.547,266.395,333.2,262.151Z" fill="#fff"/>
        <path id="Path_274" data-name="Path 274" d="M338.41,294.848c-17.078,9.661-44.628,9.418-61.535-.542-8.045-4.74-12.222-10.826-12.558-16.945-.333,6.626,3.84,13.344,12.558,18.48,16.907,9.961,44.457,10.2,61.535.542,8.951-5.063,13.241-11.842,12.87-18.582C350.967,284.025,346.681,290.169,338.41,294.848Z" fill="#fff"/>
      </g>
      <rect id="Rectangle_366" data-name="Rectangle 366" width="9.657" height="2.084" rx="0.974" transform="translate(302.97 297.426)" fill="#0c0a78"/>
      <path id="Path_275" data-name="Path 275" d="M311.653,297.426h-7.709a.974.974,0,0,0-.974.974v.137a.911.911,0,0,0,.053.259.96.96,0,0,1,.921-.715h7.709a.962.962,0,0,1,.922.715.985.985,0,0,0,.052-.259V298.4A.974.974,0,0,0,311.653,297.426Z" fill="url(#linear-gradient-12)"/>
      <g id="Group_118" data-name="Group 118">
        <path id="Path_276" data-name="Path 276" d="M308.979,367.855a6.662,6.662,0,1,1-12.877-3.424c.945-3.556,4.3-4.563,7.856-3.617S309.925,364.3,308.979,367.855Z" fill="#e8975b"/>
        <path id="Path_277" data-name="Path 277" d="M314.225,360.836a2.95,2.95,0,1,1-4.124-4.219c1.341-1.311,3.891-1.957,5.03-.792S315.566,359.525,314.225,360.836Z" fill="#e8975b"/>
        <path id="Path_278" data-name="Path 278" d="M307.256,355.262a2.95,2.95,0,1,1-5.808-1.034c.328-1.846,2.027-3.855,3.631-3.569S307.585,353.415,307.256,355.262Z" fill="#e8975b"/>
        <path id="Path_279" data-name="Path 279" d="M298.668,354.409a2.951,2.951,0,1,1-5.457,2.245c-.713-1.735-.357-4.341,1.149-4.961S297.954,352.675,298.668,354.409Z" fill="#e8975b"/>
      </g>
    </g>
    <g id="Group_120" data-name="Group 120" transform="translate(-4.845 -64.335)">
      <path id="Path_280" data-name="Path 280" d="M385.263,245.461l16.895-9.734a3.9,3.9,0,0,1,3.528,0,1.075,1.075,0,0,1,0,2.037L388.79,247.5a3.9,3.9,0,0,1-3.529,0A1.076,1.076,0,0,1,385.263,245.461Z" fill="url(#linear-gradient-13)"/>
      <path id="Path_281" data-name="Path 281" d="M377.872,243.224a1.075,1.075,0,0,1,0-2.037l25.988-14.974a3.9,3.9,0,0,1,3.529,0,1.075,1.075,0,0,1,0,2.037L381.4,243.227A3.9,3.9,0,0,1,377.872,243.224Z" fill="#e8975b"/>
      <path id="Path_282" data-name="Path 282" d="M370.485,236.912l5.211-3a3.9,3.9,0,0,1,3.529,0,1.075,1.075,0,0,1,0,2.037l-5.211,3a3.9,3.9,0,0,1-3.529,0A1.075,1.075,0,0,1,370.485,236.912Z" fill="#e8975b"/>
      <path id="Path_283" data-name="Path 283" d="M363.1,232.637l14.71-8.475a3.9,3.9,0,0,1,3.528,0,1.075,1.075,0,0,1,0,2.037l-14.709,8.476a3.9,3.9,0,0,1-3.528,0A1.076,1.076,0,0,1,363.1,232.637Z" fill="#e8975b"/>
      <path id="Path_284" data-name="Path 284" d="M400.37,221.729a1.076,1.076,0,0,1,0,2.038l-14.71,8.475a3.9,3.9,0,0,1-3.528,0,1.075,1.075,0,0,1,0-2.037l14.709-8.476A3.9,3.9,0,0,1,400.37,221.729Z" opacity="0.7" fill="url(#linear-gradient-13)"/>
      <path id="Path_285" data-name="Path 285" d="M411.883,217.132l-.864.5-4.179,2.408a3.9,3.9,0,0,1-3.529,0,1.075,1.075,0,0,1,0-2.037l4.179-2.407.864-.5,4.179-2.408a3.9,3.9,0,0,1,3.529,0,1.075,1.075,0,0,1,0,2.037Z" fill="#e8975b"/>
    </g>
  </g>
</svg>
