<svg id="Light_bulb" data-name="Light bulb" xmlns="http://www.w3.org/2000/svg" width="89.059" height="91.316" viewBox="0 0 89.059 91.316">
  <g id="Group_34" data-name="Group 34" transform="translate(0)">
    <g id="freepik--light--inject-77" transform="translate(20.577 20.31)">
      <path id="Path_83" data-name="Path 83" d="M213.826,150.636a4.942,4.942,0,1,1,0-.01Z" transform="translate(-184.071 -84.734)" fill="#37474f"/>
      <path id="Path_84" data-name="Path 84" d="M203.793,152.069c-3.367-1.868-3.422-4.989-.11-6.977a13.351,13.351,0,0,1,12.078-.177c3.349,1.874,3.405,5,.1,6.961A13.332,13.332,0,0,1,203.793,152.069Z" transform="translate(-185.15 -85.638)" fill="#455a64"/>
      <path id="Path_85" data-name="Path 85" d="M203.663,150.879c-3.468-1.938-3.523-5.15-.121-7.192a13.823,13.823,0,0,1,12.455-.2c3.466,1.938,3.523,5.15.1,7.182A13.666,13.666,0,0,1,203.663,150.879Z" transform="translate(-185.237 -86.255)" fill="#37474f"/>
      <path id="Path_86" data-name="Path 86" d="M203.533,149.636c-3.563-1.994-3.619-5.3-.08-7.32a14.148,14.148,0,0,1,12.786-.2c3.577,1.987,3.639,5.306.132,7.408A14.2,14.2,0,0,1,203.533,149.636Z" transform="translate(-185.321 -86.856)" fill="#455a64"/>
      <path id="Path_87" data-name="Path 87" d="M203.386,148.367c-3.673-2.042-3.718-5.46-.105-7.622a14.615,14.615,0,0,1,13.217-.222c3.678,2.058,3.74,5.47.112,7.637A14.634,14.634,0,0,1,203.386,148.367Z" transform="translate(-185.418 -87.55)" fill="#37474f"/>
      <path id="Path_88" data-name="Path 88" d="M203.272,147.026c-3.8-2.175-3.822-5.584-.121-7.8a14.866,14.866,0,0,1,13.5-.205c3.763,2.079,3.817,5.568.115,7.783A14.9,14.9,0,0,1,203.272,147.026Z" transform="translate(-185.504 -88.207)" fill="#455a64"/>
      <path id="Path_89" data-name="Path 89" d="M213.549,102.891a23.928,23.928,0,0,0-23.607,24.245v.11c.3,19.033,16.023,21.954,16.179,29.61A4.12,4.12,0,0,0,208.6,160.2a12.934,12.934,0,0,0,11.693-.172,4.118,4.118,0,0,0,2.331-3.4h0c-.125-7.669,15.527-11.077,15.227-30.126a23.928,23.928,0,0,0-24.244-23.609Z" transform="translate(-189.939 -102.887)" fill="#ba68c8"/>
      <g id="Group_33" data-name="Group 33">
        <path id="Path_90" data-name="Path 90" d="M213.549,102.891a23.928,23.928,0,0,0-23.607,24.245v.11c.3,19.033,16.023,21.954,16.179,29.61A4.12,4.12,0,0,0,208.6,160.2a12.934,12.934,0,0,0,11.693-.172,4.118,4.118,0,0,0,2.331-3.4h0c-.125-7.669,15.527-11.077,15.227-30.126a23.928,23.928,0,0,0-24.244-23.609Z" transform="translate(-189.939 -102.887)" fill="#f7cc7e"/>
      </g>
      <path id="Path_91" data-name="Path 91" d="M204.621,144.264c-2.387-1.391-2.5-3.626-.157-5.047a9.761,9.761,0,0,1,8.805-.134c2.387,1.391,2.482,3.633.077,5.078A9.691,9.691,0,0,1,204.621,144.264Z" transform="translate(-184.499 -87.954)" fill="#ba68c8"/>
      <path id="Path_92" data-name="Path 92" d="M214.052,148.934a.821.821,0,0,1-.822-.778,58.466,58.466,0,0,1,1.478-13.706,28.461,28.461,0,0,1,1.134-3.829,10.789,10.789,0,0,1-2.106-1.005,13.891,13.891,0,0,1-3.248-2.686,14.3,14.3,0,0,1-3.132,2.724,11.316,11.316,0,0,1-2.071,1.04,30.471,30.471,0,0,1,1.262,3.8,57.391,57.391,0,0,1,1.893,13.679.813.813,0,0,1-1.625-.02,57.53,57.53,0,0,0-1.853-13.253,26.162,26.162,0,0,0-1.266-3.764,5.123,5.123,0,0,1-4.561-1.267,2.613,2.613,0,0,1-.4-3.349,2.173,2.173,0,0,1,2.21-.966,6.156,6.156,0,0,1,3.653,3.666,9.161,9.161,0,0,0,1.87-.94,12.518,12.518,0,0,0,3.012-2.66,5.96,5.96,0,0,1-1.266-4.553,2.285,2.285,0,0,1,4.365-.07,5.9,5.9,0,0,1-1.109,4.591,12.66,12.66,0,0,0,3.075,2.571,9.434,9.434,0,0,0,1.9.866,6.258,6.258,0,0,1,3.546-3.771,2.15,2.15,0,0,1,2.217.961,2.58,2.58,0,0,1-.293,3.351,5.129,5.129,0,0,1-4.513,1.414,27.07,27.07,0,0,0-1.162,3.8,57.266,57.266,0,0,0-1.413,13.313.82.82,0,0,1-.787.843Zm-13.516-21.749a.529.529,0,0,0-.449.306c-.393.541.078,1.126.232,1.286a3.232,3.232,0,0,0,2.616.8,4.619,4.619,0,0,0-2.276-2.41Zm17.622,2.227a3.315,3.315,0,0,0,2.6-.914c.137-.165.6-.753.205-1.294a.552.552,0,0,0-.59-.282C219.825,127.027,218.989,127.8,218.158,129.412Zm-7.721-8.288a.547.547,0,0,0-.63.449v0a3.929,3.929,0,0,0,.679,2.653,3.976,3.976,0,0,0,.58-2.673.547.547,0,0,0-.629-.449h-.006Z" transform="translate(-186.394 -95.877)" fill="#fff"/>
    </g>
    <path id="Path_93" data-name="Path 93" d="M207.179,99.855a1.168,1.168,0,0,1-.413.071,1.571,1.571,0,0,1-1.6-1.537l-.174-8.164a1.553,1.553,0,0,1,1.51-1.6h.027a1.574,1.574,0,0,1,1.6,1.537l.174,8.164A1.572,1.572,0,0,1,207.179,99.855Z" transform="translate(-162.978 -88.626)" fill="#e0e0e0"/>
    <path id="Path_94" data-name="Path 94" d="M196.214,103.028a1.555,1.555,0,0,1-1.774-.676l-4.245-6.98a1.573,1.573,0,0,1,2.683-1.629l4.238,6.962a1.572,1.572,0,0,1-.525,2.156A1.114,1.114,0,0,1,196.214,103.028Z" transform="translate(-169.33 -86.741)" fill="#e0e0e0"/>
    <path id="Path_95" data-name="Path 95" d="M188.364,111.3a1.527,1.527,0,0,1-1.209-.128l-7.175-3.929a1.572,1.572,0,0,1-.635-2.12,1.591,1.591,0,0,1,2.142-.625l7.169,3.913a1.573,1.573,0,0,1,.619,2.126A1.539,1.539,0,0,1,188.364,111.3Z" transform="translate(-173.934 -81.974)" fill="#e0e0e0"/>
    <path id="Path_96" data-name="Path 96" d="M185.629,122.436a1.215,1.215,0,0,1-.382.151l-8.164.174a1.54,1.54,0,0,1-1.592-1.482v-.038a1.555,1.555,0,0,1,1.5-1.609h.014l8.164-.266a1.572,1.572,0,0,1,.476,3.065Z" transform="translate(-175.49 -75.59)" fill="#e0e0e0"/>
    <path id="Path_97" data-name="Path 97" d="M240.3,121.22a1.215,1.215,0,0,1-.382.151l-8.2.094a1.56,1.56,0,1,1-.056-3.12l8.157-.189a1.572,1.572,0,0,1,.476,3.065Z" transform="translate(-152.316 -76.102)" fill="#e0e0e0"/>
    <path id="Path_98" data-name="Path 98" d="M228.585,110.457a1.572,1.572,0,0,1-1.255-2.848l6.985-4.23a1.54,1.54,0,0,1,2.119.493l.014.024a1.554,1.554,0,0,1-.5,2.142l-.011.009-6.98,4.244A1.663,1.663,0,0,1,228.585,110.457Z" transform="translate(-153.819 -82.467)" fill="#e0e0e0"/>
    <path id="Path_99" data-name="Path 99" d="M219.441,102.506a1.574,1.574,0,0,1-1.829-2.256l3.966-7.079a1.573,1.573,0,0,1,2.746,1.507l-3.935,7.159A1.541,1.541,0,0,1,219.441,102.506Z" transform="translate(-157.706 -86.992)" fill="#e0e0e0"/>
  </g>
</svg>
