<svg id="Group_29" data-name="Group 29" xmlns="http://www.w3.org/2000/svg" width="207.376" height="386.766" viewBox="0 0 207.376 386.766">
  <g id="Group_15" data-name="Group 15" transform="translate(23.299 177.046)">
    <g id="Group_12" data-name="Group 12" transform="translate(89.119 106.781)">
      <path id="Path_24" data-name="Path 24" d="M276.04,367.437c-1.465,5.842-1.754,16.373-1.754,16.373l-3.884-1.464a10.037,10.037,0,0,0-10.795,2.458l-.191.2a3.91,3.91,0,0,1-5.4.245h0a3.91,3.91,0,0,1-1.337-2.823l-.521-16.532Z" transform="translate(-243.479 -365.893)" fill="#ffa8a7"/>
      <path id="Path_25" data-name="Path 25" d="M263.629,419.638c8.06,8.623,22.9,16.158,33.686,8.8l-1.211,2.744c-10.782,7.354-25.625-.182-33.686-8.805s-2.83-14.594-10.083-22.243a26.341,26.341,0,0,1-6.272-9.317c.322-.825.631-1.9,1.011-3.13a33.013,33.013,0,0,0,6.47,9.7C260.8,405.042,255.57,411.015,263.629,419.638Z" transform="translate(-246.064 -356.648)" fill="#f5f5f5"/>
      <path id="Path_26" data-name="Path 26" d="M250.746,383.831a15.593,15.593,0,0,0,2.533-5.88,3.418,3.418,0,0,1,1.6-2.4l.087,2.774a3.91,3.91,0,0,0,6.736,2.578l.191-.2a10.037,10.037,0,0,1,10.795-2.458l3.946,1.488a3.023,3.023,0,0,1,1.962,2.905c-.252,11.306,5.03,26.322,10.567,34.572,5.7,2.358,10.612,10.12,8.1,15.809l-.251.567c-10.783,7.354-25.625-.181-33.686-8.8s-2.83-14.6-10.084-22.245a33.011,33.011,0,0,1-6.47-9.7A35.449,35.449,0,0,1,250.746,383.831Z" transform="translate(-245.763 -361.796)" fill="#623d68"/>
      <path id="Path_27" data-name="Path 27" d="M250.746,383.831a15.593,15.593,0,0,0,2.533-5.88,3.418,3.418,0,0,1,1.6-2.4l.087,2.774a3.91,3.91,0,0,0,6.736,2.578l.191-.2a10.037,10.037,0,0,1,10.795-2.458l3.946,1.488a3.023,3.023,0,0,1,1.962,2.905c-.252,11.306,5.03,26.322,10.567,34.572,5.7,2.358,10.612,10.12,8.1,15.809l-.251.567c-10.783,7.354-25.625-.181-33.686-8.8s-2.83-14.6-10.084-22.245a33.011,33.011,0,0,1-6.47-9.7A35.449,35.449,0,0,1,250.746,383.831Z" transform="translate(-245.763 -361.796)" fill="#623d68"/>
      <path id="Path_28" data-name="Path 28" d="M250.746,383.831a15.593,15.593,0,0,0,2.533-5.88,3.418,3.418,0,0,1,1.6-2.4l.087,2.774a3.91,3.91,0,0,0,6.736,2.578l.191-.2a10.037,10.037,0,0,1,10.795-2.458l3.946,1.488a3.023,3.023,0,0,1,1.962,2.905c-.252,11.306,5.03,26.322,10.567,34.572,5.7,2.358,10.612,10.12,8.1,15.809l-.251.567c-10.783,7.354-25.625-.181-33.686-8.8s-2.83-14.6-10.084-22.245a33.011,33.011,0,0,1-6.47-9.7A35.449,35.449,0,0,1,250.746,383.831Z" transform="translate(-245.763 -361.796)" fill="#623d68" opacity="0.2"/>
      <g id="Group_11" data-name="Group 11" transform="translate(16.789 27.768)">
        <path id="Path_29" data-name="Path 29" d="M261.225,394.157a1.378,1.378,0,0,1-1.267-2.445,15.729,15.729,0,0,1,15.483.026q.361,1.335.769,2.657C271.644,392.075,267.012,391.232,261.225,394.157Z" transform="translate(-257.262 -383.568)" fill="#fff"/>
        <path id="Path_30" data-name="Path 30" d="M259.831,389.868a1.377,1.377,0,0,1-1.266-2.445,16.535,16.535,0,0,1,16.111.128c.161.92.352,1.846.557,2.773C270.53,387.844,265.794,386.853,259.831,389.868Z" transform="translate(-257.853 -385.392)" fill="#fff"/>
        <path id="Path_31" data-name="Path 31" d="M262.755,398.428a1.378,1.378,0,0,1-1.267-2.445,15.711,15.711,0,0,1,15.152-.151c.343.958.7,1.9,1.077,2.821C273.157,396.343,268.532,395.507,262.755,398.428Z" transform="translate(-256.613 -381.757)" fill="#fff"/>
        <path id="Path_32" data-name="Path 32" d="M284.119,405.379c5.7,2.358,10.612,10.12,8.1,15.809l-.251.567c-10.624,7.246-25.174.036-33.31-8.425C265.448,400.021,279.635,403.339,284.119,405.379Z" transform="translate(-257.51 -377.729)" fill="#fff"/>
        <path id="Path_33" data-name="Path 33" d="M264.429,402.6a1.378,1.378,0,0,1-1.267-2.445,15.716,15.716,0,0,1,15.184-.135c.481,1.055.978,2.065,1.484,3.038C275.129,400.575,270.391,399.586,264.429,402.6Z" transform="translate(-255.903 -379.988)" fill="#fff"/>
      </g>
    </g>
    <g id="Group_14" data-name="Group 14" transform="translate(116.15 141.196)">
      <path id="Path_34" data-name="Path 34" d="M287.519,390.059c1.017,5.936,5,15.688,5,15.688l-4.144.228a10.035,10.035,0,0,0-8.883,6.6l-.1.261a3.909,3.909,0,0,1-4.841,2.4h0A3.913,3.913,0,0,1,272.2,413.2l-7.15-14.915Z" transform="translate(-265.045 -390.059)" fill="#ffa8a7"/>
      <path id="Path_35" data-name="Path 35" d="M296.957,440.5c10.856,4.635,27.477,5.54,34.374-5.541v3c-6.9,11.081-23.518,10.177-34.374,5.54s-8.479-12.21-18.2-16.282a26.35,26.35,0,0,1-9.5-5.993c-.037-.883-.188-1.991-.339-3.271a33.063,33.063,0,0,0,9.836,6.266C288.478,428.288,286.1,435.863,296.957,440.5Z" transform="translate(-263.403 -378.229)" fill="#f5f5f5"/>
      <path id="Path_36" data-name="Path 36" d="M269.02,415.267a15.615,15.615,0,0,0-.055-6.4,3.413,3.413,0,0,1,.494-2.838l1.2,2.5a3.91,3.91,0,0,0,7.2-.359l.1-.261a10.035,10.035,0,0,1,8.884-6.6l4.211-.232a3.029,3.029,0,0,1,2.968,1.866c4.332,10.447,15.225,22.054,23.622,27.367,6.162-.141,13.794,4.974,13.794,11.193v.62c-6.9,11.081-23.518,10.177-34.374,5.541s-8.479-12.212-18.2-16.282a33.064,33.064,0,0,1-9.836-6.266A35.444,35.444,0,0,1,269.02,415.267Z" transform="translate(-263.507 -385.39)" fill="#54125f"/>
      <path id="Path_37" data-name="Path 37" d="M269.02,415.267a15.615,15.615,0,0,0-.055-6.4,3.413,3.413,0,0,1,.494-2.838l1.2,2.5a3.91,3.91,0,0,0,7.2-.359l.1-.261a10.035,10.035,0,0,1,8.884-6.6l4.211-.232a3.029,3.029,0,0,1,2.968,1.866c4.332,10.447,15.225,22.054,23.622,27.367,6.162-.141,13.794,4.974,13.794,11.193v.62c-6.9,11.081-23.518,10.177-34.374,5.541s-8.479-12.212-18.2-16.282a33.064,33.064,0,0,1-9.836-6.266A35.444,35.444,0,0,1,269.02,415.267Z" transform="translate(-263.507 -385.39)" opacity="0.3"/>
      <path id="Path_38" data-name="Path 38" d="M269.02,415.267a15.615,15.615,0,0,0-.055-6.4,3.413,3.413,0,0,1,.494-2.838l1.2,2.5a3.91,3.91,0,0,0,7.2-.359l.1-.261a10.035,10.035,0,0,1,8.884-6.6l4.211-.232a3.029,3.029,0,0,1,2.968,1.866c4.332,10.447,15.225,22.054,23.622,27.367,6.162-.141,13.794,4.974,13.794,11.193v.62c-6.9,11.081-23.518,10.177-34.374,5.541s-8.479-12.212-18.2-16.282a33.064,33.064,0,0,1-9.836-6.266A35.444,35.444,0,0,1,269.02,415.267Z" transform="translate(-263.507 -385.39)" fill="#fff" opacity="0.2"/>
      <g id="Group_13" data-name="Group 13" transform="translate(19.811 25.475)">
        <path id="Path_39" data-name="Path 39" d="M284.4,419.444a1.377,1.377,0,0,1-2.146-1.725,15.733,15.733,0,0,1,14.177-6.228q.869,1.077,1.776,2.122C293.089,413.334,288.511,414.432,284.4,419.444Z" transform="translate(-277.68 -406.472)" fill="#fff"/>
        <path id="Path_40" data-name="Path 40" d="M281.39,416.128a1.378,1.378,0,0,1-2.146-1.726,16.533,16.533,0,0,1,14.792-6.386c.52.776,1.067,1.547,1.629,2.313C290.362,409.959,285.628,410.963,281.39,416.128Z" transform="translate(-278.956 -407.948)" fill="#fff"/>
        <path id="Path_41" data-name="Path 41" d="M287.521,422.734a1.377,1.377,0,0,1-2.146-1.725,15.711,15.711,0,0,1,13.8-6.255c.7.739,1.41,1.451,2.123,2.148C296.2,416.628,291.627,417.731,287.521,422.734Z" transform="translate(-276.356 -405.077)" fill="#fff"/>
        <path id="Path_42" data-name="Path 42" d="M309.038,421.6c6.162-.141,13.794,4.974,13.794,11.193v.619c-6.8,10.917-23.018,10.192-33.877,5.735C289.792,424.234,304.112,421.544,309.038,421.6Z" transform="translate(-274.715 -402.159)" fill="#fff"/>
        <path id="Path_43" data-name="Path 43" d="M290.735,425.875a1.378,1.378,0,0,1-2.146-1.726,15.714,15.714,0,0,1,13.837-6.252c.867.77,1.729,1.494,2.585,2.179C299.707,419.705,294.974,420.711,290.735,425.875Z" transform="translate(-274.992 -403.745)" fill="#fff"/>
      </g>
    </g>
    <path id="Path_44" data-name="Path 44" d="M258.337,290.912l54.334,30.272a26.922,26.922,0,0,1,13.368,28.435l-10.546,56.793,8.65,27.475C316.682,443.9,299.551,444.4,299.551,444.4,290,425.238,282.986,417.1,277.559,401.041s-9.046-27.136-9.046-27.136l-45.124-12.331a53.476,53.476,0,0,1-39.1-45.495c-.769-6.824-.8-11.483-.8-11.483Z" transform="translate(-183.485 -290.912)" fill="#263238"/>
    <path id="Path_45" data-name="Path 45" d="M237.567,301.63a25.7,25.7,0,0,1-6.077,16.56l38.341,24a27.569,27.569,0,0,1,11.733,15.3l13.57,44.375-12.24-49.421a22.4,22.4,0,0,0-9.966-13.67l-35.4-21.881C241.144,307.849,237.567,301.63,237.567,301.63Z" transform="translate(-163.126 -286.366)" opacity="0.2"/>
  </g>
  <g id="Group_28" data-name="Group 28" transform="translate(0)">
    <g id="Group_16" data-name="Group 16" transform="translate(54.78 172.428)">
      <path id="Path_46" data-name="Path 46" d="M205.608,320.89a2.022,2.022,0,0,0,.07.719c.006.017.006.034.011.051a2.328,2.328,0,0,0,.279.558c.013.02.019.04.033.06a3.165,3.165,0,0,0,.493.547c.011.01.018.021.03.031a4.562,4.562,0,0,0,.732.523l39.762,23.108a6.458,6.458,0,0,0,1.141.5c.142.05.289.093.437.134.191.054.382.1.578.144.234.048.469.091.708.121.057.007.111.019.168.024.322.034.648.051.974.054h.155c.322,0,.644-.021.961-.054l.144-.016a9.325,9.325,0,0,0,.927-.159c.057-.013.111-.027.168-.041a7.875,7.875,0,0,0,.8-.243c.048-.017.1-.03.144-.048a6.249,6.249,0,0,0,.88-.416l65.6-37.876a4.549,4.549,0,0,0,.743-.525,2.756,2.756,0,0,0,.187-.2,3.391,3.391,0,0,0,.346-.379,2.437,2.437,0,0,0,.128-.249,2.311,2.311,0,0,0,.191-.373,1.956,1.956,0,0,0,.046-.271,1.978,1.978,0,0,0,.061-.369v2.326a1.94,1.94,0,0,1-.061.369,1.978,1.978,0,0,1-.046.272,72.086,72.086,0,0,1-.319.621,3.4,3.4,0,0,1-.346.38c-.066.067-.111.138-.187.2a4.726,4.726,0,0,1-.743.526l-65.6,37.875a6.245,6.245,0,0,1-.88.414c-.047.019-.1.031-.144.048a7.541,7.541,0,0,1-.8.243c-.057.014-.111.029-.168.041a8.944,8.944,0,0,1-.927.159l-.144.017c-.318.033-.639.051-.961.053-.051,0-.1,0-.155,0a9.632,9.632,0,0,1-.974-.054c-.057-.006-.111-.016-.168-.023-.239-.03-.474-.074-.708-.121-.2-.041-.387-.091-.578-.144-.148-.041-.295-.085-.437-.134a6.451,6.451,0,0,1-1.141-.5l-39.762-23.108a4.657,4.657,0,0,1-.732-.523c-.011-.01-.019-.021-.03-.033A3.163,3.163,0,0,1,206,324.6c-.014-.018-.02-.04-.033-.06a2.346,2.346,0,0,1-.279-.557c-.006-.017-.006-.036-.011-.053a1.916,1.916,0,0,1-.05-.524l-.037,0v-2.522Z" transform="translate(-205.591 -279.792)" fill="#e0e0e0"/>
      <path id="Path_47" data-name="Path 47" d="M205.608,320.89a2.022,2.022,0,0,0,.07.719c.006.017.006.034.011.051a2.328,2.328,0,0,0,.279.558c.013.02.019.04.033.06a3.165,3.165,0,0,0,.493.547c.011.01.018.021.03.031a4.562,4.562,0,0,0,.732.523l39.762,23.108a6.458,6.458,0,0,0,1.141.5c.142.05.289.093.437.134.191.054.382.1.578.144.234.048.469.091.708.121.057.007.111.019.168.024.322.034.648.051.974.054h.155c.322,0,.644-.021.961-.054l.144-.016a9.325,9.325,0,0,0,.927-.159c.057-.013.111-.027.168-.041a7.875,7.875,0,0,0,.8-.243c.048-.017.1-.03.144-.048a6.249,6.249,0,0,0,.88-.416l65.6-37.876a4.549,4.549,0,0,0,.743-.525,2.756,2.756,0,0,0,.187-.2,3.391,3.391,0,0,0,.346-.379,2.437,2.437,0,0,0,.128-.249,2.311,2.311,0,0,0,.191-.373,1.956,1.956,0,0,0,.046-.271,1.978,1.978,0,0,0,.061-.369v2.326a1.94,1.94,0,0,1-.061.369,1.978,1.978,0,0,1-.046.272,72.086,72.086,0,0,1-.319.621,3.4,3.4,0,0,1-.346.38c-.066.067-.111.138-.187.2a4.726,4.726,0,0,1-.743.526l-65.6,37.875a6.245,6.245,0,0,1-.88.414c-.047.019-.1.031-.144.048a7.541,7.541,0,0,1-.8.243c-.057.014-.111.029-.168.041a8.944,8.944,0,0,1-.927.159l-.144.017c-.318.033-.639.051-.961.053-.051,0-.1,0-.155,0a9.632,9.632,0,0,1-.974-.054c-.057-.006-.111-.016-.168-.023-.239-.03-.474-.074-.708-.121-.2-.041-.387-.091-.578-.144-.148-.041-.295-.085-.437-.134a6.451,6.451,0,0,1-1.141-.5l-39.762-23.108a4.657,4.657,0,0,1-.732-.523c-.011-.01-.019-.021-.03-.033A3.163,3.163,0,0,1,206,324.6c-.014-.018-.02-.04-.033-.06a2.346,2.346,0,0,1-.279-.557c-.006-.017-.006-.036-.011-.053a1.916,1.916,0,0,1-.05-.524l-.037,0v-2.522Z" transform="translate(-205.591 -279.792)" opacity="0.2"/>
      <path id="Path_48" data-name="Path 48" d="M322.4,314.758a2.307,2.307,0,0,1-.191.373,2.442,2.442,0,0,1-.128.249,3.393,3.393,0,0,1-.346.379,2.755,2.755,0,0,1-.186.2,4.549,4.549,0,0,1-.743.525l-65.6,37.876a6.25,6.25,0,0,1-.88.416c-.047.019-.1.031-.144.048a7.873,7.873,0,0,1-.8.244c-.057.014-.111.029-.168.041a9.354,9.354,0,0,1-.927.159l-.144.016c-.318.033-.639.051-.961.054h-.155c-.326,0-.652-.02-.974-.054-.057-.006-.111-.017-.168-.024-.239-.03-.474-.073-.708-.121-.2-.04-.387-.09-.578-.144-.148-.041-.295-.084-.437-.134a6.461,6.461,0,0,1-1.141-.5l-39.762-23.108a4.566,4.566,0,0,1-.732-.523c-.011-.01-.019-.021-.03-.031a3.164,3.164,0,0,1-.493-.547c-.014-.02-.02-.04-.033-.06a2.33,2.33,0,0,1-.279-.558c-.006-.017-.006-.034-.011-.051a2.023,2.023,0,0,1-.07-.719,2.956,2.956,0,0,1,1.688-2.244l65.6-37.874a8.985,8.985,0,0,1,8.159,0l39.763,23.108a2.872,2.872,0,0,1,1.688,2.363,1.972,1.972,0,0,1-.061.369A1.95,1.95,0,0,1,322.4,314.758Z" transform="translate(-205.588 -287.669)" fill="#e0e0e0"/>
      <path id="Path_49" data-name="Path 49" d="M310.108,310.15l-63.732,36.8a2.225,2.225,0,0,1-.251.121l-.138.047a4.2,4.2,0,0,1-.5.145c-.171.041-.345.068-.35.074l-.242.023c-.169.017-.353.027-.621.031h-.056a5.493,5.493,0,0,1-.652-.043c-.137-.017-.269-.043-.417-.074-.1-.02-.516-.138-.516-.138a2.35,2.35,0,0,1-.441-.184l-20.5-11.918,65.832-38.008Z" transform="translate(-198.762 -283.702)" fill="#e0e0e0"/>
      <path id="Path_50" data-name="Path 50" d="M237.5,332.39h0Z" transform="translate(-192.058 -268.703)" fill="#263238"/>
      <path id="Path_51" data-name="Path 51" d="M247.32,299.216l11.99,7.052a1.214,1.214,0,0,1-.009,2.1l-17.928,10.35a1.991,1.991,0,0,1-2.007-.008l-11.99-7.052a1.212,1.212,0,0,1,.009-2.095l17.927-10.35A1.994,1.994,0,0,1,247.32,299.216Z" transform="translate(-196.605 -282.889)" fill="#e0e0e0"/>
      <path id="Path_52" data-name="Path 52" d="M310.108,310.15l-63.732,36.8a2.225,2.225,0,0,1-.251.121l-.138.047a4.2,4.2,0,0,1-.5.145c-.171.041-.345.068-.35.074l-.242.023c-.169.017-.353.027-.621.031h-.056a5.493,5.493,0,0,1-.652-.043c-.137-.017-.269-.043-.417-.074-.1-.02-.516-.138-.516-.138a2.35,2.35,0,0,1-.441-.184l-20.5-11.918,65.832-38.008Z" transform="translate(-198.762 -283.702)" opacity="0.4"/>
      <path id="Path_53" data-name="Path 53" d="M247.32,299.216l11.99,7.052a1.214,1.214,0,0,1-.009,2.1l-17.928,10.35a1.991,1.991,0,0,1-2.007-.008l-11.99-7.052a1.212,1.212,0,0,1,.009-2.095l17.927-10.35A1.994,1.994,0,0,1,247.32,299.216Z" transform="translate(-196.605 -282.889)" opacity="0.4"/>
    </g>
    <g id="Group_18" data-name="Group 18" transform="translate(100.668 149.257)">
      <path id="Path_54" data-name="Path 54" d="M237.839,358.912l6.792-43.185a7.973,7.973,0,0,1,3.869-5.654l66.054-38.407a1.95,1.95,0,0,1,1.756-.11l0-.011,1.569.785-.53.2a1.952,1.952,0,0,1,.172,1.172l-6.79,43.185a7.973,7.973,0,0,1-3.869,5.654l-66.054,38.405a2.011,2.011,0,0,1-.431.174l.061.637-1.521-.749.028,0A1.965,1.965,0,0,1,237.839,358.912Z" transform="translate(-237.813 -271.399)" fill="#e0e0e0"/>
      <path id="Path_55" data-name="Path 55" d="M237.839,358.912l6.792-43.185a7.973,7.973,0,0,1,3.869-5.654l66.054-38.407a1.95,1.95,0,0,1,1.756-.11l0-.011,1.569.785-.53.2a1.952,1.952,0,0,1,.172,1.172l-6.79,43.185a7.973,7.973,0,0,1-3.869,5.654l-66.054,38.405a2.011,2.011,0,0,1-.431.174l.061.637-1.521-.749.028,0A1.965,1.965,0,0,1,237.839,358.912Z" transform="translate(-237.813 -271.399)" opacity="0.3"/>
      <path id="Path_56" data-name="Path 56" d="M249.432,310.541l66.054-38.405a1.994,1.994,0,0,1,2.972,2.032l-6.792,43.186a7.976,7.976,0,0,1-3.869,5.654l-66.054,38.405a1.994,1.994,0,0,1-2.972-2.032l6.792-43.186A7.973,7.973,0,0,1,249.432,310.541Z" transform="translate(-237.418 -271.203)" fill="#e0e0e0"/>
      <g id="Group_17" data-name="Group 17" transform="translate(37.419 39.604)">
        <path id="Path_57" data-name="Path 57" d="M270.7,300.059c-3.2,1.847-6.125,6.074-6.555,9.442s1.794,4.621,5,2.774c3.184-1.84,6.124-6.074,6.555-9.443S273.883,298.221,270.7,300.059Z" transform="translate(-264.089 -299.209)" fill="#fff"/>
      </g>
    </g>
    <g id="Group_21" data-name="Group 21" transform="translate(79.43 74.258)">
      <g id="Group_19" data-name="Group 19" transform="translate(26.262 28.509)">
        <path id="Path_58" data-name="Path 58" d="M241.341,260.091l17.9,14.537,11.8-19.149L256.19,238.754C243.138,244.537,241.341,260.091,241.341,260.091Z" transform="translate(-241.341 -238.754)" fill="#f28f8f"/>
      </g>
      <g id="Group_20" data-name="Group 20" transform="translate(0)">
        <path id="Path_59" data-name="Path 59" d="M222.9,219.132c14.069-1.588,15.372,1.538,24.49,10.135s18.341,18.29,18.341,18.29c-14.069,6.877-15.632,23.6-15.632,23.6-7.659-5.94-14.141-10.629-14.141-10.629Z" transform="translate(-222.9 -218.735)" fill="#455a64"/>
        <path id="Path_60" data-name="Path 60" d="M222.9,219.132c14.069-1.588,15.372,1.538,24.49,10.135s18.341,18.29,18.341,18.29c-14.069,6.877-15.632,23.6-15.632,23.6-7.659-5.94-14.141-10.629-14.141-10.629Z" transform="translate(-222.9 -218.735)" fill="#fff" opacity="0.5"/>
      </g>
    </g>
    <g id="Group_22" data-name="Group 22" transform="translate(18.019 74.655)">
      <path id="Path_61" data-name="Path 61" d="M189.812,230.192c20.009-9.379,35.014-10.474,51.376-11.178,24.49,15.763,15.319,28.894,14.9,49.945s-5,33.764,9.589,55.65c-32.1,25.635-72.637,17.529-82.328,11.37C177.1,277.713,178.929,234.686,189.812,230.192Z" transform="translate(-179.778 -219.014)" fill="#455a64"/>
      <path id="Path_62" data-name="Path 62" d="M189.812,230.192c20.009-9.379,35.014-10.474,51.376-11.178,24.49,15.763,15.319,28.894,14.9,49.945s-5,33.764,9.589,55.65c-32.1,25.635-72.637,17.529-82.328,11.37C177.1,277.713,178.929,234.686,189.812,230.192Z" transform="translate(-179.778 -219.014)" fill="#f7cc7e"/>
    </g>
    <g id="Group_26" data-name="Group 26" transform="translate(32.808)">
      <path id="Path_63" data-name="Path 63" d="M246.4,209.374a17.118,17.118,0,0,0,1.809-23.008,9.31,9.31,0,0,0,3.919-4.8,4.979,4.979,0,0,0-7.267-5.745,7,7,0,0,0-3.819-7.731,6.593,6.593,0,0,0-7.938,2.565,4.466,4.466,0,0,0-3.59-3.959,9.041,9.041,0,0,0-5.591,1.088c-1.733.857-3.325,1.982-5.077,2.8-2.959,1.38-6.249,1.83-9.447,2.478s-6.47,1.571-8.959,3.684-4.351,6.538-2.424,9.888a5.382,5.382,0,0,0-4.121-1.542,5.218,5.218,0,0,0-3.735,2.195c2.185.988,4.315,2.082,6.5,3.07-2.153-.649-5,1.181-5.847,3.263s-.594,4.435-.238,6.655a87.986,87.986,0,0,0,7.717,24.347c1.924,3.975,4.5,8.119,8.683,9.523Z" transform="translate(-190.162 -166.591)" fill="#37474f"/>
      <path id="Path_64" data-name="Path 64" d="M245.936,182.135a21.113,21.113,0,0,1-14.03,5.906c-4.935.056-9.712-1.572-14.469-2.884a11.045,11.045,0,0,1-3.271,6.04,12.583,12.583,0,0,1-6.733,2.935,43.4,43.4,0,0,1-.053,13.446,2.534,2.534,0,0,1-1.7,2.066c-1.6.467-2.666-1.176-3.446-2.5a10.948,10.948,0,0,0-3.476-3.879,5.4,5.4,0,0,0-5.02-.513,5.256,5.256,0,0,0-2.649,3.23,9.668,9.668,0,0,0-.208,4.257,12.862,12.862,0,0,0,2.764,6.511,8.788,8.788,0,0,0,6.191,3.191A6.385,6.385,0,0,0,205.782,217l.105.434a17.591,17.591,0,0,0,.651,2.078,17.771,17.771,0,0,0,13,11.125c3.013.631,6.363,1.235,9.776,1.753,1.678.255,3.365.494,5.047.694a12.177,12.177,0,0,0,13.445-9.949C250.1,210.143,250.866,195.006,245.936,182.135Z" transform="translate(-189.917 -159.999)" fill="#ffa8a7"/>
      <g id="Group_23" data-name="Group 23" transform="translate(16.621 59.513)">
        <path id="Path_65" data-name="Path 65" d="M201.833,208.381v22.638a24.96,24.96,0,0,0,18.217,10.09c2.31.142,4.826-.124,6.544-1.675a5.3,5.3,0,0,0-.664-8.394,2.913,2.913,0,0,1-1.324-2.42v-7.361c-3.414-.518-6.763-1.122-9.777-1.753A17.771,17.771,0,0,1,201.833,208.381Z" transform="translate(-201.833 -208.381)" fill="#ffa8a7"/>
        <path id="Path_66" data-name="Path 66" d="M216.828,224.2a48.624,48.624,0,0,0,7.646,1.357v-4.587c-3.414-.518-6.763-1.122-9.777-1.753a17.749,17.749,0,0,1-12.555-10.145,18.128,18.128,0,0,0,4.583,9.475A21.79,21.79,0,0,0,216.828,224.2Z" transform="translate(-201.701 -208.089)" opacity="0.2"/>
      </g>
      <path id="Path_67" data-name="Path 67" d="M229.489,194.761h-2.931a21.428,21.428,0,0,0-20.232-2.062v3.082l.812.432a31.9,31.9,0,0,1,.751,6.057c.2,1.984.753,4.074,2.234,5.366,1.612,1.4,3.908,1.532,6.021,1.559a11.211,11.211,0,0,0,5.013-.723,8.056,8.056,0,0,0,3.819-4.583c.718-1.925.6-3.04,1.5-5.359a1.719,1.719,0,0,1,1.6-1.075,1.6,1.6,0,0,1,1.5,1.075c.839,2.318.729,3.434,1.4,5.359a7.961,7.961,0,0,0,3.574,4.583,9.874,9.874,0,0,0,4.69.723c1.978-.027,4.126-.155,5.634-1.559,1.386-1.292,1.9-3.382,2.091-5.366a34.073,34.073,0,0,1,.7-6.057l.759-.432V192.7A18.954,18.954,0,0,0,229.489,194.761Zm-4.408,1.582-.115,1.1a25.937,25.937,0,0,1-1.475,5.827,6.6,6.6,0,0,1-3.025,3.69,8.439,8.439,0,0,1-3.6.582l-.659-.006c-1.854-.024-3.765-.137-4.977-1.193-.943-.822-1.5-2.229-1.713-4.3-.053-.516-.087-1.045-.122-1.578-.1-1.473-.017-4.7.114-7.038a19.061,19.061,0,0,1,5.132-.706,19.609,19.609,0,0,1,10.318,3C225.131,195.829,225.081,196.344,225.081,196.344Zm20.464,4.121c-.033.533-.066,1.062-.115,1.578-.2,2.074-.721,3.481-1.6,4.3-1.134,1.057-2.922,1.169-4.655,1.193l-.62.006a7.437,7.437,0,0,1-3.364-.582,6.532,6.532,0,0,1-2.83-3.69,27.234,27.234,0,0,1-1.38-5.827l-.11-1.1s-.047-.514.114-.619a17.475,17.475,0,0,1,9.653-3,16.762,16.762,0,0,1,4.8.706C245.562,195.76,245.637,198.992,245.546,200.465Z" transform="translate(-183.307 -156.213)" fill="#ba68c8"/>
      <path id="Path_68" data-name="Path 68" d="M211.231,192.212l-16.471,5.921a7.2,7.2,0,0,1,3.224,1.511c.178.155,13.247-4.351,13.247-4.351Z" transform="translate(-188.212 -155.726)" fill="#ba68c8"/>
      <g id="Group_25" data-name="Group 25" transform="translate(31.085 29.971)">
        <path id="Path_69" data-name="Path 69" d="M221.546,195.727l8.309,10.063-7.624,2.694Z" transform="translate(-207.937 -184.206)" fill="#f28f8f"/>
        <path id="Path_70" data-name="Path 70" d="M213.3,197.287a2.283,2.283,0,1,0,2.3-2.269A2.284,2.284,0,0,0,213.3,197.287Z" transform="translate(-211.433 -184.507)" fill="#37474f"/>
        <path id="Path_71" data-name="Path 71" d="M226.763,196.853a2.282,2.282,0,1,0,2.3-2.269A2.284,2.284,0,0,0,226.763,196.853Z" transform="translate(-205.725 -184.691)" fill="#37474f"/>
        <path id="Path_72" data-name="Path 72" d="M225.916,189.671q3.057.344,6.112.691a3.253,3.253,0,0,0-2.563-2.689A3.855,3.855,0,0,0,225.916,189.671Z" transform="translate(-206.084 -187.637)" fill="#37474f"/>
        <path id="Path_73" data-name="Path 73" d="M217.648,188.845l-5.6,2.545a3.254,3.254,0,0,1,1.608-3.349A3.855,3.855,0,0,1,217.648,188.845Z" transform="translate(-211.99 -187.583)" fill="#37474f"/>
        <g id="Group_24" data-name="Group 24" transform="translate(6.03 28.518)">
          <path id="Path_74" data-name="Path 74" d="M216.272,207.662q3.382,1.132,6.765,2.263a4.2,4.2,0,0,1-4.644,2C216.735,211.426,216.023,209.374,216.272,207.662Z" transform="translate(-216.224 -207.662)" fill="#f28f8f"/>
          <path id="Path_75" data-name="Path 75" d="M216.272,207.662q3.382,1.132,6.765,2.263a4.2,4.2,0,0,1-4.644,2C216.735,211.426,216.023,209.374,216.272,207.662Z" transform="translate(-216.224 -207.662)" opacity="0.3"/>
          <path id="Path_76" data-name="Path 76" d="M220.62,211.519a3.867,3.867,0,0,1-2.236.08,3.414,3.414,0,0,1-2.139-3.132,3.893,3.893,0,0,1,4.375,3.052Z" transform="translate(-216.215 -207.335)" fill="#f28f8f"/>
        </g>
      </g>
    </g>
    <g id="Group_27" data-name="Group 27" transform="translate(77.502 71.678)">
      <path id="Path_77" data-name="Path 77" d="M233.254,230.462l-5.769,2.645a2.311,2.311,0,0,0-1.1,3.139h0a2.31,2.31,0,0,0,2.472,1.238l14.2-2.548-4.331-5.511Z" transform="translate(-219.599 -211.622)" fill="#f28f8f"/>
      <path id="Path_78" data-name="Path 78" d="M247.923,240.841l17.945,42.266a12.44,12.44,0,0,0,15.906,6.755h0a12.44,12.44,0,0,0,5.248-19.4L257.706,233.92a17.34,17.34,0,0,0-3.522-3.311l-8.939-6.315a19.049,19.049,0,0,0-8.479-3.324h0l-4.359-3.2a4.363,4.363,0,0,0-4.146-.555l-6.715,2.583h0a4.4,4.4,0,0,0,5.048,2.441l2.677-.657,3.127,2.307-4.069,5.659a3.537,3.537,0,0,0,.716,4.869l7.689,5.907a2.749,2.749,0,0,0,2.477.45h0a2.748,2.748,0,0,0,1.887-3.189l-.009-.046A9.719,9.719,0,0,0,247.923,240.841Z" transform="translate(-221.546 -216.923)" fill="#ffa8a7"/>
      <path id="Path_79" data-name="Path 79" d="M229.94,222.5a10.583,10.583,0,0,1,2.8-2.313l-5.393.4Z" transform="translate(-219.087 -215.538)" fill="#f28f8f"/>
    </g>
    <path id="Path_80" data-name="Path 80" d="M200.489,266.806l-6.117,20.97,37.4,26.562,12.572,5.293a19.719,19.719,0,0,1,8.334,6.625l10.255,14.187c1.146,2.385-4.2,6.253-6.765,6.91h0a9.2,9.2,0,0,1-8.5-2.126l-7.917-7.249-2.185-.773a33.2,33.2,0,0,1-15.9-11.927h0l-43.837-17.022A16.774,16.774,0,0,1,167.7,288.262l7.273-27.047Z" transform="translate(-167.125 -126.461)" fill="#ffa8a7"/>
    <path id="Path_81" data-name="Path 81" d="M199.21,284.649l10.375-31.037s.35-28.4-11.708-27.528-18.174,7.862-27.435,49.978l-.2.907A50.093,50.093,0,0,0,199.21,284.649Z" transform="translate(-165.802 -141.369)" fill="#455a64"/>
    <path id="Path_82" data-name="Path 82" d="M199.21,284.649l10.375-31.037s.35-28.4-11.708-27.528-18.174,7.862-27.435,49.978l-.2.907A50.093,50.093,0,0,0,199.21,284.649Z" transform="translate(-165.802 -141.369)" fill="#fff" opacity="0.5"/>
  </g>
</svg>
