<svg id="Group_148" data-name="Group 148" xmlns="http://www.w3.org/2000/svg" width="109.809" height="155.763" viewBox="0 0 109.809 155.763">
  <path id="Path_208" data-name="Path 208" d="M291.758,152.266l9.854-3.335L292.8,165.025l-11.6,14.127Z" transform="translate(-258.751 -59.424)" fill="#455a64"/>
  <path id="Path_209" data-name="Path 209" d="M327.981,122.165l-11.774,42.316L297.38,186.244l-4.969,14.14-21.131,12.2,14.136-22.08,11.6-14.127,8.807-16.094Z" transform="translate(-262.96 -70.776)" fill="#37474f"/>
  <g id="Group_147" data-name="Group 147">
    <path id="Path_210" data-name="Path 210" d="M364.512,95.879l.167,58.822-8.442-9.494-5.378,6.02-22.816-17.914-22.159,38.119-9.854,3.335-10.552,26.886-14.136,22.08,21.131-12.2,23.859-13.775,11.866-6.851,36.524-21.087-93.379,53.913-.21-73.94Z" transform="translate(-263.023 -81.924)" fill="#ba68c8"/>
    <path id="Path_211" data-name="Path 211" d="M364.512,95.879l.167,58.822-8.442-9.494-5.378,6.02-22.816-17.914-22.159,38.119-9.854,3.335-10.552,26.886-14.136,22.08,21.131-12.2,23.859-13.775,11.866-6.851,36.524-21.087-93.379,53.913-.21-73.94Z" transform="translate(-263.023 -81.924)" opacity="0.2"/>
    <path id="Path_212" data-name="Path 212" d="M339.242,130.517l8.442,9.494.043,15.118L311.2,176.216l3.442-6.769,9.588-10.318Z" transform="translate(-246.029 -67.234)" fill="#455a64"/>
    <path id="Path_213" data-name="Path 213" d="M321.688,122.165,344.5,140.079l-20.759,23.24-13.768,23.291-23.859,13.775,4.969-14.14,18.827-21.764Z" transform="translate(-256.667 -70.776)" fill="#455a64"/>
    <path id="Path_214" data-name="Path 214" d="M265.438,149.326,374.985,86.08l.262,92.516L265.7,241.843Zm101.656,9.532-.167-58.823-93.379,53.912.209,73.941,93.379-53.914-.043-15.117" transform="translate(-265.438 -86.08)" fill="#ba68c8"/>
    <path id="Path_215" data-name="Path 215" d="M265.438,149.326,374.985,86.08l.262,92.516L265.7,241.843Zm101.656,9.532-.167-58.823-93.379,53.912.209,73.941,93.379-53.914-.043-15.117" transform="translate(-265.438 -86.08)" fill="#96d8ca"/>
    <path id="Path_216" data-name="Path 216" d="M342.776,130.517l-15.01,28.612-9.588,10.318-3.442,6.769-11.866,6.851,13.768-23.291,20.759-23.24Z" transform="translate(-249.562 -67.234)" fill="#37474f"/>
  </g>
</svg>
