<svg id="Group_189" data-name="Group 189" xmlns="http://www.w3.org/2000/svg" width="70.533" height="112.862" viewBox="0 0 70.533 112.862">
  <g id="Group_160" data-name="Group 160" transform="translate(0)">
    <path id="Path_226" data-name="Path 226" d="M323.383,77.966l70.328-40.6.205,72.258-70.328,40.6Zm63.88,27.864L387.1,48.81,330.035,81.757l.162,57.02,57.065-32.947" transform="translate(-323.383 -37.363)" fill="#ba68c8"/>
    <path id="Path_227" data-name="Path 227" d="M323.383,77.966l70.328-40.6.205,72.258-70.328,40.6Zm63.88,27.864L387.1,48.81,330.035,81.757l.162,57.02,57.065-32.947" transform="translate(-323.383 -37.363)" fill="#96d8ca"/>
    <path id="Path_228" data-name="Path 228" d="M385.121,45.4,328.054,78.348l.162,57.02,57.066-32.947Z" transform="translate(-321.402 -33.954)" fill="#ba68c8"/>
  </g>
  <g id="Group_188" data-name="Group 188" transform="translate(16.295 31.081)">
    <g id="Group_184" data-name="Group 184" transform="translate(1.798)" style="isolation: isolate">
      <g id="Group_161" data-name="Group 161" transform="translate(23.619 20.13)">
        <path id="Path_229" data-name="Path 229" d="M356.027,73.928a9.949,9.949,0,0,1,4.205-.571,6.98,6.98,0,0,1,1.024.159c2.714.655,2.437,2.861,1.428,5.463a7.773,7.773,0,0,1-3.039,4.2,5.265,5.265,0,0,1-2.387.671,7.808,7.808,0,0,1-1.087-.02,6.76,6.76,0,0,1-3.5-1.235c.208-.332.414-.668.612-1.01a23.24,23.24,0,0,0,1.584-3.281,20.1,20.1,0,0,0,.978-3.33C355.918,74.622,355.977,74.271,356.027,73.928Z" transform="translate(-352.673 -73.323)" fill="#fff"/>
      </g>
      <g id="Group_162" data-name="Group 162" transform="translate(19.146 27.382)">
        <path id="Path_230" data-name="Path 230" d="M352.527,78.415A4.037,4.037,0,0,0,354,80.433c.211-.329.417-.665.615-1.007-.2.342-.4.678-.615,1.007a21.807,21.807,0,0,1-1.437,2.008,20.707,20.707,0,0,1-1.6,1.773c-.219.211-.44.42-.662.624.222-.2.443-.413.659-.629a4.057,4.057,0,0,0-1.433-2.066A16.047,16.047,0,0,0,352.527,78.415Z" transform="translate(-349.532 -78.415)" fill="#e0e0e0"/>
      </g>
      <g id="Group_163" data-name="Group 163" transform="translate(22.141 20.735)">
        <path id="Path_231" data-name="Path 231" d="M354.859,74.491a9.791,9.791,0,0,1,1.608-.743c-.05.343-.108.694-.18,1.047a20.1,20.1,0,0,1-.978,3.33,23.235,23.235,0,0,1-1.584,3.281c-.2.342-.4.678-.615,1.007a4.038,4.038,0,0,1-1.475-2.018,15.936,15.936,0,0,0,1.94-5A8.679,8.679,0,0,1,354.859,74.491Z" transform="translate(-351.635 -73.748)" fill="#f0f0f0"/>
      </g>
      <g id="Group_164" data-name="Group 164" transform="translate(26.966 10.458)">
        <path id="Path_232" data-name="Path 232" d="M360.24,67.149c3.305-1.541,3.956.014,3.963,2.341s-.635,4.631-3.943,6.907a6.981,6.981,0,0,0-1.024-.16,9.942,9.942,0,0,0-4.2.57,14.675,14.675,0,0,0,.154-2.112,11.257,11.257,0,0,0-.165-1.923,28.157,28.157,0,0,0,4.19-4.275Q359.785,67.786,360.24,67.149Z" transform="translate(-355.023 -66.532)" fill="#f0f0f0"/>
      </g>
      <g id="Group_165" data-name="Group 165" transform="translate(13.141 33.175)">
        <path id="Path_233" data-name="Path 233" d="M352.753,82.483a13.794,13.794,0,0,1,.716,4.7q0,.756-.05,1.423c-.306,3.99-1.982,5.7-4.01,6.87s-3.708,1.4-4.036-2.223c-.037-.4-.057-.857-.058-1.361A22.157,22.157,0,0,1,346,86.388c.219-.043.44-.087.664-.141a10.459,10.459,0,0,0,2.716-1.121,15.864,15.864,0,0,0,2.713-2.014C352.316,82.909,352.537,82.7,352.753,82.483Z" transform="translate(-345.315 -82.483)" fill="#fff"/>
      </g>
      <g id="Group_166" data-name="Group 166" transform="translate(24.069 16.704)">
        <path id="Path_234" data-name="Path 234" d="M355.881,70.917a10.732,10.732,0,0,1,.169,1.918,14.67,14.67,0,0,1-.154,2.112c-.054.345-.113.695-.184,1.048.071-.353.13-.7.179-1.047a9.792,9.792,0,0,0-1.608.743,8.675,8.675,0,0,0-1.285.9,11.228,11.228,0,0,0,.208-2.116,7.761,7.761,0,0,0-.219-1.868,6.365,6.365,0,0,0,1.294-.587A13.51,13.51,0,0,0,355.881,70.917Z" transform="translate(-352.989 -70.917)" fill="#e0e0e0"/>
      </g>
      <g id="Group_167" data-name="Group 167" transform="translate(13.828 31.109)">
        <path id="Path_235" data-name="Path 235" d="M351.116,81.032a4.056,4.056,0,0,1,1.433,2.066c-.216.216-.437.426-.659.629a15.865,15.865,0,0,1-2.713,2.014,10.458,10.458,0,0,1-2.716,1.121c-.224.054-.444.1-.662.134a15.827,15.827,0,0,1,1.417-3.713,7.661,7.661,0,0,0,1.951-.815A11.514,11.514,0,0,0,351.116,81.032Z" transform="translate(-345.798 -81.032)" fill="#f0f0f0"/>
      </g>
      <g id="Group_168" data-name="Group 168" transform="translate(0.047 32.047)">
        <path id="Path_236" data-name="Path 236" d="M343.455,81.691c.054.283.115.563.188.833a6.763,6.763,0,0,0,.994,2.192,4.894,4.894,0,0,0,1.6,1.445,5.04,5.04,0,0,0,.621.293,32.746,32.746,0,0,1-3.485,5.271c-.383.476-.743.9-1.084,1.273A10.608,10.608,0,0,1,339.9,95.08a2.024,2.024,0,0,1-3.053-.682c-1.02-1.431-1.309-3.31,1.393-7.092q.453-.634,1.02-1.34A27.7,27.7,0,0,1,343.455,81.691Z" transform="translate(-336.121 -81.691)" fill="#fff"/>
      </g>
      <g id="Group_169" data-name="Group 169" transform="translate(5.608 36.818)">
        <path id="Path_237" data-name="Path 237" d="M345.194,85.041a5.074,5.074,0,0,0,1.447.339,6.247,6.247,0,0,0,1.6-.077,22.154,22.154,0,0,0-.686,5.507c0,.5.021.957.058,1.361-1.115,2.452-2.182,3.718-3.224,4.321a3.649,3.649,0,0,1-2.234.459c-1.756-.151-2.894-1.1-1.528-5.373.34-.375.7-.8,1.084-1.273A32.677,32.677,0,0,0,345.194,85.041Z" transform="translate(-340.025 -85.041)" fill="#f0f0f0"/>
      </g>
      <g id="Group_170" data-name="Group 170" transform="translate(10.16 33.098)">
        <path id="Path_238" data-name="Path 238" d="M345.3,82.429a4.141,4.141,0,0,0,3.006.262,15.824,15.824,0,0,0-1.417,3.713c.218-.036.439-.08.662-.134-.224.054-.444.1-.662.134a5.967,5.967,0,0,1-1.6.084,5.074,5.074,0,0,1-1.447-.339,6.843,6.843,0,0,1-.617-.3,5.043,5.043,0,0,0,.621.293A15.968,15.968,0,0,0,345.3,82.429Z" transform="translate(-343.222 -82.429)" fill="#e0e0e0"/>
      </g>
      <g id="Group_171" data-name="Group 171" transform="translate(22.108 11.931)">
        <path id="Path_239" data-name="Path 239" d="M353.07,67.566a4.844,4.844,0,0,1,2.216,1.739,7.4,7.4,0,0,1,1.179,3.033,13.516,13.516,0,0,1-1.6,1.1,6.366,6.366,0,0,1-1.294.587,4.117,4.117,0,0,0-1.961-2.751A16.045,16.045,0,0,1,353.07,67.566Z" transform="translate(-351.612 -67.566)" fill="#f0f0f0"/>
      </g>
      <g id="Group_172" data-name="Group 172" transform="translate(23.566 2.884)">
        <path id="Path_240" data-name="Path 240" d="M359.586,61.635a2.023,2.023,0,0,1,3.053.681c1.018,1.431,1.309,3.311-1.387,7.089q-.455.639-1.027,1.349a28.157,28.157,0,0,1-4.19,4.275A7.472,7.472,0,0,0,354.852,72a4.844,4.844,0,0,0-2.216-1.739,32.828,32.828,0,0,1,3.483-5.272c.383-.476.743-.9,1.084-1.273A10.589,10.589,0,0,1,359.586,61.635Z" transform="translate(-352.636 -61.213)" fill="#fff"/>
      </g>
      <g id="Group_173" data-name="Group 173" transform="translate(19.102 11.564)">
        <path id="Path_241" data-name="Path 241" d="M350.918,67.413a5.906,5.906,0,0,1,1.6-.084,4.961,4.961,0,0,1,1.445.339,16.1,16.1,0,0,0-1.461,3.718,4.141,4.141,0,0,0-3.006-.262A15.938,15.938,0,0,0,350.918,67.413Z" transform="translate(-349.501 -67.308)" fill="#e0e0e0"/>
      </g>
      <g id="Group_174" data-name="Group 174" transform="translate(7.386 30.348)">
        <path id="Path_242" data-name="Path 242" d="M342.88,81.08a6.277,6.277,0,0,1,1.286-.582,4.106,4.106,0,0,0,1.961,2.75,15.963,15.963,0,0,1-1.458,3.713,5.045,5.045,0,0,1-.621-.293,4.895,4.895,0,0,1-1.6-1.445,6.763,6.763,0,0,1-.994-2.192q-.109-.406-.184-.836A13.435,13.435,0,0,1,342.88,81.08Z" transform="translate(-341.274 -80.498)" fill="#f0f0f0"/>
      </g>
      <g id="Group_175" data-name="Group 175" transform="translate(10.059 15.22)">
        <path id="Path_243" data-name="Path 243" d="M350.243,70.85a7.623,7.623,0,0,1,1.951-.815,3.818,3.818,0,0,1,4.967,3.013,7.761,7.761,0,0,1,.219,1.868,11.223,11.223,0,0,1-.208,2.116,16.586,16.586,0,0,1-4.934,8.73,11.518,11.518,0,0,1-1.95,1.437,7.661,7.661,0,0,1-1.951.815A3.818,3.818,0,0,1,343.37,85a7.7,7.7,0,0,1-.219-1.87,11.1,11.1,0,0,1,.208-2.115,15.913,15.913,0,0,1,1.938-5,16.091,16.091,0,0,1,2.995-3.728A11.525,11.525,0,0,1,350.243,70.85Z" transform="translate(-343.151 -69.875)" fill="#ba68c8"/>
      </g>
      <g id="Group_176" data-name="Group 176" transform="translate(10.059 15.22)" opacity="0.5">
        <path id="Path_244" data-name="Path 244" d="M350.243,70.85a7.623,7.623,0,0,1,1.951-.815,3.818,3.818,0,0,1,4.967,3.013,7.761,7.761,0,0,1,.219,1.868,11.223,11.223,0,0,1-.208,2.116,16.586,16.586,0,0,1-4.934,8.73,11.518,11.518,0,0,1-1.95,1.437,7.661,7.661,0,0,1-1.951.815A3.818,3.818,0,0,1,343.37,85a7.7,7.7,0,0,1-.219-1.87,11.1,11.1,0,0,1,.208-2.115,15.913,15.913,0,0,1,1.938-5,16.091,16.091,0,0,1,2.995-3.728A11.525,11.525,0,0,1,350.243,70.85Z" transform="translate(-343.151 -69.875)" fill="#fff"/>
      </g>
      <g id="Group_177" data-name="Group 177" transform="translate(0 18.073)">
        <path id="Path_245" data-name="Path 245" d="M339.843,72.561a5.246,5.246,0,0,1,2.385-.672,7.8,7.8,0,0,1,1.087.02,6.743,6.743,0,0,1,3.5,1.236,24.21,24.21,0,0,0-2.195,4.289,19.85,19.85,0,0,0-1.158,4.383,10.161,10.161,0,0,1-4.205.57,6.809,6.809,0,0,1-1.03-.161c-2.709-.658-2.431-2.867-1.423-5.467A7.764,7.764,0,0,1,339.843,72.561Z" transform="translate(-336.088 -71.879)" fill="#fff"/>
      </g>
      <g id="Group_178" data-name="Group 178" transform="translate(7.216 26.363)">
        <path id="Path_246" data-name="Path 246" d="M341.307,79.351a10,10,0,0,0,1.6-.743,8.785,8.785,0,0,0,1.294-.907A11.1,11.1,0,0,0,344,79.815a7.7,7.7,0,0,0,.219,1.87,6.279,6.279,0,0,0-1.286.582,13.442,13.442,0,0,0-1.606,1.114q.075.429.184.836-.109-.406-.184-.836a10.562,10.562,0,0,1-.169-1.925A14.78,14.78,0,0,1,341.307,79.351Z" transform="translate(-341.155 -77.7)" fill="#e0e0e0"/>
      </g>
      <g id="Group_179" data-name="Group 179" transform="translate(20.52)">
        <path id="Path_247" data-name="Path 247" d="M354.346,59.665a3.655,3.655,0,0,1,2.236-.459c1.757.145,2.9,1.1,1.528,5.367-.34.375-.7.8-1.084,1.273a32.874,32.874,0,0,0-3.481,5.265,4.961,4.961,0,0,0-1.446-.339,6.243,6.243,0,0,0-1.6.075,22.142,22.142,0,0,0,.685-5.5c0-.506-.021-.958-.057-1.363C352.239,61.532,353.3,60.266,354.346,59.665Z" transform="translate(-350.497 -59.188)" fill="#f0f0f0"/>
      </g>
      <g id="Group_180" data-name="Group 180" transform="translate(13.767 11.669)">
        <path id="Path_248" data-name="Path 248" d="M349.129,68.641a10.009,10.009,0,0,1,3.378-1.259,15.941,15.941,0,0,1-1.417,3.711,7.621,7.621,0,0,0-1.951.815,11.525,11.525,0,0,0-1.951,1.437,4.059,4.059,0,0,1-1.433-2.066A16.852,16.852,0,0,1,349.129,68.641Z" transform="translate(-345.755 -67.382)" fill="#f0f0f0"/>
      </g>
      <g id="Group_181" data-name="Group 181" transform="translate(10.731 15.56)">
        <path id="Path_249" data-name="Path 249" d="M346.658,70.114a4.063,4.063,0,0,0,1.434,2.072,16.093,16.093,0,0,0-2.995,3.728,4.059,4.059,0,0,0-1.474-2.019,21.808,21.808,0,0,1,1.436-2.008A20.721,20.721,0,0,1,346.658,70.114Z" transform="translate(-343.623 -70.114)" fill="#e0e0e0"/>
      </g>
      <g id="Group_182" data-name="Group 182" transform="translate(13.051 1.804)">
        <path id="Path_250" data-name="Path 250" d="M349.312,61.221c2.028-1.171,3.708-1.4,4.037,2.227.036.4.056.857.057,1.363a22.143,22.143,0,0,1-.685,5.5,10.223,10.223,0,0,0-3.379,1.267,16.852,16.852,0,0,0-3.374,2.637,13.843,13.843,0,0,1-.716-4.7c0-.506.016-.98.05-1.426C345.608,64.1,347.286,62.392,349.312,61.221Z" transform="translate(-345.252 -60.455)" fill="#fff"/>
      </g>
      <g id="Group_183" data-name="Group 183" transform="translate(5.521 8.466)">
        <path id="Path_251" data-name="Path 251" d="M344.31,65.518a2.407,2.407,0,0,1,3.234.592c-.034.446-.051.92-.05,1.426a13.823,13.823,0,0,0,.715,4.691A20.734,20.734,0,0,0,346.61,74a22.865,22.865,0,0,0-1.44,2.007,6.743,6.743,0,0,0-3.5-1.236,7.8,7.8,0,0,0-1.087-.02c-1.386-2.68-.258-4.94,1.492-7.112A8.755,8.755,0,0,1,344.31,65.518Z" transform="translate(-339.964 -65.132)" fill="#f0f0f0"/>
      </g>
    </g>
    <g id="Group_185" data-name="Group 185" transform="translate(9.173 19.341)">
      <path id="Path_252" data-name="Path 252" d="M344.623,72.769a4.058,4.058,0,0,1,1.474,2.019,15.913,15.913,0,0,0-1.938,5,8.783,8.783,0,0,1-1.295.907,10.033,10.033,0,0,1-1.6.742,19.848,19.848,0,0,1,1.158-4.383A23.884,23.884,0,0,1,344.623,72.769Z" transform="translate(-341.266 -72.769)" fill="#f0f0f0"/>
    </g>
    <g id="Group_186" data-name="Group 186" transform="translate(0 28.014)">
      <path id="Path_253" data-name="Path 253" d="M338.763,79.266a6.807,6.807,0,0,0,1.03.161,10.144,10.144,0,0,0,4.2-.568,14.789,14.789,0,0,0-.152,2.1A11.028,11.028,0,0,0,344,82.892a27.706,27.706,0,0,0-4.191,4.275q-.568.707-1.02,1.34c-3.311,1.547-3.963-.01-3.969-2.338S335.459,81.542,338.763,79.266Z" transform="translate(-334.825 -78.859)" fill="#f0f0f0"/>
    </g>
    <g id="Group_187" data-name="Group 187" transform="translate(22.38 29.402)">
      <path id="Path_254" data-name="Path 254" d="M353.578,79.834a6.759,6.759,0,0,0,3.5,1.235,7.8,7.8,0,0,0,1.087.02c1.387,2.68.259,4.942-1.493,7.118a8.751,8.751,0,0,1-2.229,2.118,2.412,2.412,0,0,1-3.238-.591q.051-.667.05-1.423a13.81,13.81,0,0,0-.713-4.7,20.72,20.72,0,0,0,1.6-1.773A22.779,22.779,0,0,0,353.578,79.834Z" transform="translate(-350.54 -79.834)" fill="#f0f0f0"/>
    </g>
  </g>
</svg>
