<svg id="Group_115" data-name="Group 115" xmlns="http://www.w3.org/2000/svg" width="85.982" height="137.584" viewBox="0 0 85.982 137.584">
  <path id="Path_174" data-name="Path 174" d="M330.215,164.707l85.733-49.5L416.2,203.3l-85.733,49.5Zm77.873,33.968-.2-69.511-69.568,40.166.2,69.509,69.566-40.164" transform="translate(-330.215 -115.209)" fill="#ba68c8"/>
  <path id="Path_175" data-name="Path 175" d="M330.215,164.707l85.733-49.5L416.2,203.3l-85.733,49.5Zm77.873,33.968-.2-69.511-69.568,40.166.2,69.509,69.566-40.164" transform="translate(-330.215 -115.209)" fill="#96d8ca"/>
  <g id="Group_110" data-name="Group 110" transform="translate(22.474 41.462)">
    <path id="Path_176" data-name="Path 176" d="M367.005,144.323l20.169,1.73-21.009,26.216L346,170.539Z" transform="translate(-345.996 -144.323)" fill="#fafafa"/>
  </g>
  <g id="Group_111" data-name="Group 111" transform="translate(42.642 43.192)">
    <path id="Path_177" data-name="Path 177" d="M381.167,145.538l.012,26.627-21.018,26.221,0-26.632Z" transform="translate(-360.158 -145.538)" fill="#ebebeb"/>
  </g>
  <g id="Group_112" data-name="Group 112" transform="translate(22.474 67.677)">
    <path id="Path_178" data-name="Path 178" d="M346,162.732l20.168,1.73,0,26.632L346,189.364Z" transform="translate(-345.996 -162.732)" fill="#e0e0e0"/>
  </g>
  <g id="Group_113" data-name="Group 113" transform="translate(8.109 13.955)">
    <path id="Path_179" data-name="Path 179" d="M335.909,165.173l69.568-40.166.2,69.511-69.566,40.164Zm55.555,15.7-.011-26.627-20.17-1.73-21.008,26.216,0,26.631,20.168,1.73,21.018-26.221" transform="translate(-335.909 -125.008)" fill="#ba68c8"/>
  </g>
  <g id="Group_114" data-name="Group 114" transform="translate(8.109 13.955)" opacity="0.2">
    <path id="Path_180" data-name="Path 180" d="M335.909,165.173l69.568-40.166.2,69.511-69.566,40.164Zm55.555,15.7-.011-26.627-20.17-1.73-21.008,26.216,0,26.631,20.168,1.73,21.018-26.221" transform="translate(-335.909 -125.008)" fill="#fff"/>
  </g>
</svg>
