<svg id="Group_146" data-name="Group 146" xmlns="http://www.w3.org/2000/svg" width="50.1" height="100.316" viewBox="0 0 50.1 100.316">
  <g id="Group_116" data-name="Group 116" transform="translate(5.278 9.083)">
    <path id="Path_181" data-name="Path 181" d="M385.993,97.737,425.369,75l.168,59.417-39.376,22.734Zm25.37,25.7.03-.228a16.8,16.8,0,0,1,2.37-6.565,24.26,24.26,0,0,0,3.807-12.223c-.021-7.479-5.306-10.511-11.816-6.78-6.527,3.768-11.841,12.965-11.82,20.426.011,3.938,1.477,6.632,3.809,7.771a4.722,4.722,0,0,1,2.441,3.774l.043.255a3.036,3.036,0,0,0,.947,1.918l.006,1.619.674-.39,0,.551-.675.39,0,1.618.675-.39v.551l-.675.39,0,1.618.675-.389,0,1.027.054.37c.2,1.539,1.434,2.059,2.885,1.222l-.142.083.018.113c.06.449.422.607.847.36l.6-.348a1.92,1.92,0,0,0,.845-1.339l.017-.132-.142.081a6.461,6.461,0,0,0,2.868-4.543l.053-.433,0-1.027.673-.389,0-1.619-.675.39v-.551l.675-.389,0-1.619-.675.39v-.551l.675-.389-.006-1.619a9.419,9.419,0,0,0,.934-3m.911-29.67c-.081.218-.034.414.121.427l.159-.037a.712.712,0,0,0,.278-.345L415.3,87.42c.088-.221.034-.414-.114-.431a.282.282,0,0,0-.161.044.7.7,0,0,0-.276.339l-2.478,6.4M396.207,97.95a.528.528,0,0,0-.111.561l2.5,3.522a.2.2,0,0,0,.279.023l.16-.147a.539.539,0,0,0,.117-.564l-2.505-3.519c-.06-.08-.168-.083-.278-.019a.568.568,0,0,0-.161.142m19.09,26.813a.538.538,0,0,0,.111-.568l-2.5-3.516c-.06-.084-.168-.088-.278-.024a.58.58,0,0,0-.161.141.555.555,0,0,0-.117.572l2.506,3.512c.058.081.165.087.278.023l.16-.14m-16.068,4.183c.083-.225.034-.422-.12-.436a.3.3,0,0,0-.161.044.706.706,0,0,0-.278.346l-2.471,6.384c-.088.228-.034.422.114.439l.159-.044a.7.7,0,0,0,.278-.345l2.478-6.389m-5.147-2.662a.535.535,0,0,0,.117-.571c-.058-.084-.165-.085-.273-.023a.62.62,0,0,0-.165.147l-4.3,5.343a.537.537,0,0,0-.111.568.2.2,0,0,0,.272.026l.161-.147,4.3-5.343m28.135-13.512c.088-.228.04-.426-.114-.439l-4.316-.369a.3.3,0,0,0-.165.044.684.684,0,0,0-.272.339c-.088.228-.034.422.12.434l4.316.369.16-.038a.7.7,0,0,0,.272-.34m-4.795-16.35a.538.538,0,0,0-.117.571c.06.081.167.088.279.023l.159-.14,4.3-5.35a.517.517,0,0,0,.111-.561.2.2,0,0,0-.276-.026.559.559,0,0,0-.155.14l-4.3,5.343m-28.135,13.519c-.088.221-.034.414.114.431l4.317.375.161-.044a.709.709,0,0,0,.276-.345c.088-.228.036-.422-.12-.434l-4.315-.369a.266.266,0,0,0-.157.04.712.712,0,0,0-.276.346M405.372,90.1l.016,5.719c0,.2.142.285.32.182a.7.7,0,0,0,.319-.553l-.017-5.718c0-.205-.142-.286-.32-.182a.7.7,0,0,0-.318.551m19.039,10.85a.7.7,0,0,0,.319-.553c0-.2-.144-.285-.32-.182l-4.977,2.874a.711.711,0,0,0-.319.551c0,.2.15.282.322.184l4.976-2.874m-37.638,21.362c0,.2.144.286.32.184l4.977-2.874a.709.709,0,0,0,.319-.551c0-.205-.15-.282-.32-.184l-4.977,2.874a.7.7,0,0,0-.319.551" transform="translate(-385.993 -75.003)" fill="#ba68c8"/>
  </g>
  <g id="Group_117" data-name="Group 117" transform="translate(23.951 72.789)">
    <path id="Path_182" data-name="Path 182" d="M401.436,119.737l-.017.132a1.92,1.92,0,0,1-.845,1.339l-.6.347c-.426.246-.788.088-.847-.36l-.019-.113.142-.083,2.046-1.182Z" transform="translate(-399.105 -119.737)" fill="#37474f"/>
  </g>
  <g id="Group_118" data-name="Group 118" transform="translate(21.154 67.894)">
    <path id="Path_183" data-name="Path 183" d="M405.048,116.3l-.053.433a6.461,6.461,0,0,1-2.868,4.543l-2.046,1.182c-1.451.837-2.684.318-2.885-1.222l-.054-.37Z" transform="translate(-397.141 -116.3)" fill="#455a64"/>
  </g>
  <g id="Group_119" data-name="Group 119" transform="translate(21.145 64.699)">
    <path id="Path_184" data-name="Path 184" d="M397.136,119.172l0-.551,7.906-4.565v.551Z" transform="translate(-397.135 -114.056)" fill="#37474f"/>
  </g>
  <g id="Group_120" data-name="Group 120" transform="translate(20.466 62.691)">
    <path id="Path_185" data-name="Path 185" d="M405.913,112.646l0,1.618-.675.389-7.906,4.565-.675.389,0-1.618.675-.389,7.906-4.565Z" transform="translate(-396.658 -112.646)" fill="#455a64"/>
  </g>
  <g id="Group_121" data-name="Group 121" transform="translate(20.019 43.778)">
    <path id="Path_186" data-name="Path 186" d="M405.193,99.53c.662-.382,1.2-.074,1.2.681l.017,5.889a4.358,4.358,0,0,1-.629,2.119l-.961,1.666a3.332,3.332,0,0,0-.487,1.643l.016,5.555-.478.276-.016-5.555a4.323,4.323,0,0,1,.622-2.109l.967-1.676a3.385,3.385,0,0,0,.487-1.643l-.017-5.889c0-.449-.328-.635-.723-.406a1.578,1.578,0,0,0-.713,1.236l.014,5.365a2.637,2.637,0,0,1-1.191,2.071c-.664.383-1.2.075-1.206-.686l-.014-5.365c0-.449-.322-.638-.719-.41a1.582,1.582,0,0,0-.714,1.236l.016,5.366a2.647,2.647,0,0,1-1.2,2.074c-.657.379-1.2.071-1.2-.691l-.016-5.365c0-.449-.322-.638-.718-.41a1.593,1.593,0,0,0-.721,1.24l.017,5.889a1.168,1.168,0,0,0,.5,1.077l.973.554a1.507,1.507,0,0,1,.632,1.386l.016,5.555-.478.278-.016-5.555a1.152,1.152,0,0,0-.5-1.077l-.967-.553a1.507,1.507,0,0,1-.632-1.391l-.017-5.889a2.622,2.622,0,0,1,1.192-2.064c.657-.38,1.2-.071,1.2.684l.014,5.365c0,.456.322.645.719.416a1.6,1.6,0,0,0,.719-1.246l-.016-5.365a2.634,2.634,0,0,1,1.192-2.065c.662-.382,1.2-.071,1.2.684l.016,5.366c0,.456.328.641.723.413a1.581,1.581,0,0,0,.715-1.243L404,101.593A2.634,2.634,0,0,1,405.193,99.53Z" transform="translate(-396.344 -99.366)" fill="#fff"/>
  </g>
  <g id="Group_122" data-name="Group 122" transform="translate(0)">
    <path id="Path_187" data-name="Path 187" d="M432.185,68.625l-49.9,28.808.2,71.507,49.9-28.808Zm-44.452,91.234-.168-59.417,39.377-22.734.168,59.417-39.377,22.734" transform="translate(-382.287 -68.625)" fill="#ba68c8"/>
  </g>
  <g id="Group_123" data-name="Group 123" transform="translate(0)">
    <path id="Path_188" data-name="Path 188" d="M432.185,68.625l-49.9,28.808.2,71.507,49.9-28.808Zm-44.452,91.234-.168-59.417,39.377-22.734.168,59.417-39.377,22.734" transform="translate(-382.287 -68.625)" fill="#96d8ca"/>
  </g>
  <g id="Group_124" data-name="Group 124" transform="translate(21.151 66.868)">
    <path id="Path_189" data-name="Path 189" d="M397.142,121.171l0-1.027,7.906-4.565,0,1.027Z" transform="translate(-397.139 -115.579)" fill="#37474f"/>
  </g>
  <g id="Group_125" data-name="Group 125" transform="translate(20.472 64.86)">
    <path id="Path_190" data-name="Path 190" d="M405.917,114.17l0,1.618-.675.389-7.906,4.565-.675.389,0-1.618.675-.389,7.906-4.565Z" transform="translate(-396.662 -114.17)" fill="#455a64"/>
  </g>
  <g id="Group_126" data-name="Group 126" transform="translate(21.139 62.53)">
    <path id="Path_191" data-name="Path 191" d="M397.13,117.1l7.906-4.565,0,.551-7.906,4.565Z" transform="translate(-397.13 -112.533)" fill="#37474f"/>
  </g>
  <g id="Group_129" data-name="Group 129" transform="translate(13.219 30.131)">
    <g id="Group_127" data-name="Group 127">
      <path id="Path_192" data-name="Path 192" d="M403.358,91.391c6.541-3.75,11.826-.718,11.847,6.762a24.26,24.26,0,0,1-3.807,12.223,16.8,16.8,0,0,0-2.37,6.565l-.03.228a9.419,9.419,0,0,1-.934,3l-1.686.974-.016-5.555a3.332,3.332,0,0,1,.487-1.643l.961-1.666a4.358,4.358,0,0,0,.629-2.119l-.017-5.889c0-.755-.543-1.062-1.2-.681a2.634,2.634,0,0,0-1.192,2.064l.016,5.366a1.581,1.581,0,0,1-.715,1.243c-.4.228-.722.043-.723-.413l-.016-5.366c0-.755-.537-1.065-1.2-.684a2.634,2.634,0,0,0-1.192,2.065l.016,5.365a1.592,1.592,0,0,1-.719,1.246c-.4.229-.718.04-.719-.416l-.014-5.365c0-.755-.543-1.064-1.2-.684a2.622,2.622,0,0,0-1.192,2.064l.017,5.889a1.507,1.507,0,0,0,.632,1.391l.967.553a1.152,1.152,0,0,1,.5,1.077l.016,5.555-1.687.973a3.036,3.036,0,0,1-.947-1.918l-.043-.255a4.722,4.722,0,0,0-2.441-3.774c-2.333-1.139-3.8-3.834-3.809-7.771C391.548,104.337,396.862,95.141,403.358,91.391Z" transform="translate(-391.569 -89.783)" fill="#ba68c8"/>
    </g>
    <g id="Group_128" data-name="Group 128" transform="translate(7.273 14.264)">
      <path id="Path_193" data-name="Path 193" d="M404.34,109.511a4.322,4.322,0,0,0-.622,2.109l.016,5.555-4.925,2.843-.016-5.555a1.507,1.507,0,0,0-.632-1.386l-.973-.554a1.168,1.168,0,0,1-.5-1.077l-.017-5.889a1.593,1.593,0,0,1,.721-1.24c.4-.228.716-.038.718.41l.016,5.365c0,.762.543,1.07,1.2.691a2.647,2.647,0,0,0,1.2-2.074l-.016-5.366a1.582,1.582,0,0,1,.713-1.236c.4-.228.718-.038.719.41l.014,5.365c0,.762.543,1.069,1.206.686a2.637,2.637,0,0,0,1.191-2.071l-.014-5.365a1.578,1.578,0,0,1,.713-1.236c.4-.229.722-.043.723.406l.017,5.889a3.385,3.385,0,0,1-.487,1.643Z" transform="translate(-396.676 -99.799)" fill="#ba68c8"/>
    </g>
  </g>
  <g id="Group_132" data-name="Group 132" transform="translate(13.219 30.131)" opacity="0.4">
    <g id="Group_130" data-name="Group 130">
      <path id="Path_194" data-name="Path 194" d="M403.358,91.391c6.541-3.75,11.826-.718,11.847,6.762a24.26,24.26,0,0,1-3.807,12.223,16.8,16.8,0,0,0-2.37,6.565l-.03.228a9.419,9.419,0,0,1-.934,3l-1.686.974-.016-5.555a3.332,3.332,0,0,1,.487-1.643l.961-1.666a4.358,4.358,0,0,0,.629-2.119l-.017-5.889c0-.755-.543-1.062-1.2-.681a2.634,2.634,0,0,0-1.192,2.064l.016,5.366a1.581,1.581,0,0,1-.715,1.243c-.4.228-.722.043-.723-.413l-.016-5.366c0-.755-.537-1.065-1.2-.684a2.634,2.634,0,0,0-1.192,2.065l.016,5.365a1.592,1.592,0,0,1-.719,1.246c-.4.229-.718.04-.719-.416l-.014-5.365c0-.755-.543-1.064-1.2-.684a2.622,2.622,0,0,0-1.192,2.064l.017,5.889a1.507,1.507,0,0,0,.632,1.391l.967.553a1.152,1.152,0,0,1,.5,1.077l.016,5.555-1.687.973a3.036,3.036,0,0,1-.947-1.918l-.043-.255a4.722,4.722,0,0,0-2.441-3.774c-2.333-1.139-3.8-3.834-3.809-7.771C391.548,104.337,396.862,95.141,403.358,91.391Z" transform="translate(-391.569 -89.783)" fill="#fff"/>
    </g>
    <g id="Group_131" data-name="Group 131" transform="translate(7.273 14.264)">
      <path id="Path_195" data-name="Path 195" d="M404.34,109.511a4.322,4.322,0,0,0-.622,2.109l.016,5.555-4.925,2.843-.016-5.555a1.507,1.507,0,0,0-.632-1.386l-.973-.554a1.168,1.168,0,0,1-.5-1.077l-.017-5.889a1.593,1.593,0,0,1,.721-1.24c.4-.228.716-.038.718.41l.016,5.365c0,.762.543,1.07,1.2.691a2.647,2.647,0,0,0,1.2-2.074l-.016-5.366a1.582,1.582,0,0,1,.713-1.236c.4-.228.718-.038.719.41l.014,5.365c0,.762.543,1.069,1.206.686a2.637,2.637,0,0,0,1.191-2.071l-.014-5.365a1.578,1.578,0,0,1,.713-1.236c.4-.229.722-.043.723.406l.017,5.889a3.385,3.385,0,0,1-.487,1.643Z" transform="translate(-396.676 -99.799)" fill="#fff"/>
    </g>
  </g>
  <g id="Group_133" data-name="Group 133" transform="translate(20.459 60.522)">
    <path id="Path_196" data-name="Path 196" d="M405.909,111.123l0,1.618-.675.389-7.906,4.565-.675.39,0-1.618Z" transform="translate(-396.653 -111.123)" fill="#455a64"/>
  </g>
  <g id="Group_145" data-name="Group 145" transform="translate(6.058 21.068)">
    <g id="Group_134" data-name="Group 134" transform="translate(2.471 22.566)">
      <path id="Path_197" data-name="Path 197" d="M388.595,99.305a.266.266,0,0,1,.157-.04l4.315.369c.155.013.208.206.12.434a.71.71,0,0,1-.276.345l-.161.044-4.316-.375c-.148-.017-.2-.211-.114-.431A.712.712,0,0,1,388.595,99.305Z" transform="translate(-388.276 -99.264)" fill="#fff"/>
    </g>
    <g id="Group_135" data-name="Group 135" transform="translate(25.54 33.623)">
      <path id="Path_198" data-name="Path 198" d="M404.793,107.072c.11-.064.218-.06.278.024l2.5,3.516a.538.538,0,0,1-.111.568l-.16.14c-.112.064-.219.058-.278-.023l-2.506-3.512a.638.638,0,0,1,.278-.713Z" transform="translate(-404.475 -107.028)" fill="#fff"/>
    </g>
    <g id="Group_136" data-name="Group 136" transform="translate(32.34 13.181)">
      <path id="Path_199" data-name="Path 199" d="M414.546,92.718c.177-.1.319-.021.32.182a.7.7,0,0,1-.319.553l-4.976,2.874c-.172.1-.32.02-.322-.184a.711.711,0,0,1,.319-.551Z" transform="translate(-409.25 -92.674)" fill="#fff"/>
    </g>
    <g id="Group_137" data-name="Group 137" transform="translate(30.489 3.908)">
      <path id="Path_200" data-name="Path 200" d="M412.566,86.206c.11-.063.216-.058.276.026a.518.518,0,0,1-.111.561l-4.3,5.35-.159.14c-.113.066-.219.058-.279-.023a.541.541,0,0,1,.117-.571l4.3-5.343A.561.561,0,0,1,412.566,86.206Z" transform="translate(-407.95 -86.163)" fill="#fff"/>
    </g>
    <g id="Group_138" data-name="Group 138" transform="translate(2.532 38.658)">
      <path id="Path_201" data-name="Path 201" d="M392.939,110.608c.108-.063.215-.061.273.023a.536.536,0,0,1-.117.571l-4.3,5.343-.161.147a.2.2,0,0,1-.272-.026.537.537,0,0,1,.111-.568l4.3-5.343A.619.619,0,0,1,392.939,110.608Z" transform="translate(-388.319 -110.564)" fill="#fff"/>
    </g>
    <g id="Group_139" data-name="Group 139" transform="translate(25.462)">
      <path id="Path_202" data-name="Path 202" d="M407.214,83.463a.282.282,0,0,1,.161-.044c.148.017.2.211.114.432l-2.471,6.393a.712.712,0,0,1-.278.345l-.159.037c-.155-.013-.2-.209-.121-.427l2.478-6.4A.7.7,0,0,1,407.214,83.463Z" transform="translate(-404.42 -83.419)" fill="#fff"/>
    </g>
    <g id="Group_140" data-name="Group 140" transform="translate(0 31.854)">
      <path id="Path_203" data-name="Path 203" d="M391.837,105.829c.171-.1.319-.021.32.182a.71.71,0,0,1-.319.553l-4.976,2.874c-.178.1-.32.02-.322-.184a.7.7,0,0,1,.319-.551Z" transform="translate(-386.541 -105.786)" fill="#fff"/>
    </g>
    <g id="Group_141" data-name="Group 141" transform="translate(18.599 2.513)">
      <path id="Path_204" data-name="Path 204" d="M399.919,85.228c.178-.1.32-.023.32.182l.017,5.718a.7.7,0,0,1-.319.553c-.178.1-.32.021-.32-.182L399.6,85.78A.7.7,0,0,1,399.919,85.228Z" transform="translate(-399.601 -85.183)" fill="#fff"/>
    </g>
    <g id="Group_142" data-name="Group 142" transform="translate(9.278 10.775)">
      <path id="Path_205" data-name="Path 205" d="M393.372,91.029c.11-.064.218-.061.278.019l2.505,3.519a.539.539,0,0,1-.117.564l-.16.147a.2.2,0,0,1-.279-.023l-2.5-3.522a.528.528,0,0,1,.111-.561A.568.568,0,0,1,393.372,91.029Z" transform="translate(-393.056 -90.984)" fill="#fff"/>
    </g>
    <g id="Group_143" data-name="Group 143" transform="translate(30.533 24.976)">
      <path id="Path_206" data-name="Path 206" d="M408.3,101a.3.3,0,0,1,.165-.044l4.316.369c.154.013.2.211.114.439a.7.7,0,0,1-.272.34l-.16.038-4.316-.369c-.154-.013-.208-.206-.12-.434A.684.684,0,0,1,408.3,101Z" transform="translate(-407.981 -100.957)" fill="#fff"/>
    </g>
    <g id="Group_144" data-name="Group 144" transform="translate(9.384 41.522)">
      <path id="Path_207" data-name="Path 207" d="M395.921,112.619a.3.3,0,0,1,.161-.044c.154.014.2.211.12.436l-2.478,6.389a.7.7,0,0,1-.278.345l-.16.044c-.148-.017-.2-.211-.114-.439l2.471-6.384A.706.706,0,0,1,395.921,112.619Z" transform="translate(-393.13 -112.575)" fill="#fff"/>
    </g>
  </g>
</svg>
