<svg id="Plant" xmlns="http://www.w3.org/2000/svg" width="100.724" height="141.962" viewBox="0 0 100.724 141.962">
  <g id="Group_8" data-name="Group 8" transform="translate(0)">
    <g id="Group_4" data-name="Group 4" transform="translate(26.259 83.156)">
      <path id="Path_4" data-name="Path 4" d="M106.07,351.49l-22.548.656-22.548-.656c-.971,15.227,2,30.745,6.1,38.324h.016a10.269,10.269,0,0,0,4.463,4.541c6.653,3.841,17.4,3.841,24.015,0a10,10,0,0,0,4.46-4.66C104.1,382.074,107.037,366.641,106.07,351.49Z" transform="translate(-60.789 -338.429)" fill="#fff"/>
      <g id="Group_1" data-name="Group 1" transform="translate(0.185)">
        <path id="Path_5" data-name="Path 5" d="M99.359,346.144c8.834,5.1,8.881,13.369.1,18.469s-23.053,5.1-31.889,0-8.879-13.371-.1-18.471S90.525,341.043,99.359,346.144Z" transform="translate(-60.919 -342.318)" fill="#ebebeb"/>
      </g>
      <g id="Group_2" data-name="Group 2" transform="translate(5.142 2.871)">
        <path id="Path_6" data-name="Path 6" d="M94.389,347.319c6.893,3.98,6.928,10.432.081,14.411s-17.985,3.979-24.878,0-6.928-10.43-.081-14.411S87.5,343.34,94.389,347.319Z" transform="translate(-64.399 -344.334)" fill="#e0e0e0"/>
      </g>
      <g id="Group_3" data-name="Group 3" transform="translate(5.142 2.871)" opacity="0.15">
        <path id="Path_7" data-name="Path 7" d="M94.389,347.319c6.893,3.98,6.928,10.432.081,14.411s-17.985,3.979-24.878,0-6.928-10.43-.081-14.411S87.5,343.34,94.389,347.319Z" transform="translate(-64.399 -344.334)"/>
      </g>
    </g>
    <g id="Group_5" data-name="Group 5" transform="translate(40.169)">
      <path id="Path_8" data-name="Path 8" d="M116.452,283.927c-50.814,16.638-51.274,50.631-39.818,74.838,2.888,4.9,11.632,7.532,19.241-22.575L82.528,337.9l15.554-7.884,4.04-12.076-12.968.964,16.46-6.924C111.68,293.637,116.452,283.927,116.452,283.927Z" transform="translate(-70.556 -283.927)" fill="#ba68c8"/>
      <path id="Path_9" data-name="Path 9" d="M116.452,283.927c-50.814,16.638-51.274,50.631-39.818,74.838,2.888,4.9,11.632,7.532,19.241-22.575L82.528,337.9l15.554-7.884,4.04-12.076-12.968.964,16.46-6.924C111.68,293.637,116.452,283.927,116.452,283.927Z" transform="translate(-70.556 -283.927)" opacity="0.2"/>
      <path id="Path_10" data-name="Path 10" d="M116.452,283.927c-50.814,16.638-51.274,50.631-39.818,74.838,2.888,4.9,11.632,7.532,19.241-22.575L82.528,337.9l15.554-7.884,4.04-12.076-12.968.964,16.46-6.924C111.68,293.637,116.452,283.927,116.452,283.927Z" transform="translate(-70.556 -283.927)" fill="#6cc44d"/>
      <path id="Path_11" data-name="Path 11" d="M100.249,289.9c-26.8,20.338-29.216,43.655-21.645,68C75.926,336.459,73.032,314.787,100.249,289.9Z" transform="translate(-68.726 -281.396)" fill="#fff"/>
    </g>
    <g id="Group_6" data-name="Group 6" transform="translate(0 34.53)">
      <path id="Path_12" data-name="Path 12" d="M42.35,308.174c50.087,7.054,56.164,38.636,49.518,63.084-1.877,5.044-9.583,8.948-21.672-17.827l12.714-.624-15.795-4.758-5.769-10.576,12.237-1.259L57.1,332.5C48.407,316.425,42.35,308.174,42.35,308.174Z" transform="translate(-42.35 -308.174)" fill="#ba68c8"/>
      <path id="Path_13" data-name="Path 13" d="M42.35,308.174c50.087,7.054,56.164,38.636,49.518,63.084-1.877,5.044-9.583,8.948-21.672-17.827l12.714-.624-15.795-4.758-5.769-10.576,12.237-1.259L57.1,332.5C48.407,316.425,42.35,308.174,42.35,308.174Z" transform="translate(-42.35 -308.174)" fill="#fff" opacity="0.2"/>
      <path id="Path_14" data-name="Path 14" d="M42.35,308.174c50.087,7.054,56.164,38.636,49.518,63.084-1.877,5.044-9.583,8.948-21.672-17.827l12.714-.624-15.795-4.758-5.769-10.576,12.237-1.259L57.1,332.5C48.407,316.425,42.35,308.174,42.35,308.174Z" transform="translate(-42.35 -308.174)" fill="#6cc44d"/>
      <path id="Path_15" data-name="Path 15" d="M52.74,312.057c28.334,14.489,34.462,35.8,31.456,59.73C83.129,351.379,82.223,330.716,52.74,312.057Z" transform="translate(-37.944 -306.527)" fill="#fff"/>
    </g>
    <g id="Group_7" data-name="Group 7" transform="translate(48.434 46.366)">
      <path id="Path_16" data-name="Path 16" d="M128.65,316.485c-45.935.75-54.945,28.536-51.691,51.315,1.126,4.756,7.635,9.137,21.527-13.642L87.1,352.173l14.768-2.521,6.383-8.886-10.889-2.5,15.269-1.5A209.152,209.152,0,0,1,128.65,316.485Z" transform="translate(-76.36 -316.485)" fill="#ba68c8"/>
      <path id="Path_18" data-name="Path 18" d="M128.65,316.485c-45.935.75-54.945,28.536-51.691,51.315,1.126,4.756,7.635,9.137,21.527-13.642L87.1,352.173l14.768-2.521,6.383-8.886-10.889-2.5,15.269-1.5A209.152,209.152,0,0,1,128.65,316.485Z" transform="translate(-76.36 -316.485)" fill="#3cff00" opacity="0.61"/>
      <path id="Path_17" data-name="Path 17" d="M113.712,318.822c-27.159,9.886-35.067,28.411-35.036,50.314C81.922,350.862,85.05,332.338,113.712,318.822Z" transform="translate(-75.378 -315.494)" fill="#fff"/>
    </g>
  </g>
</svg>
