<svg id="Group_10" data-name="Group 10" xmlns="http://www.w3.org/2000/svg" width="240.368" height="225.594" viewBox="0 0 240.368 225.594">
  <path id="Path_19" data-name="Path 19" d="M300.9,286.875c14.386,9.99,30.587,16.9,42.6,30.292,22.438,25.016,22.962,65.264,5.339,93.876s-50.4,45.8-83.772,49.737c-35.014,4.127-71.756-5.548-99.227-27.648S120.888,376.5,120.9,341.246s18.072-70.365,47.6-89.623c26.943-17.572,65.656-22.585,92.688-2.479,13.667,10.165,22.779,25.168,36.41,35.362Q299.23,285.721,300.9,286.875Z" transform="translate(-120.901 -236.116)" fill="#455a64"/>
  <path id="Path_20" data-name="Path 20" d="M300.9,286.875c14.386,9.99,30.587,16.9,42.6,30.292,22.438,25.016,22.962,65.264,5.339,93.876s-50.4,45.8-83.772,49.737c-35.014,4.127-71.756-5.548-99.227-27.648S120.888,376.5,120.9,341.246s18.072-70.365,47.6-89.623c26.943-17.572,65.656-22.585,92.688-2.479,13.667,10.165,22.779,25.168,36.41,35.362Q299.23,285.721,300.9,286.875Z" transform="translate(-120.901 -236.116)" opacity="0.2"/>
  <path id="Path_21" data-name="Path 21" d="M300.9,286.875c14.386,9.99,30.587,16.9,42.6,30.292,22.438,25.016,22.962,65.264,5.339,93.876s-50.4,45.8-83.772,49.737c-35.014,4.127-71.756-5.548-99.227-27.648S120.888,376.5,120.9,341.246s18.072-70.365,47.6-89.623c26.943-17.572,65.656-22.585,92.688-2.479,13.667,10.165,22.779,25.168,36.41,35.362Q299.23,285.721,300.9,286.875Z" transform="translate(-120.901 -236.116)" fill="#fff" opacity="0.1"/>
  <path id="Path_22" data-name="Path 22" d="M280.347,423.331c-.033-.239-.065-.477-.1-.716-2.287-16.027-14.782-28.494-30.682-31.545a119.743,119.743,0,0,1-39.3-15.053c-8.589-5.194-16.7-11.559-26.337-14.375-8.891-2.6-19.96-2.2-28.387,1.648,8.1-8.5,21.977-12.243,33.072-8.4-7.679-11.752-14.435-24.414-17.081-38.2s-.766-28.917,7.548-40.23a40.474,40.474,0,0,1,62.487-3.341c8.234,9.006,12.875,21.681,18.283,32.621,3.884,7.857,7.9,15.9,14.3,21.884,9.66,9.036,23.552,12.294,33.566,20.937,11.356,9.8,16.253,25.469,16.3,40.469.034,10.123-1.871,20.086-4.395,29.922a113.669,113.669,0,0,1-41.071,25.114A44.5,44.5,0,0,0,280.347,423.331Z" transform="translate(-106.211 -226.005)" opacity="0.1"/>
  <g id="Group_9" data-name="Group 9" transform="translate(18.778 0.389)">
    <path id="Path_23" data-name="Path 23" d="M134.106,336.293a102.887,102.887,0,0,1,87.779-99.9,73.712,73.712,0,0,1,9.927,1.665,100.322,100.322,0,0,0-94.992,98.292c-.645,32.813,15.406,66.258,42.934,89.465,21.575,18.19,50.233,30.249,81.732,34.59-.671.09-1.343.184-2.015.262-2.831.335-5.675.568-8.523.722-27.987-5.429-53.33-16.964-72.943-33.5C149.858,404.156,133.446,369.915,134.106,336.293Z" transform="translate(-134.087 -236.389)" fill="#fff"/>
  </g>
</svg>
