<svg id="Group_109" data-name="Group 109" xmlns="http://www.w3.org/2000/svg" width="77.476" height="106.337" viewBox="0 0 77.476 106.337">
  <path id="Path_163" data-name="Path 163" d="M123.641,229.434c.265-.152.486-.275.7-.392q.352-.188.7-.358l.031,10.773q-15.5,8.848-30.989,17.686l-35,19.966-.026-9.069.179-.179q.355-.352.716-.686a28.721,28.721,0,0,1,4.972-3.706c.066-.037.131-.075.2-.114l.3-.169a27.35,27.35,0,0,1,3.492-1.651q.491-.19.978-.357c4.372-1.49,8.473-1.7,12.639-2.253q.613-.081,1.23-.172a31.14,31.14,0,0,0,10.319-3.217c.265-.141.528-.288.793-.44.219-.127.436-.256.654-.39,5.929-3.657,11.379-10.1,16.881-15.823q.417-.434.839-.863c.132-.135.266-.272.4-.407q.378-.38.76-.756c.125-.124.252-.248.379-.37a48.619,48.619,0,0,1,8.493-6.844C123.4,229.571,123.522,229.5,123.641,229.434Z" transform="translate(-53.301 -189.321)" fill="#ba68c8"/>
  <path id="Path_164" data-name="Path 164" d="M123.641,229.434c.265-.152.486-.275.7-.392q.352-.188.7-.358l.031,10.773q-15.5,8.848-30.989,17.686l-35,19.966-.026-9.069.179-.179q.355-.352.716-.686a28.721,28.721,0,0,1,4.972-3.706c.066-.037.131-.075.2-.114l.3-.169a27.35,27.35,0,0,1,3.492-1.651q.491-.19.978-.357c4.372-1.49,8.473-1.7,12.639-2.253q.613-.081,1.23-.172a31.14,31.14,0,0,0,10.319-3.217c.265-.141.528-.288.793-.44.219-.127.436-.256.654-.39,5.929-3.657,11.379-10.1,16.881-15.823q.417-.434.839-.863c.132-.135.266-.272.4-.407q.378-.38.76-.756c.125-.124.252-.248.379-.37a48.619,48.619,0,0,1,8.493-6.844C123.4,229.571,123.522,229.5,123.641,229.434Z" transform="translate(-53.301 -189.321)" opacity="0.4"/>
  <path id="Path_165" data-name="Path 165" d="M80.642,227.447c3.835-2.213,6.954-.436,6.965,3.978a15.245,15.245,0,0,1-6.92,11.985c-3.841,2.219-6.96.441-6.971-3.965A15.255,15.255,0,0,1,80.642,227.447Z" transform="translate(-47.086 -190.25)" fill="#fff"/>
  <g id="Group_102" data-name="Group 102" transform="translate(30.464 66.215)">
    <path id="Path_166" data-name="Path 166" d="M86.728,247.54a31.139,31.139,0,0,1-10.319,3.217A31.139,31.139,0,0,0,86.728,247.54Z" transform="translate(-76.409 -247.54)" fill="#5d3464"/>
  </g>
  <g id="Group_103" data-name="Group 103" transform="translate(5.729 30.794)">
    <path id="Path_167" data-name="Path 167" d="M65.75,252.268a8.472,8.472,0,0,1,1.575-.719,9.027,9.027,0,0,1,4.581-.043q4.452.773,8.891,1.545a7.227,7.227,0,0,0,4.755-1.117,16.276,16.276,0,0,0,4.571-4.128c1.675-2.156,3.357-4.193,5.15-5.228.064-.037.13-.074.194-.108A5.854,5.854,0,0,1,99.741,242a6.949,6.949,0,0,0,4.782-1.071,16.669,16.669,0,0,0,4.937-4.621c1.69-2.31,3.394-4.635,4.956-6.887a23.893,23.893,0,0,1,4.153-4.963,8.689,8.689,0,0,1,1.075-.738,9.472,9.472,0,0,1,5.389-1.037l.024,8.556q-.35.169-.7.357-.329.175-.661.366c-.162.093-.281.162-.4.234a48.617,48.617,0,0,0-8.493,6.844c-.127.122-.253.246-.379.37q-.382.376-.76.756c-.135.135-.269.272-.4.407q-.423.429-.839.863c-5.5,5.721-10.953,12.166-16.881,15.823q-.327.2-.651.389c-.268.154-.531.3-.8.441a31.139,31.139,0,0,1-10.319,3.217q-.617.092-1.23.172c-4.166.55-8.267.763-12.639,2.253q-.487.167-.978.357a27.341,27.341,0,0,0-3.492,1.651l-.3.169c-.064.038-.13.077-.2.114a28.722,28.722,0,0,0-4.972,3.706q-.361.333-.716.686l-.179.179-.033-11.557c.6-.843,1.208-1.658,1.85-2.424A19.36,19.36,0,0,1,65.75,252.268Z" transform="translate(-59.04 -222.667)" fill="#ba68c8"/>
  </g>
  <g id="Group_104" data-name="Group 104" transform="translate(5.729 30.794)" opacity="0.2">
    <path id="Path_168" data-name="Path 168" d="M65.75,252.268a8.472,8.472,0,0,1,1.575-.719,9.027,9.027,0,0,1,4.581-.043q4.452.773,8.891,1.545a7.227,7.227,0,0,0,4.755-1.117,16.276,16.276,0,0,0,4.571-4.128c1.675-2.156,3.357-4.193,5.15-5.228.064-.037.13-.074.194-.108A5.854,5.854,0,0,1,99.741,242a6.949,6.949,0,0,0,4.782-1.071,16.669,16.669,0,0,0,4.937-4.621c1.69-2.31,3.394-4.635,4.956-6.887a23.893,23.893,0,0,1,4.153-4.963,8.689,8.689,0,0,1,1.075-.738,9.472,9.472,0,0,1,5.389-1.037l.024,8.556q-.35.169-.7.357-.329.175-.661.366c-.162.093-.281.162-.4.234a48.617,48.617,0,0,0-8.493,6.844c-.127.122-.253.246-.379.37q-.382.376-.76.756c-.135.135-.269.272-.4.407q-.423.429-.839.863c-5.5,5.721-10.953,12.166-16.881,15.823q-.327.2-.651.389c-.268.154-.531.3-.8.441a31.139,31.139,0,0,1-10.319,3.217q-.617.092-1.23.172c-4.166.55-8.267.763-12.639,2.253q-.487.167-.978.357a27.341,27.341,0,0,0-3.492,1.651l-.3.169c-.064.038-.13.077-.2.114a28.722,28.722,0,0,0-4.972,3.706q-.361.333-.716.686l-.179.179-.033-11.557c.6-.843,1.208-1.658,1.85-2.424A19.36,19.36,0,0,1,65.75,252.268Z" transform="translate(-59.04 -222.667)"/>
  </g>
  <g id="Group_105" data-name="Group 105">
    <path id="Path_169" data-name="Path 169" d="M55.017,245.674l77.3-44.63.175,61.708-77.3,44.629Zm71.722-13.822-.06-21.035-65.987,38.1.138,48.7,65.987-38.1-.023-8.337-.031-10.773-.024-8.556" transform="translate(-55.017 -201.044)" fill="#ba68c8"/>
  </g>
  <g id="Group_106" data-name="Group 106" opacity="0.6">
    <path id="Path_170" data-name="Path 170" d="M55.017,245.674l77.3-44.63.175,61.708-77.3,44.629Zm71.722-13.822-.06-21.035-65.987,38.1.138,48.7,65.987-38.1-.023-8.337-.031-10.773-.024-8.556" transform="translate(-55.017 -201.044)" fill="#8c81c4"/>
  </g>
  <g id="Group_107" data-name="Group 107" transform="translate(5.788 50.137)">
    <path id="Path_171" data-name="Path 171" d="M59.081,273.9l35-19.966q15.487-8.844,30.989-17.686l.023,8.337-65.987,38.1Z" transform="translate(-59.081 -236.25)" fill="#455a64"/>
  </g>
  <g id="Group_108" data-name="Group 108" transform="translate(5.675 9.772)">
    <path id="Path_172" data-name="Path 172" d="M59,246.005l65.987-38.1.06,21.036a9.472,9.472,0,0,0-5.389,1.037,8.688,8.688,0,0,0-1.075.738,23.893,23.893,0,0,0-4.153,4.963c-1.562,2.251-3.265,4.577-4.956,6.887a16.669,16.669,0,0,1-4.937,4.621,6.95,6.95,0,0,1-4.782,1.071,5.854,5.854,0,0,0-4.274.473c-.064.034-.13.071-.194.108-1.793,1.035-3.475,3.072-5.15,5.228a16.276,16.276,0,0,1-4.571,4.128,7.227,7.227,0,0,1-4.755,1.116q-4.441-.778-8.891-1.545a9.027,9.027,0,0,0-4.581.043,8.47,8.47,0,0,0-1.575.719,19.36,19.36,0,0,0-4.86,4.345c-.642.766-1.253,1.581-1.85,2.424Zm27.927,5.289a15.245,15.245,0,0,0,6.92-11.985c-.013-4.413-3.13-6.191-6.965-3.978a15.255,15.255,0,0,0-6.925,12c.011,4.406,3.13,6.183,6.971,3.965" transform="translate(-59.002 -207.906)" fill="#ba68c8"/>
  </g>
  <path id="Path_173" data-name="Path 173" d="M67.023,251.753a27.354,27.354,0,0,0-3.492,1.651A27.354,27.354,0,0,1,67.023,251.753Z" transform="translate(-51.406 -179.538)" fill="#5d3464"/>
</svg>
