<svg id="Group_159" data-name="Group 159" xmlns="http://www.w3.org/2000/svg" width="65.586" height="93.035" viewBox="0 0 65.586 93.035">
  <g id="Group_149" data-name="Group 149" transform="translate(4.844 8.334)">
    <path id="Path_217" data-name="Path 217" d="M159.98,159.852l.125,44.165-55.774,32.2-.125-44.165Z" transform="translate(-104.205 -159.852)" fill="#ba68c8"/>
  </g>
  <g id="Group_150" data-name="Group 150" transform="translate(4.844 8.334)" opacity="0.1">
    <path id="Path_218" data-name="Path 218" d="M159.98,159.852l.125,44.165-55.774,32.2-.125-44.165Z" transform="translate(-104.205 -159.852)"/>
  </g>
  <g id="Group_151" data-name="Group 151" transform="translate(0)">
    <path id="Path_219" data-name="Path 219" d="M100.8,191.776,166.233,154l.157,55.26-65.429,37.776ZM161.546,206.5l-.125-44.166-55.774,32.2.125,44.166,55.774-32.2" transform="translate(-100.804 -154)" fill="#ba68c8"/>
  </g>
  <g id="Group_152" data-name="Group 152" transform="translate(0)" opacity="0.6">
    <path id="Path_220" data-name="Path 220" d="M100.8,191.776,166.233,154l.157,55.26-65.429,37.776ZM161.546,206.5l-.125-44.166-55.774,32.2.125,44.166,55.774-32.2" transform="translate(-100.804 -154)" fill="#8c81c4"/>
  </g>
  <g id="Group_158" data-name="Group 158" transform="translate(12.619 20.78)">
    <g id="Group_153" data-name="Group 153" transform="translate(28.918)">
      <path id="Path_221" data-name="Path 221" d="M139.515,168.84c1-.577,1.81-.114,1.814,1.041l.073,25.651a3.971,3.971,0,0,1-1.8,3.122l-9.536,5.506c4.14-5.634,6.85-12.676,6.833-18.875s-2.763-10.094-6.925-10.934Z" transform="translate(-129.971 -168.592)" fill="#37474f"/>
    </g>
    <g id="Group_154" data-name="Group 154" transform="translate(9.463 11.963)">
      <path id="Path_222" data-name="Path 222" d="M126.989,178.46c5.913-3.414,10.724-.672,10.743,6.124s-4.761,15.073-10.674,18.486-10.731.676-10.749-6.119S121.069,181.878,126.989,178.46ZM123.7,191.209a7.3,7.3,0,0,0,3.308-5.728c-.007-2.109-1.5-2.954-3.33-1.9a7.288,7.288,0,0,0-3.312,5.731c.006,2.1,1.5,2.954,3.334,1.894" transform="translate(-116.31 -176.992)" fill="#263238"/>
    </g>
    <g id="Group_155" data-name="Group 155" transform="translate(0 15.903)">
      <path id="Path_223" data-name="Path 223" d="M121.012,179.759c-4.146,5.637-6.86,12.682-6.841,18.881s2.758,10.094,6.918,10.937l-9.532,5.5c-1,.578-1.817.118-1.82-1.03l-.073-25.652a3.99,3.99,0,0,1,1.807-3.132Z" transform="translate(-109.665 -179.759)" fill="#37474f"/>
    </g>
    <g id="Group_156" data-name="Group 156" transform="translate(13.52 18.1)">
      <path id="Path_224" data-name="Path 224" d="M122.471,181.757c1.83-1.057,3.322-.212,3.33,1.9a7.3,7.3,0,0,1-3.308,5.728c-1.834,1.06-3.328.209-3.334-1.894A7.288,7.288,0,0,1,122.471,181.757Z" transform="translate(-119.159 -181.301)" fill="#fff"/>
    </g>
    <g id="Group_157" data-name="Group 157" transform="translate(4.506 5.586)">
      <path id="Path_225" data-name="Path 225" d="M137.241,172.686c4.163.84,6.908,4.734,6.925,10.934s-2.693,13.241-6.833,18.875a29.7,29.7,0,0,1-8.782,8.177c-3.26,1.883-6.29,2.486-8.8,1.977-4.16-.843-6.9-4.737-6.918-10.937s2.7-13.244,6.841-18.881a29.708,29.708,0,0,1,8.778-8.169C131.7,172.783,134.73,172.179,137.241,172.686Zm-8.706,32.283c5.913-3.414,10.692-11.692,10.674-18.486s-4.831-9.537-10.743-6.124-10.7,11.7-10.679,18.491,4.829,9.537,10.749,6.119" transform="translate(-112.829 -172.514)" fill="#455a64"/>
    </g>
  </g>
</svg>
