<svg id="Window" xmlns="http://www.w3.org/2000/svg" width="213.509" height="311.826" viewBox="0 0 213.509 311.826">
  <g id="Group_96" data-name="Group 96" transform="translate(0)">
    <g id="Group_53" data-name="Group 53" transform="translate(0)">
      <g id="Group_52" data-name="Group 52" opacity="0.3">
        <g id="Group_35" data-name="Group 35">
          <path id="Path_100" data-name="Path 100" d="M315.462,262.562l-.032-11.37-7.641-4.4.031,11.108h0v.252l7.641,4.414Z" transform="translate(-307.788 -118.84)" fill="#e0e0e0"/>
          <path id="Path_101" data-name="Path 101" d="M315.826,424.792l-.373-165.612-7.642-4.415.373,165.362a2.47,2.47,0,0,0,1,2.226l0,0,.031.018.024.014,7.558,4.6A2.487,2.487,0,0,1,315.826,424.792Z" transform="translate(-307.778 -115.456)" fill="#ba68c8"/>
          <path id="Path_102" data-name="Path 102" d="M315.826,424.792l-.373-165.612-7.642-4.415.373,165.362a2.47,2.47,0,0,0,1,2.226l0,0,.031.018.024.014,7.558,4.6A2.487,2.487,0,0,1,315.826,424.792Z" transform="translate(-307.778 -115.456)" fill="#fff" opacity="0.2"/>
          <path id="Path_103" data-name="Path 103" d="M316.116,375.567a4.138,4.138,0,0,1-.684.316A4.029,4.029,0,0,0,316.116,375.567Z" transform="translate(-304.546 -64.223)" fill="#455a64"/>
          <path id="Path_104" data-name="Path 104" d="M315.137,375.867c-.047.009-.1.027-.142.031C315.041,375.894,315.09,375.875,315.137,375.867Z" transform="translate(-304.731 -64.096)" fill="#455a64"/>
          <path id="Path_105" data-name="Path 105" d="M314.254,375.787v-.01h0c-.014-.007-.03-.01-.044-.017Z" transform="translate(-305.064 -64.142)" fill="#455a64"/>
          <path id="Path_106" data-name="Path 106" d="M315.451,289.274l-.019-6.551a7.72,7.72,0,0,1,3.5-6.07L517.372,162.085a2.488,2.488,0,0,1,2.455-.259l-7.563-4.623v.006a2.435,2.435,0,0,0-2.533.209L311.291,271.988a7.718,7.718,0,0,0-3.5,6.07l.019,6.551.01,0-.031.019v.262l7.64,4.4Z" transform="translate(-307.788 -156.943)" fill="#ba68c8"/>
          <path id="Path_107" data-name="Path 107" d="M315.451,289.274l-.019-6.551a7.72,7.72,0,0,1,3.5-6.07L517.372,162.085a2.488,2.488,0,0,1,2.455-.259l-7.563-4.623v.006a2.435,2.435,0,0,0-2.533.209L311.291,271.988a7.718,7.718,0,0,0-3.5,6.07l.019,6.551.01,0-.031.019v.262l7.64,4.4Z" transform="translate(-307.788 -156.943)" fill="#fff" opacity="0.3"/>
          <path id="Path_108" data-name="Path 108" d="M315.462,262.562l-.032-11.37-7.641-4.4.031,11.108h0v.252l7.641,4.414Z" transform="translate(-307.788 -118.84)" opacity="0.2"/>
        </g>
        <g id="Group_36" data-name="Group 36" transform="translate(7.645 4.662)">
          <path id="Path_109" data-name="Path 109" d="M515.1,160.7c1.935-1.118,3.516-.218,3.523,2.015l.018,6.551L313.174,287.885l-.018-6.549a7.72,7.72,0,0,1,3.5-6.071Z" transform="translate(-313.156 -160.217)" fill="#ba68c8"/>
        </g>
        <g id="Group_40" data-name="Group 40" transform="translate(194.409 9.105)">
          <g id="Group_37" data-name="Group 37" transform="translate(0 6.615)">
            <path id="Path_110" data-name="Path 110" d="M446.174,168.24c1.038-.6,1.881-.118,1.885,1.074a4.134,4.134,0,0,1-1.873,3.246c-1.038.6-1.883.117-1.886-1.075A4.126,4.126,0,0,1,446.174,168.24Z" transform="translate(-444.301 -167.982)" fill="#fff"/>
          </g>
          <g id="Group_38" data-name="Group 38" transform="translate(5.732 3.306)">
            <path id="Path_111" data-name="Path 111" d="M450.2,165.916c1.038-.6,1.883-.118,1.886,1.074a4.126,4.126,0,0,1-1.873,3.246c-1.038.6-1.883.117-1.886-1.075A4.133,4.133,0,0,1,450.2,165.916Z" transform="translate(-448.326 -165.658)" fill="#fff"/>
          </g>
          <g id="Group_39" data-name="Group 39" transform="translate(11.458)">
            <path id="Path_112" data-name="Path 112" d="M454.22,163.594c1.038-.6,1.883-.117,1.885,1.075a4.125,4.125,0,0,1-1.873,3.244c-1.038.6-1.883.118-1.886-1.074A4.134,4.134,0,0,1,454.22,163.594Z" transform="translate(-452.347 -163.337)" fill="#fff"/>
          </g>
        </g>
        <g id="Group_41" data-name="Group 41" transform="translate(7.642 13.729)">
          <path id="Path_113" data-name="Path 113" d="M354.5,254.834c.772-.446,1.488-.372,1.857.2l1.866,2.87c.369.574,1.079.659,1.857.209l158.539-91.532.033,11.386L313.187,296.594l-.033-11.386,6.087-3.515a4.648,4.648,0,0,0,1.857-2.354l1.836-5.007a4.617,4.617,0,0,1,1.851-2.343Z" transform="translate(-313.154 -166.584)" fill="#e0e0e0"/>
        </g>
        <g id="Group_42" data-name="Group 42" transform="translate(7.674 25.099)">
          <path id="Path_114" data-name="Path 114" d="M518.638,174.568l.373,165.614a7.727,7.727,0,0,1-3.5,6.062L317.073,460.812c-1.942,1.122-3.518.218-3.523-2.007l-.373-165.614Z" transform="translate(-313.177 -174.568)" fill="#ba68c8"/>
        </g>
        <g id="Group_43" data-name="Group 43" transform="translate(7.674 25.099)" opacity="0.4">
          <path id="Path_115" data-name="Path 115" d="M518.638,174.568l.373,165.614a7.727,7.727,0,0,1-3.5,6.062L317.073,460.812c-1.942,1.122-3.518.218-3.523-2.007l-.373-165.614Z" transform="translate(-313.177 -174.568)" fill="#fff"/>
        </g>
        <g id="Group_51" data-name="Group 51" transform="translate(8.851 20.381)">
          <g id="Group_44" data-name="Group 44" transform="translate(19.748)">
            <path id="Path_116" data-name="Path 116" d="M504.281,171.6c1.379-.8,2.5-.161,2.5,1.424a5.483,5.483,0,0,1-2.485,4.312L330.378,277.747c-1.38.8-2.5.155-2.508-1.43a5.483,5.483,0,0,1,2.491-4.307Z" transform="translate(-327.87 -171.255)" fill="#fff"/>
          </g>
          <g id="Group_45" data-name="Group 45" transform="translate(0 112.934)">
            <path id="Path_117" data-name="Path 117" d="M316.112,250.6a.238.238,0,0,1,.258-.017c.134.09.121.352-.017.585l-1.1,1.792,2.88-1.662c.2-.114.355-.023.355.2a.772.772,0,0,1-.353.611l-2.878,1.663,1.1.52c.14.073.154.319.021.555a.724.724,0,0,1-.259.281.266.266,0,0,1-.241.037l-1.764-.844-.07-.07-.013-.021-.033-.142.031-.178.013-.028.063-.145,1.76-2.881A.727.727,0,0,1,316.112,250.6Z" transform="translate(-314.003 -250.556)" fill="#e0e0e0"/>
          </g>
          <g id="Group_46" data-name="Group 46" transform="translate(5.98 109.337)">
            <path id="Path_118" data-name="Path 118" d="M320.56,248.08a.262.262,0,0,1,.242-.031l1.764.839.07.077.019.01.026.145-.024.175-.019.04-.063.138-1.76,2.888a.693.693,0,0,1-.241.241.237.237,0,0,1-.254.016c-.134-.084-.128-.342.017-.578l1.092-1.789-2.88,1.662c-.189.11-.349.02-.349-.207a.767.767,0,0,1,.346-.6l2.88-1.663-1.1-.524c-.147-.068-.152-.319-.02-.563A.682.682,0,0,1,320.56,248.08Z" transform="translate(-318.202 -248.031)" fill="#e0e0e0"/>
          </g>
          <g id="Group_47" data-name="Group 47" transform="translate(12.294 105.176)">
            <path id="Path_119" data-name="Path 119" d="M324.6,245.9a1.531,1.531,0,0,1,1.19-.222l.266-.349a.639.639,0,0,1,.189-.175.278.278,0,0,1,.189-.044c.121.017.178.144.16.316l-.148,1.082a.768.768,0,0,1-.342.54l-.088.037-.854.238a.2.2,0,0,1-.26-.177.678.678,0,0,1,.157-.491l.083-.112a1.094,1.094,0,0,0-.538.165,2.79,2.79,0,0,0-1.262,2.185c0,.806.574,1.125,1.27.723a2.788,2.788,0,0,0,1.111-1.393.742.742,0,0,1,.3-.386.29.29,0,0,1,.169-.047c.171.01.235.221.141.471a4.288,4.288,0,0,1-1.725,2.16c-1.082.625-1.971.127-1.974-1.125A4.334,4.334,0,0,1,324.6,245.9Z" transform="translate(-322.636 -245.109)" fill="#e0e0e0"/>
          </g>
          <g id="Group_48" data-name="Group 48" transform="translate(0 112.934)" opacity="0.3">
            <path id="Path_120" data-name="Path 120" d="M316.112,250.6a.238.238,0,0,1,.258-.017c.134.09.121.352-.017.585l-1.1,1.792,2.88-1.662c.2-.114.355-.023.355.2a.772.772,0,0,1-.353.611l-2.878,1.663,1.1.52c.14.073.154.319.021.555a.724.724,0,0,1-.259.281.266.266,0,0,1-.241.037l-1.764-.844-.07-.07-.013-.021-.033-.142.031-.178.013-.028.063-.145,1.76-2.881A.727.727,0,0,1,316.112,250.6Z" transform="translate(-314.003 -250.556)"/>
          </g>
          <g id="Group_49" data-name="Group 49" transform="translate(5.98 109.337)" opacity="0.3">
            <path id="Path_121" data-name="Path 121" d="M320.56,248.08a.262.262,0,0,1,.242-.031l1.764.839.07.077.019.01.026.145-.024.175-.019.04-.063.138-1.76,2.888a.693.693,0,0,1-.241.241.237.237,0,0,1-.254.016c-.134-.084-.128-.342.017-.578l1.092-1.789-2.88,1.662c-.189.11-.349.02-.349-.207a.767.767,0,0,1,.346-.6l2.88-1.663-1.1-.524c-.147-.068-.152-.319-.02-.563A.682.682,0,0,1,320.56,248.08Z" transform="translate(-318.202 -248.031)"/>
          </g>
          <g id="Group_50" data-name="Group 50" transform="translate(12.294 105.176)" opacity="0.3">
            <path id="Path_122" data-name="Path 122" d="M324.6,245.9a1.531,1.531,0,0,1,1.19-.222l.266-.349a.639.639,0,0,1,.189-.175.278.278,0,0,1,.189-.044c.121.017.178.144.16.316l-.148,1.082a.768.768,0,0,1-.342.54l-.088.037-.854.238a.2.2,0,0,1-.26-.177.678.678,0,0,1,.157-.491l.083-.112a1.094,1.094,0,0,0-.538.165,2.79,2.79,0,0,0-1.262,2.185c0,.806.574,1.125,1.27.723a2.788,2.788,0,0,0,1.111-1.393.742.742,0,0,1,.3-.386.29.29,0,0,1,.169-.047c.171.01.235.221.141.471a4.288,4.288,0,0,1-1.725,2.16c-1.082.625-1.971.127-1.974-1.125A4.334,4.334,0,0,1,324.6,245.9Z" transform="translate(-322.636 -245.109)"/>
          </g>
        </g>
      </g>
    </g>
    <g id="Group_57" data-name="Group 57" transform="translate(19.555 116.709)" opacity="0.42">
      <g id="Group_54" data-name="Group 54">
        <path id="Path_123" data-name="Path 123" d="M429.906,238.9l.318,112.248L321.838,413.721l-.318-112.248Z" transform="translate(-321.519 -238.896)" fill="#fff"/>
      </g>
    </g>
    <g id="Group_56" data-name="Group 56" transform="translate(33.723 149.297)">
      <g id="Group_55" data-name="Group 55">
        <path id="Path_124" data-name="Path 124" d="M403.658,261.779l-48.818,77.64.077,19.239,9.392-18.668-9.392,18.668L347.854,339Z" transform="translate(-324.519 -261.779)" fill="#f57359"/>
        <path id="Path_125" data-name="Path 125" d="M403.658,261.779l-48.818,77.64.077,19.239,9.392-18.668-9.392,18.668L347.854,339Z" transform="translate(-324.519 -261.779)" fill="#f57359" opacity="0.3"/>
        <path id="Path_126" data-name="Path 126" d="M352.759,316.3l9.469.571-9.392,18.668Z" transform="translate(-322.438 -238.657)" fill="#f57359"/>
        <path id="Path_127" data-name="Path 127" d="M352.759,316.3l9.469.571-9.392,18.668Z" transform="translate(-322.438 -238.657)" fill="#f57359" opacity="0.5"/>
        <path id="Path_128" data-name="Path 128" d="M410.607,261.779,354.8,339l-23.335-1.411Z" transform="translate(-331.468 -261.779)" fill="#f57359"/>
        <path id="Path_129" data-name="Path 129" d="M352.759,339.419l48.818-77.64-10.206,79.969-29.143-1.758Z" transform="translate(-322.438 -261.779)" fill="#f57359"/>
      </g>
      <path id="Path_130" data-name="Path 130" d="M331.468,337.592,354.8,339l7.062,19.655,9.392-18.668h0l29.143,1.758,10.206-79.969Z" transform="translate(-331.468 -261.779)" fill="#f57359" opacity="0.3"/>
    </g>
    <g id="Group_58" data-name="Group 58" transform="translate(44.438 34.884)">
      <path id="Path_131" data-name="Path 131" d="M498.314,181.931c1.979-1.144,3.586-.226,3.593,2.046a7.864,7.864,0,0,1-3.569,6.182L342.589,280.141c-1.98,1.142-3.592.229-3.6-2.044a7.87,7.87,0,0,1,3.573-6.185Z" transform="translate(-338.992 -181.438)" fill="#ba68c8"/>
    </g>
    <g id="Group_59" data-name="Group 59" transform="translate(44.438 34.884)" opacity="0.7">
      <path id="Path_132" data-name="Path 132" d="M498.314,181.931c1.979-1.144,3.586-.226,3.593,2.046a7.864,7.864,0,0,1-3.569,6.182L342.589,280.141c-1.98,1.142-3.592.229-3.6-2.044a7.87,7.87,0,0,1,3.573-6.185Z" transform="translate(-338.992 -181.438)" fill="#fff"/>
    </g>
    <g id="Group_60" data-name="Group 60" transform="translate(19.309 131.147)" opacity="0.3">
      <path id="Path_133" data-name="Path 133" d="M338.782,249.525c1.978-1.142,3.586-.226,3.592,2.046a7.857,7.857,0,0,1-3.569,6.182l-13.861,8.2c-1.978,1.142-3.59.229-3.6-2.045a7.875,7.875,0,0,1,3.574-6.184Z" transform="translate(-321.347 -249.034)" fill="#ba68c8"/>
    </g>
    <g id="Group_73" data-name="Group 73" transform="translate(18.973 48.949)" opacity="0.3">
      <g id="Group_66" data-name="Group 66" transform="translate(0)">
        <g id="Group_61" data-name="Group 61" transform="translate(0 90.348)">
          <path id="Path_134" data-name="Path 134" d="M351.684,255.248c1.978-1.142,3.586-.226,3.592,2.046a7.861,7.861,0,0,1-3.569,6.182l-27,15.758c-1.978,1.142-3.59.229-3.6-2.044a7.872,7.872,0,0,1,3.575-6.185Z" transform="translate(-321.111 -254.757)" fill="#ba68c8"/>
        </g>
        <g id="Group_62" data-name="Group 62" transform="translate(38.807 67.76)">
          <path id="Path_135" data-name="Path 135" d="M378.934,239.387c1.978-1.142,3.586-.226,3.592,2.048a7.865,7.865,0,0,1-3.569,6.182l-27,15.758c-1.978,1.142-3.59.229-3.6-2.045a7.874,7.874,0,0,1,3.575-6.185Z" transform="translate(-348.361 -238.896)" fill="#ba68c8"/>
        </g>
        <g id="Group_63" data-name="Group 63" transform="translate(77.614 45.174)">
          <path id="Path_136" data-name="Path 136" d="M406.184,223.527c1.978-1.142,3.586-.226,3.592,2.046a7.86,7.86,0,0,1-3.569,6.182l-27,15.758c-1.978,1.142-3.59.229-3.6-2.044a7.872,7.872,0,0,1,3.575-6.185Z" transform="translate(-375.611 -223.036)" fill="#ba68c8"/>
        </g>
        <g id="Group_64" data-name="Group 64" transform="translate(116.421 22.586)">
          <path id="Path_137" data-name="Path 137" d="M433.434,207.666c1.978-1.142,3.586-.226,3.592,2.048a7.861,7.861,0,0,1-3.569,6.182l-27,15.758c-1.978,1.142-3.59.229-3.6-2.045a7.876,7.876,0,0,1,3.575-6.185Z" transform="translate(-402.861 -207.175)" fill="#ba68c8"/>
        </g>
        <g id="Group_65" data-name="Group 65" transform="translate(155.228)">
          <path id="Path_138" data-name="Path 138" d="M460.684,191.806c1.978-1.142,3.586-.226,3.592,2.046a7.861,7.861,0,0,1-3.569,6.182l-27,15.758c-1.978,1.142-3.59.229-3.6-2.044a7.872,7.872,0,0,1,3.574-6.185Z" transform="translate(-430.111 -191.315)" fill="#ba68c8"/>
        </g>
      </g>
      <g id="Group_72" data-name="Group 72" transform="translate(0)" opacity="0.2">
        <g id="Group_67" data-name="Group 67" transform="translate(0 90.348)">
          <path id="Path_139" data-name="Path 139" d="M351.684,255.248c1.978-1.142,3.586-.226,3.592,2.046a7.861,7.861,0,0,1-3.569,6.182l-27,15.758c-1.978,1.142-3.59.229-3.6-2.044a7.872,7.872,0,0,1,3.575-6.185Z" transform="translate(-321.111 -254.757)" fill="#fff"/>
        </g>
        <g id="Group_68" data-name="Group 68" transform="translate(38.807 67.76)">
          <path id="Path_140" data-name="Path 140" d="M378.934,239.387c1.978-1.142,3.586-.226,3.592,2.048a7.865,7.865,0,0,1-3.569,6.182l-27,15.758c-1.978,1.142-3.59.229-3.6-2.045a7.874,7.874,0,0,1,3.575-6.185Z" transform="translate(-348.361 -238.896)" fill="#fff"/>
        </g>
        <g id="Group_69" data-name="Group 69" transform="translate(77.614 45.174)">
          <path id="Path_141" data-name="Path 141" d="M406.184,223.527c1.978-1.142,3.586-.226,3.592,2.046a7.86,7.86,0,0,1-3.569,6.182l-27,15.758c-1.978,1.142-3.59.229-3.6-2.044a7.872,7.872,0,0,1,3.575-6.185Z" transform="translate(-375.611 -223.036)" fill="#fff"/>
        </g>
        <g id="Group_70" data-name="Group 70" transform="translate(116.421 22.586)">
          <path id="Path_142" data-name="Path 142" d="M433.434,207.666c1.978-1.142,3.586-.226,3.592,2.048a7.861,7.861,0,0,1-3.569,6.182l-27,15.758c-1.978,1.142-3.59.229-3.6-2.045a7.876,7.876,0,0,1,3.575-6.185Z" transform="translate(-402.861 -207.175)" fill="#fff"/>
        </g>
        <g id="Group_71" data-name="Group 71" transform="translate(155.228)">
          <path id="Path_143" data-name="Path 143" d="M460.684,191.806c1.978-1.142,3.586-.226,3.592,2.046a7.861,7.861,0,0,1-3.569,6.182l-27,15.758c-1.978,1.142-3.59.229-3.6-2.044a7.872,7.872,0,0,1,3.574-6.185Z" transform="translate(-430.111 -191.315)" fill="#fff"/>
        </g>
      </g>
    </g>
    <g id="Group_88" data-name="Group 88" transform="translate(139.927 89.354)" opacity="0.3">
      <g id="Group_80" data-name="Group 80" transform="translate(0)">
        <g id="Group_74" data-name="Group 74">
          <path id="Path_144" data-name="Path 144" d="M444.645,219.687l.02,6.969L406.064,249l-.02-6.969Z" transform="translate(-406.044 -219.687)" fill="#ba68c8"/>
        </g>
        <g id="Group_78" data-name="Group 78" transform="translate(0.056 22.882)" style="isolation: isolate">
          <g id="Group_75" data-name="Group 75" transform="translate(0.048 12.992)">
            <path id="Path_145" data-name="Path 145" d="M445.917,244.878l.012,4.263-39.8,23.229-.012-4.263Z" transform="translate(-406.117 -244.878)" fill="#ba68c8"/>
          </g>
          <g id="Group_76" data-name="Group 76" transform="translate(0.024)">
            <path id="Path_146" data-name="Path 146" d="M454.262,235.755l.012,4.252-48.161,27.716-.012-4.252Z" transform="translate(-406.1 -235.755)" fill="#ba68c8"/>
          </g>
          <g id="Group_77" data-name="Group 77" transform="translate(0 6.193)">
            <path id="Path_147" data-name="Path 147" d="M428.614,240.1l.012,4.252L406.1,257.364l-.012-4.252Z" transform="translate(-406.083 -240.104)" fill="#ba68c8"/>
          </g>
        </g>
        <g id="Group_79" data-name="Group 79" transform="translate(0.032 5.852)">
          <path id="Path_148" data-name="Path 148" d="M454.228,223.8l.012,4.252-48.162,27.716-.012-4.252Z" transform="translate(-406.066 -223.797)" fill="#ba68c8"/>
        </g>
      </g>
      <g id="Group_87" data-name="Group 87" transform="translate(0)" opacity="0.1">
        <g id="Group_81" data-name="Group 81">
          <path id="Path_149" data-name="Path 149" d="M444.645,219.687l.02,6.969L406.064,249l-.02-6.969Z" transform="translate(-406.044 -219.687)" fill="#fff"/>
        </g>
        <g id="Group_85" data-name="Group 85" transform="translate(0.056 22.882)" style="isolation: isolate">
          <g id="Group_82" data-name="Group 82" transform="translate(0.048 12.992)">
            <path id="Path_150" data-name="Path 150" d="M445.917,244.878l.012,4.263-39.8,23.229-.012-4.263Z" transform="translate(-406.117 -244.878)" fill="#fff"/>
          </g>
          <g id="Group_83" data-name="Group 83" transform="translate(0.024)">
            <path id="Path_151" data-name="Path 151" d="M454.262,235.755l.012,4.252-48.161,27.716-.012-4.252Z" transform="translate(-406.1 -235.755)" fill="#fff"/>
          </g>
          <g id="Group_84" data-name="Group 84" transform="translate(0 6.193)">
            <path id="Path_152" data-name="Path 152" d="M428.614,240.1l.012,4.252L406.1,257.364l-.012-4.252Z" transform="translate(-406.083 -240.104)" fill="#fff"/>
          </g>
        </g>
        <g id="Group_86" data-name="Group 86" transform="translate(0.032 5.852)">
          <path id="Path_153" data-name="Path 153" d="M454.228,223.8l.012,4.252-48.162,27.716-.012-4.252Z" transform="translate(-406.066 -223.797)" fill="#fff"/>
        </g>
      </g>
    </g>
    <g id="Group_95" data-name="Group 95" transform="translate(141.332 155.554)" opacity="0.3">
      <g id="Group_91" data-name="Group 91" transform="translate(0)">
        <g id="Group_89" data-name="Group 89" transform="translate(0.023 19.774)">
          <path id="Path_154" data-name="Path 154" d="M451.819,280.057l.013,4.417-44.772,26-.013-4.417Z" transform="translate(-407.047 -280.057)" fill="#ba68c8"/>
        </g>
        <g id="Group_90" data-name="Group 90">
          <path id="Path_155" data-name="Path 155" d="M472,266.172l.013,4.406-64.966,37.777-.013-4.406Z" transform="translate(-407.031 -266.172)" fill="#ba68c8"/>
        </g>
      </g>
      <g id="Group_94" data-name="Group 94" transform="translate(0)" opacity="0.1">
        <g id="Group_92" data-name="Group 92" transform="translate(0.023 19.774)">
          <path id="Path_156" data-name="Path 156" d="M451.819,280.057l.013,4.417-44.772,26-.013-4.417Z" transform="translate(-407.047 -280.057)" fill="#fff"/>
        </g>
        <g id="Group_93" data-name="Group 93">
          <path id="Path_157" data-name="Path 157" d="M472,266.172l.013,4.406-64.966,37.777-.013-4.406Z" transform="translate(-407.031 -266.172)" fill="#fff"/>
        </g>
      </g>
    </g>
  </g>
</svg>
