<svg id="Icon" xmlns="http://www.w3.org/2000/svg" width="99.816" height="136.561" viewBox="0 0 99.816 136.561">
  <g id="Group_101" data-name="Group 101" transform="translate(0)">
    <g id="Group_99" data-name="Group 99">
      <g id="Group_98" data-name="Group 98">
        <g id="Group_97" data-name="Group 97">
          <path id="Path_158" data-name="Path 158" d="M174.06,80.457l0,0a6.766,6.766,0,0,0-5.635-3.72,2.3,2.3,0,0,0-.738.145L76.842,129.385a4.949,4.949,0,0,0-2.467,4.242v75.132c0,2.81,3.241,5.493,6.285,4.2.007,0,.013-.011.02-.014a1.267,1.267,0,0,0,.2-.078l90.852-52.555a4.881,4.881,0,0,0,2.464-4.24V80.989A1.2,1.2,0,0,0,174.06,80.457Z" transform="translate(-74.375 -76.733)" fill="#ba68c8"/>
          <path id="Path_159" data-name="Path 159" d="M74.375,117.321v75.132c0,2.81,3.241,5.493,6.285,4.2.007,0,.013-.011.02-.014a1.214,1.214,0,0,1-1.628-1.139V120.37a4.866,4.866,0,0,1,.823-2.694l-4.994-2.5A4.855,4.855,0,0,0,74.375,117.321Z" transform="translate(-74.375 -60.428)" fill="#fff" opacity="0.2"/>
          <path id="Path_160" data-name="Path 160" d="M168.278,76.734a2.3,2.3,0,0,0-.738.145L76.691,129.385a4.871,4.871,0,0,0-1.961,2.1l4.994,2.5a4.876,4.876,0,0,1,1.643-1.547l90.85-52.507a1.213,1.213,0,0,1,1.692.528l0,0A6.766,6.766,0,0,0,168.278,76.734Z" transform="translate(-74.224 -76.733)" fill="#fff" opacity="0.4"/>
        </g>
        <path id="Path_161" data-name="Path 161" d="M174.06,80.457l0,0a6.766,6.766,0,0,0-5.635-3.72,2.3,2.3,0,0,0-.738.145L76.842,129.385a4.949,4.949,0,0,0-2.467,4.241v75.133c0,2.81,3.241,5.493,6.285,4.2.007,0,.013-.011.02-.014a1.267,1.267,0,0,0,.2-.078l90.852-52.555a4.881,4.881,0,0,0,2.464-4.24V80.989A1.2,1.2,0,0,0,174.06,80.457Z" transform="translate(-74.375 -76.733)" fill="#21b9b9" opacity="0.3"/>
      </g>
    </g>
    <g id="Group_100" data-name="Group 100" transform="translate(39.375 56.951)" opacity="0.6">
      <path id="Path_162" data-name="Path 162" d="M102.024,116.724l30.946,2.663-30.83,38.325Z" transform="translate(-102.024 -116.724)" fill="#fff"/>
    </g>
  </g>
</svg>
