<svg xmlns="http://www.w3.org/2000/svg" xmlns:xlink="http://www.w3.org/1999/xlink" width="832.845" height="722.918" viewBox="0 0 832.845 722.918">
  <defs>
    <linearGradient id="linear-gradient" x1="0.5" y1="-0.197" x2="0.5" y2="0.899" gradientUnits="objectBoundingBox">
      <stop offset="0" stop-color="#fff"/>
      <stop offset="1"/>
    </linearGradient>
    <linearGradient id="linear-gradient-2" x1="0.5" y1="0.126" x2="0.5" y2="0.873" xlink:href="#linear-gradient"/>
    <clipPath id="clip-path">
      <path id="Path_8700" data-name="Path 8700" d="M91.481,445.425c4.627-10.082,9.5-20.361,10.788-31.379A36.914,36.914,0,0,0,94.321,386.8c-6.51-7.991-16.183-12.975-22.483-21.134a35.119,35.119,0,0,1-3.68-36.048c4.98-10.206,17.963-17.773,27.831-12.154,9.185,5.229,10.272,17.9,16.145,26.682,7.58,11.34,22.5,15.291,32.006,25.069a35.528,35.528,0,0,1,9.165,31.372c-1.529,7.426-5.491,14.693-4.152,22.155,2.535,14.151,21.965,19.71,25.758,33.577,2.418,8.838-2.716,18.367-10.1,23.792s-16.6,7.6-25.57,9.478c-14.651,3.062-31.555,5.147-43.125-4.348C96.117,485.245,78.07,474.638,91.481,445.425Z" transform="translate(-64.804 -315.554)" fill="none"/>
    </clipPath>
    <linearGradient id="linear-gradient-3" x1="0.464" y1="0.047" x2="0.549" y2="1.098" xlink:href="#linear-gradient"/>
    <clipPath id="clip-path-2">
      <path id="Path_8706" data-name="Path 8706" d="M99.838,438.8c-5.515-2.89-8.814-8.776-11.139-14.552s-3.81-11.894-6.61-17.455a40.885,40.885,0,0,0-14.63-16.106c-7.748-4.882-16.915-7.02-24.961-11.391s-15.388-12.3-14.618-21.425c.821-9.725,10.9-16.593,20.652-17.12s19.068,3.7,27.75,8.157a364.967,364.967,0,0,1,34.991,20.441c5.2,3.444,10.361,7.084,14.405,11.83,12.745,14.96,11.353,38.419.938,55.085C126.617,436.263,112.351,445.355,99.838,438.8Z" transform="translate(-27.825 -340.705)" fill="none"/>
    </clipPath>
    <linearGradient id="linear-gradient-4" x1="0.035" y1="0.044" x2="1.234" y2="1.059" xlink:href="#linear-gradient"/>
    <clipPath id="clip-path-3">
      <rect id="Rectangle_656" data-name="Rectangle 656" width="109.165" height="255.807" fill="none"/>
    </clipPath>
    <clipPath id="clip-path-4">
      <rect id="Rectangle_659" data-name="Rectangle 659" width="239.166" height="160.476" fill="none"/>
    </clipPath>
    <clipPath id="clip-path-5">
      <path id="Path_8716" data-name="Path 8716" d="M435.238,445.425c-4.627-10.082-9.5-20.361-10.786-31.379A36.9,36.9,0,0,1,432.4,386.8c6.51-7.991,16.183-12.975,22.482-21.134a35.118,35.118,0,0,0,3.68-36.048c-4.98-10.206-17.963-17.773-27.831-12.154-9.185,5.229-10.272,17.9-16.145,26.682-7.58,11.34-22.5,15.291-32,25.069a35.534,35.534,0,0,0-9.167,31.372c1.529,7.426,5.491,14.693,4.154,22.155-2.537,14.151-21.967,19.71-25.76,33.577-2.416,8.838,2.716,18.367,10.1,23.792s16.6,7.6,25.57,9.478c14.651,3.062,31.555,5.147,43.125-4.348C430.6,485.245,448.649,474.638,435.238,445.425Z" transform="translate(-351.203 -315.554)" fill="none"/>
    </clipPath>
    <linearGradient id="linear-gradient-5" x1="0.745" y1="-0.027" x2="0.232" y2="1.269" xlink:href="#linear-gradient"/>
    <clipPath id="clip-path-6">
      <path id="Path_8722" data-name="Path 8722" d="M425.2,438.8c5.515-2.89,8.816-8.776,11.141-14.552s3.808-11.894,6.608-17.455a40.9,40.9,0,0,1,14.63-16.106c7.748-4.882,16.915-7.02,24.963-11.391s15.388-12.3,14.616-21.425c-.819-9.725-10.9-16.593-20.652-17.12s-19.068,3.7-27.75,8.157a364.959,364.959,0,0,0-34.991,20.441c-5.2,3.444-10.362,7.084-14.406,11.83-12.745,14.96-11.351,38.419-.936,55.085C398.425,436.263,412.691,445.355,425.2,438.8Z" transform="translate(-390.207 -340.705)" fill="none"/>
    </clipPath>
    <linearGradient id="linear-gradient-6" x1="1.043" y1="-0.644" x2="-0.097" y2="1.527" xlink:href="#linear-gradient"/>
  </defs>
  <g id="Group_2424" data-name="Group 2424" transform="translate(-882.209 -171.029)">
    <path id="Path_8682" data-name="Path 8682" d="M1616.622,1577.353s-55.547-125.593-223.181-81.543-254.51,31.814-320.585,26.919-211.684,31.814-141.938,228.815-65.6,253.381-68.522,329.151,73.416,181.094,336.492,55.063,337.716,13.459,401.344,28.143S1692.095,1754.936,1616.622,1577.353Z" transform="translate(19.894 -1300.389)" fill="#e3e1eb"/>
    <g id="OBJECTS" transform="translate(860.73 109.663)">
      <g id="Group_2345" data-name="Group 2345" transform="translate(27.27 61.366)">
        <path id="Path_8685" data-name="Path 8685" d="M163.264,661.033C112.4,617.05-23.288,501.4,47.1,412.407,63.17,392.1,96.2,392.8,113.661,373.669c21.958-24.055,10.864-61.783,2.469-93.253-10.226-38.333-14.226-79.973-.176-117.073s49.77-67.952,89.418-66.535c23.337.834,44.791,12.141,66.065,21.771,34.582,15.653,72.022,27.593,109.894,25.019,49.305-3.349,94.06-30.768,142.992-37.678,62.924-8.887,127.844,18.267,172.505,63.477s70.443,106.625,80.982,169.3c10.577,62.9,6.444,128.889-16.8,188.288s-66.279,111.743-122.6,141.688Z" transform="translate(-27.27 -32.022)" fill="#b8ebf4"/>
        <path id="Path_8686" data-name="Path 8686" d="M163.264,661.033C112.4,617.05-23.288,501.4,47.1,412.407,63.17,392.1,96.2,392.8,113.661,373.669c21.958-24.055,10.864-61.783,2.469-93.253-10.226-38.333-14.226-79.973-.176-117.073s49.77-67.952,89.418-66.535c23.337.834,44.791,12.141,66.065,21.771,34.582,15.653,72.022,27.593,109.894,25.019,49.305-3.349,94.06-30.768,142.992-37.678,62.924-8.887,127.844,18.267,172.505,63.477s70.443,106.625,80.982,169.3c10.577,62.9,6.444,128.889-16.8,188.288s-66.279,111.743-122.6,141.688Z" transform="translate(-27.27 -32.022)" fill="url(#linear-gradient)" style="mix-blend-mode: overlay;isolation: isolate"/>
        <rect id="Rectangle_640" data-name="Rectangle 640" width="484.592" height="461.369" transform="translate(150.339 173.5)" fill="#ffbe60"/>
        <rect id="Rectangle_641" data-name="Rectangle 641" width="484.592" height="461.369" transform="translate(150.339 173.5)" fill="url(#linear-gradient-2)" style="mix-blend-mode: overlay;isolation: isolate"/>
        <rect id="Rectangle_642" data-name="Rectangle 642" width="484.592" height="33.433" transform="translate(150.339 601.437)" fill="#ffe2bb"/>
        <rect id="Rectangle_643" data-name="Rectangle 643" width="484.592" height="142.506" transform="translate(150.339 173.5)" fill="#f29d2c"/>
        <g id="Group_2324" data-name="Group 2324" transform="translate(120.373 149.264)">
          <g id="Group_2323" data-name="Group 2323" transform="translate(0 21.729)">
            <g id="Group_2322" data-name="Group 2322" transform="translate(0 36.703)">
              <path id="Path_8688" data-name="Path 8688" d="M93.153,219.292c-1.474,24.462,20.313,44.371,45.371,44.371S183.9,243.8,183.9,219.292s-20.313-44.371-45.371-44.371S94.64,194.587,93.153,219.292Z" transform="translate(-93.082 -174.921)" fill="#dfdfdf"/>
              <ellipse id="Ellipse_17" data-name="Ellipse 17" cx="45.371" cy="44.371" rx="45.371" ry="44.371" transform="translate(90.813)" fill="#e33b38"/>
              <ellipse id="Ellipse_18" data-name="Ellipse 18" cx="45.371" cy="44.371" rx="45.371" ry="44.371" transform="translate(181.555)" fill="#dfdfdf"/>
              <ellipse id="Ellipse_19" data-name="Ellipse 19" cx="45.371" cy="44.371" rx="45.371" ry="44.371" transform="translate(272.297)" fill="#e33b38"/>
              <ellipse id="Ellipse_20" data-name="Ellipse 20" cx="45.371" cy="44.371" rx="45.371" ry="44.371" transform="translate(363.04)" fill="#dfdfdf"/>
              <ellipse id="Ellipse_21" data-name="Ellipse 21" cx="45.371" cy="44.371" rx="45.371" ry="44.371" transform="translate(453.782)" fill="#e33b38"/>
            </g>
            <path id="Path_8689" data-name="Path 8689" d="M637.575,235.928H93.121L106.3,154.854H628.051Z" transform="translate(-93.051 -154.854)" fill="#f25757"/>
            <path id="Path_8690" data-name="Path 8690" d="M93.121,235.928,106.3,154.854h89.963l-12.4,81.074Z" transform="translate(-93.051 -154.854)" fill="#fff"/>
            <path id="Path_8691" data-name="Path 8691" d="M283.087,235.928V154.854h-82.3l-8.444,81.074Z" transform="translate(-10.79 -154.854)" fill="#fff"/>
            <path id="Path_8692" data-name="Path 8692" d="M291.569,235.928V154.854h82.3l8.444,81.074Z" transform="translate(71.47 -154.854)" fill="#fff"/>
          </g>
          <rect id="Rectangle_644" data-name="Rectangle 644" width="523.206" height="26.464" transform="translate(12.25)" fill="#e33b38"/>
          <rect id="Rectangle_645" data-name="Rectangle 645" width="523.206" height="6.74" transform="translate(12.25)" fill="#f95d5d"/>
          <rect id="Rectangle_646" data-name="Rectangle 646" width="523.206" height="1.685" transform="translate(12.25)" fill="#fff"/>
        </g>
        <rect id="Rectangle_647" data-name="Rectangle 647" width="264.24" height="202.708" transform="translate(370.691 350.693)" fill="#fff"/>
        <rect id="Rectangle_648" data-name="Rectangle 648" width="146.654" height="273.311" transform="translate(192.052 350.693)" fill="#fff"/>
        <g id="Group_2326" data-name="Group 2326" transform="translate(68.651 464.919)">
          <g id="Group_2325" data-name="Group 2325" transform="translate(0)" clip-path="url(#clip-path)">
            <path id="Path_8693" data-name="Path 8693" d="M91.481,445.425c4.627-10.082,9.5-20.361,10.788-31.379A36.914,36.914,0,0,0,94.321,386.8c-6.51-7.991-16.183-12.975-22.483-21.134a35.119,35.119,0,0,1-3.68-36.048c4.98-10.206,17.963-17.773,27.831-12.154,9.185,5.229,10.272,17.9,16.145,26.682,7.58,11.34,22.5,15.291,32.006,25.069a35.528,35.528,0,0,1,9.165,31.372c-1.529,7.426-5.491,14.693-4.152,22.155,2.535,14.151,21.965,19.71,25.758,33.577,2.418,8.838-2.716,18.367-10.1,23.792s-16.6,7.6-25.57,9.478c-14.651,3.062-31.555,5.147-43.125-4.348C96.117,485.245,78.07,474.638,91.481,445.425Z" transform="translate(-64.804 -315.554)" fill="#c7bd3a"/>
            <path id="Path_8694" data-name="Path 8694" d="M91.481,445.425c4.627-10.082,9.5-20.361,10.788-31.379A36.914,36.914,0,0,0,94.321,386.8c-6.51-7.991-16.183-12.975-22.483-21.134a35.119,35.119,0,0,1-3.68-36.048c4.98-10.206,17.963-17.773,27.831-12.154,9.185,5.229,10.272,17.9,16.145,26.682,7.58,11.34,22.5,15.291,32.006,25.069a35.528,35.528,0,0,1,9.165,31.372c-1.529,7.426-5.491,14.693-4.152,22.155,2.535,14.151,21.965,19.71,25.758,33.577,2.418,8.838-2.716,18.367-10.1,23.792s-16.6,7.6-25.57,9.478c-14.651,3.062-31.555,5.147-43.125-4.348C96.117,485.245,78.07,474.638,91.481,445.425Z" transform="translate(-64.804 -315.554)" fill="url(#linear-gradient-3)" style="mix-blend-mode: overlay;isolation: isolate"/>
            <path id="Path_8695" data-name="Path 8695" d="M73.434,314.749c1.231,25.672,22.7,42.838,36.884,62.019,7.775,10.515,13.284,21.967,13.566,35.246.148,6.978-.688,13.924-.988,20.888a114.063,114.063,0,0,0,1.033,20.941,118.88,118.88,0,0,0,5.564,22.378c2.338,6.722,5.134,15.247-.17,21.354-1.083,1.247.733,3.08,1.824,1.824,3.673-4.227,4.324-9.831,3.36-15.192-1.233-6.852-4.315-13.315-5.975-20.081a110.069,110.069,0,0,1-3.078-21.749c-.293-7.252.373-14.444.792-21.674.4-6.881.4-13.828-1.235-20.564a60.72,60.72,0,0,0-7.221-16.895c-6.467-10.72-15.2-19.746-23.117-29.365-9.242-11.234-17.941-24.138-18.66-39.129-.079-1.652-2.659-1.661-2.579,0Z" transform="translate(-57.651 -317.251)" fill="#ada028"/>
            <path id="Path_8696" data-name="Path 8696" d="M61.6,330.737a108.824,108.824,0,0,0,51.645,24.791c1.622.3,2.319-2.189.686-2.487a106.308,106.308,0,0,1-50.507-24.129c-1.249-1.081-3.082.735-1.824,1.825Z" transform="translate(-67.806 -304.755)" fill="#ada028"/>
            <path id="Path_8697" data-name="Path 8697" d="M95.6,361.469a52.01,52.01,0,0,0-3.953-35.505c-.739-1.485-2.963-.181-2.226,1.3a49.212,49.212,0,0,1,3.691,33.517c-.4,1.613,2.091,2.3,2.487.686Z" transform="translate(-44.513 -307.466)" fill="#ada028"/>
            <path id="Path_8698" data-name="Path 8698" d="M82.1,373.583c2.14,8.673,7.534,15.894,13.76,22.117,7.212,7.206,15.307,13.575,23.055,20.185,1.257,1.072,3.089-.744,1.824-1.824-7.417-6.328-15.111-12.447-22.106-19.251-6.314-6.144-11.9-13.209-14.045-21.914-.4-1.611-2.884-.927-2.487.686Z" transform="translate(-50.504 -268.777)" fill="#ada028"/>
            <path id="Path_8699" data-name="Path 8699" d="M105.7,426.111c-.58-20.926,20.339-36.647,16.236-58.149-.311-1.628-2.8-.938-2.487.686,2.052,10.758-3.15,20.983-7.905,30.276-4.353,8.505-8.693,17.4-8.423,27.187.046,1.655,2.625,1.663,2.579,0Z" transform="translate(-33.047 -272.876)" fill="#ada028"/>
          </g>
        </g>
        <g id="Group_2329" data-name="Group 2329" transform="translate(1.014 510.92)">
          <g id="Group_2328" data-name="Group 2328">
            <g id="Group_2327" data-name="Group 2327" clip-path="url(#clip-path-2)">
              <path id="Path_8701" data-name="Path 8701" d="M99.838,438.8c-5.515-2.89-8.814-8.776-11.139-14.552s-3.81-11.894-6.61-17.455a40.885,40.885,0,0,0-14.63-16.106c-7.748-4.882-16.915-7.02-24.961-11.391s-15.388-12.3-14.618-21.425c.821-9.725,10.9-16.593,20.652-17.12s19.068,3.7,27.75,8.157a364.967,364.967,0,0,1,34.991,20.441c5.2,3.444,10.361,7.084,14.405,11.83,12.745,14.96,11.353,38.419.938,55.085C126.617,436.263,112.351,445.355,99.838,438.8Z" transform="translate(-27.825 -340.705)" fill="#aac037"/>
              <path id="Path_8702" data-name="Path 8702" d="M99.838,438.8c-5.515-2.89-8.814-8.776-11.139-14.552s-3.81-11.894-6.61-17.455a40.885,40.885,0,0,0-14.63-16.106c-7.748-4.882-16.915-7.02-24.961-11.391s-15.388-12.3-14.618-21.425c.821-9.725,10.9-16.593,20.652-17.12s19.068,3.7,27.75,8.157a364.967,364.967,0,0,1,34.991,20.441c5.2,3.444,10.361,7.084,14.405,11.83,12.745,14.96,11.353,38.419.938,55.085C126.617,436.263,112.351,445.355,99.838,438.8Z" transform="translate(-27.825 -340.705)" fill="url(#linear-gradient-4)" style="mix-blend-mode: overlay;isolation: isolate"/>
              <path id="Path_8703" data-name="Path 8703" d="M28.512,347.186c23.984,6.167,46.65,17.246,64.258,34.92,14.166,14.219,24.264,31.8,31.65,50.346,3.814,9.579,6.961,19.4,9.921,29.272a1.291,1.291,0,0,0,2.487-.686c-5.489-18.3-11.737-36.515-21.314-53.137a128.538,128.538,0,0,0-44.65-46.2A154.735,154.735,0,0,0,29.2,344.7a1.291,1.291,0,0,0-.686,2.487Z" transform="translate(-28.015 -337.431)" fill="#8f9e1e"/>
              <path id="Path_8704" data-name="Path 8704" d="M63.089,344.169c7.287,13.063,16.227,25.215,22.453,38.86,6.733,14.759,8.814,30.816,9.11,46.9a.645.645,0,0,0,1.289,0c-.291-15.761-2.261-31.529-8.629-46.081-6.23-14.241-15.565-26.806-23.11-40.332-.4-.724-1.518-.075-1.114.651Z" transform="translate(1.339 -338.635)" fill="#8f9e1e"/>
              <path id="Path_8705" data-name="Path 8705" d="M44.924,371.947c13.154,3.047,26.585,6.168,38.305,13.151a66.531,66.531,0,0,1,14.356,11.925c3.927,4.172,7.819,8.386,12.776,11.353a.645.645,0,0,0,.651-1.112c-5.3-3.171-9.324-7.814-13.539-12.234A64.154,64.154,0,0,0,83.2,383.582c-11.662-6.762-24.919-9.864-37.929-12.878-.808-.187-1.152,1.055-.344,1.244Z" transform="translate(-14.031 -315.85)" fill="#8f9e1e"/>
            </g>
          </g>
          <path id="Path_8707" data-name="Path 8707" d="M71.613,376.094c12.483,18.649,20.01,39.772,26.417,61.13a1.291,1.291,0,0,0,2.487-.686c-6.467-21.557-14.078-42.922-26.676-61.746-.92-1.372-3.155-.082-2.228,1.3Z" transform="translate(8.295 -312.931)" fill="#8f9e1e"/>
        </g>
        <rect id="Rectangle_649" data-name="Rectangle 649" width="123.152" height="261.658" transform="translate(203.333 362.346)" fill="#054651"/>
        <rect id="Rectangle_650" data-name="Rectangle 650" width="251.703" height="178.028" transform="translate(383.228 364.066)" fill="#054651"/>
        <rect id="Rectangle_651" data-name="Rectangle 651" width="264.24" height="16.275" transform="translate(370.691 553.401)" fill="#d87c0e"/>
        <rect id="Rectangle_652" data-name="Rectangle 652" width="239.166" height="160.476" transform="translate(395.766 364.066)" fill="#0e5768"/>
        <rect id="Rectangle_653" data-name="Rectangle 653" width="109.165" height="255.807" transform="translate(217.319 362.346)" fill="#0e5768"/>
        <g id="Group_2331" data-name="Group 2331" transform="translate(217.319 362.346)">
          <g id="Group_2330" data-name="Group 2330" clip-path="url(#clip-path-3)">
            <rect id="Rectangle_654" data-name="Rectangle 654" width="45.841" height="253.331" transform="translate(82.055 -35.135) rotate(34.8)" fill="#329bad"/>
            <rect id="Rectangle_655" data-name="Rectangle 655" width="11.14" height="253.331" transform="matrix(0.821, 0.571, -0.571, 0.821, 130.592, 1.719)" fill="#329bad"/>
          </g>
        </g>
        <g id="Group_2333" data-name="Group 2333" transform="translate(395.766 364.066)">
          <g id="Group_2332" data-name="Group 2332" clip-path="url(#clip-path-4)">
            <rect id="Rectangle_657" data-name="Rectangle 657" width="45.841" height="253.331" transform="matrix(0.821, 0.571, -0.571, 0.821, 141.116, -32.221)" fill="#329bad"/>
            <rect id="Rectangle_658" data-name="Rectangle 658" width="11.14" height="253.331" transform="translate(222.42 -32.222) rotate(34.8)" fill="#329bad"/>
          </g>
        </g>
        <path id="Path_8708" data-name="Path 8708" d="M99.78,157.442h523.2s-101.257,31.061-272.6,31.97S99.78,157.442,99.78,157.442Z" transform="translate(32.843 18.285)" fill="#fff" style="mix-blend-mode: overlay;isolation: isolate"/>
        <g id="Group_2335" data-name="Group 2335" transform="translate(592.485 464.919)">
          <g id="Group_2334" data-name="Group 2334" clip-path="url(#clip-path-5)">
            <path id="Path_8709" data-name="Path 8709" d="M435.238,445.425c-4.627-10.082-9.5-20.361-10.786-31.379A36.9,36.9,0,0,1,432.4,386.8c6.51-7.991,16.183-12.975,22.482-21.134a35.118,35.118,0,0,0,3.68-36.048c-4.98-10.206-17.963-17.773-27.831-12.154-9.185,5.229-10.272,17.9-16.145,26.682-7.58,11.34-22.5,15.291-32,25.069a35.534,35.534,0,0,0-9.167,31.372c1.529,7.426,5.491,14.693,4.154,22.155-2.537,14.151-21.967,19.71-25.76,33.577-2.416,8.838,2.716,18.367,10.1,23.792s16.6,7.6,25.57,9.478c14.651,3.062,31.555,5.147,43.125-4.348C430.6,485.245,448.649,474.638,435.238,445.425Z" transform="translate(-351.203 -315.554)" fill="#c7bd3a"/>
            <path id="Path_8710" data-name="Path 8710" d="M435.238,445.425c-4.627-10.082-9.5-20.361-10.786-31.379A36.9,36.9,0,0,1,432.4,386.8c6.51-7.991,16.183-12.975,22.482-21.134a35.118,35.118,0,0,0,3.68-36.048c-4.98-10.206-17.963-17.773-27.831-12.154-9.185,5.229-10.272,17.9-16.145,26.682-7.58,11.34-22.5,15.291-32,25.069a35.534,35.534,0,0,0-9.167,31.372c1.529,7.426,5.491,14.693,4.154,22.155-2.537,14.151-21.967,19.71-25.76,33.577-2.416,8.838,2.716,18.367,10.1,23.792s16.6,7.6,25.57,9.478c14.651,3.062,31.555,5.147,43.125-4.348C430.6,485.245,448.649,474.638,435.238,445.425Z" transform="translate(-351.203 -315.554)" fill="url(#linear-gradient-5)" style="mix-blend-mode: overlay;isolation: isolate"/>
            <path id="Path_8711" data-name="Path 8711" d="M428.379,314.749c-1.275,26.592-25.3,44.012-39.151,64.4a71.036,71.036,0,0,0-8.366,16.035,56.345,56.345,0,0,0-2.937,19.863c.11,7.258,1.024,14.479,1.1,21.74a109.884,109.884,0,0,1-1.968,21.877,111.7,111.7,0,0,1-2.912,11.671c-1.143,3.709-2.616,7.32-3.621,11.071-1.646,6.149-1.653,12.951,2.723,17.989,1.09,1.257,2.908-.574,1.824-1.824-4.675-5.381-3.016-12.9-.977-19.016a149.2,149.2,0,0,0,5.531-19.627,113.614,113.614,0,0,0,1.986-20.851c.011-6.97-.8-13.9-1.05-20.858a57.341,57.341,0,0,1,2.55-20.654,67.613,67.613,0,0,1,8.348-16.114c7.073-10.413,16.028-19.335,23.7-29.281,8.205-10.638,15.146-22.7,15.8-36.423.081-1.659-2.5-1.655-2.579,0Z" transform="translate(-336.029 -317.251)" fill="#ada028"/>
            <path id="Path_8712" data-name="Path 8712" d="M437.442,328.911a106.308,106.308,0,0,1-50.507,24.129c-1.63.3-.938,2.784.686,2.487a108.824,108.824,0,0,0,51.645-24.791c1.258-1.088-.574-2.906-1.824-1.825Z" transform="translate(-322.351 -304.755)" fill="#ada028"/>
            <path id="Path_8713" data-name="Path 8713" d="M386.964,360.783a49.2,49.2,0,0,1,3.689-33.517c.737-1.481-1.487-2.789-2.226-1.3a52,52,0,0,0-3.951,35.505c.4,1.611,2.883.929,2.488-.686Z" transform="translate(-324.853 -307.467)" fill="#ada028"/>
            <path id="Path_8714" data-name="Path 8714" d="M409.68,372.9c-2.147,8.7-7.731,15.77-14.045,21.914-6.992,6.8-14.689,12.922-22.106,19.251-1.266,1.079.567,2.9,1.824,1.824,7.75-6.61,15.843-12.979,23.055-20.185,6.226-6.222,11.62-13.443,13.76-22.117.4-1.611-2.091-2.3-2.487-.686Z" transform="translate(-333.047 -268.777)" fill="#ada028"/>
            <path id="Path_8715" data-name="Path 8715" d="M382.191,426.112c.273-9.791-4.07-18.682-8.423-27.187-4.755-9.293-9.957-19.518-7.905-30.276.311-1.622-2.175-2.317-2.487-.686-4.1,21.5,16.816,37.223,16.236,58.149-.046,1.661,2.533,1.659,2.579,0Z" transform="translate(-341.553 -272.876)" fill="#ada028"/>
          </g>
        </g>
        <g id="Group_2338" data-name="Group 2338" transform="translate(661.961 510.92)">
          <g id="Group_2337" data-name="Group 2337" transform="translate(1.864)">
            <g id="Group_2336" data-name="Group 2336" clip-path="url(#clip-path-6)">
              <path id="Path_8717" data-name="Path 8717" d="M425.2,438.8c5.515-2.89,8.816-8.776,11.141-14.552s3.808-11.894,6.608-17.455a40.9,40.9,0,0,1,14.63-16.106c7.748-4.882,16.915-7.02,24.963-11.391s15.388-12.3,14.616-21.425c-.819-9.725-10.9-16.593-20.652-17.12s-19.068,3.7-27.75,8.157a364.959,364.959,0,0,0-34.991,20.441c-5.2,3.444-10.362,7.084-14.406,11.83-12.745,14.96-11.351,38.419-.936,55.085C398.425,436.263,412.691,445.355,425.2,438.8Z" transform="translate(-390.207 -340.705)" fill="#aac037"/>
              <path id="Path_8718" data-name="Path 8718" d="M425.2,438.8c5.515-2.89,8.816-8.776,11.141-14.552s3.808-11.894,6.608-17.455a40.9,40.9,0,0,1,14.63-16.106c7.748-4.882,16.915-7.02,24.963-11.391s15.388-12.3,14.616-21.425c-.819-9.725-10.9-16.593-20.652-17.12s-19.068,3.7-27.75,8.157a364.959,364.959,0,0,0-34.991,20.441c-5.2,3.444-10.362,7.084-14.406,11.83-12.745,14.96-11.351,38.419-.936,55.085C398.425,436.263,412.691,445.355,425.2,438.8Z" transform="translate(-390.207 -340.705)" fill="url(#linear-gradient-6)" style="mix-blend-mode: overlay;isolation: isolate"/>
              <path id="Path_8719" data-name="Path 8719" d="M496.88,344.7c-24.218,6.228-47.151,17.433-65.008,35.194-14.515,14.438-24.833,32.3-32.429,51.187-3.938,9.794-7.164,19.851-10.2,29.958a1.291,1.291,0,0,0,2.487.686c5.377-17.936,11.472-35.759,20.8-52.076a126.049,126.049,0,0,1,43.718-45.556,152.041,152.041,0,0,1,41.312-16.906,1.291,1.291,0,0,0-.684-2.487Z" transform="translate(-391.052 -337.432)" fill="#8f9e1e"/>
              <path id="Path_8720" data-name="Path 8720" d="M427.264,343.518c-7.545,13.526-16.878,26.091-23.11,40.332-6.369,14.552-8.339,30.32-8.629,46.081a.646.646,0,0,0,1.291,0c.294-16.086,2.376-32.142,9.109-46.9,6.226-13.645,15.168-25.8,22.453-38.86.4-.726-.71-1.377-1.114-.651Z" transform="translate(-385.799 -338.635)" fill="#8f9e1e"/>
              <path id="Path_8721" data-name="Path 8721" d="M461.575,370.7c-13.01,3.014-26.269,6.116-37.931,12.878a63.319,63.319,0,0,0-14.02,11.179c-4.309,4.5-8.392,9.268-13.8,12.5a.645.645,0,0,0,.651,1.112c4.957-2.965,8.849-7.183,12.776-11.353A66.629,66.629,0,0,1,423.612,385.1c11.72-6.983,25.151-10.1,38.305-13.151.809-.188.466-1.432-.342-1.244Z" transform="translate(-385.803 -315.85)" fill="#8f9e1e"/>
            </g>
          </g>
          <path id="Path_8723" data-name="Path 8723" d="M415.927,374.792c-12.6,18.824-20.211,40.189-26.678,61.746a1.291,1.291,0,0,0,2.487.686c6.407-21.358,13.934-42.479,26.417-61.13.926-1.383-1.308-2.676-2.226-1.3Z" transform="translate(-389.188 -312.931)" fill="#8f9e1e"/>
        </g>
        <rect id="Rectangle_660" data-name="Rectangle 660" width="632.911" height="21.731" transform="translate(76.179 624.004)" fill="#282f39"/>
        <rect id="Rectangle_661" data-name="Rectangle 661" width="632.911" height="6.965" transform="translate(76.179 624.004)" fill="#4d555e"/>
        <path id="Path_8724" data-name="Path 8724" d="M406.272,287.054c-4.893-2.44-9.939-5-13.4-9.237s-4.895-10.643-1.878-15.2c2.5-3.781,7.27-5.333,11.763-5.943a45.6,45.6,0,0,1,32.22,7.958,56.413,56.413,0,0,1,20.761-50.094c7.08-5.56,15.827-9.412,24.827-9.189S498.7,210.4,502.618,218.5c2.487,5.136,2.76,11.053,2.515,16.754a103.7,103.7,0,0,1-6.9,32.954c20.48-5.579,54.981-8.787,60.34,11.752,10.8,41.384-164.048,62.835-174.914,25.42C380.794,295.52,406.272,287.054,406.272,287.054Z" transform="translate(268.002 57.992)" fill="#f1f9fb"/>
        <path id="Path_8725" data-name="Path 8725" d="M53.016,316.783c-3.36-1.675-6.824-3.435-9.2-6.341s-3.36-7.307-1.289-10.438c1.716-2.6,4.991-3.66,8.073-4.079a31.3,31.3,0,0,1,22.12,5.465A38.73,38.73,0,0,1,86.975,267c4.862-3.819,10.866-6.462,17.045-6.31s12.445,3.47,15.139,9.032c1.708,3.526,1.895,7.589,1.727,11.5a71.174,71.174,0,0,1-4.739,22.623c14.062-3.83,37.746-6.032,41.426,8.068,7.411,28.41-112.623,43.138-120.084,17.451C35.523,322.6,53.016,316.783,53.016,316.783Z" transform="translate(-18.926 103.874)" fill="#f1f9fb"/>
        <path id="Path_8726" data-name="Path 8726" d="M351.667,137.711c-2.95-1.472-5.992-3.016-8.077-5.569s-2.95-6.416-1.132-9.165c1.507-2.279,4.382-3.215,7.091-3.583a27.491,27.491,0,0,1,19.424,4.8,34.008,34.008,0,0,1,12.518-30.2c4.267-3.353,9.54-5.675,14.967-5.54s10.928,3.045,13.293,7.931c1.5,3.1,1.664,6.663,1.516,10.1a62.536,62.536,0,0,1-4.161,19.867c12.348-3.364,33.148-5.3,36.378,7.086,6.51,24.948-98.9,37.881-105.451,15.324C336.307,142.814,351.667,137.711,351.667,137.711Z" transform="translate(230.252 -38.916)" fill="#b8ebf4"/>
        <path id="Path_8727" data-name="Path 8727" d="M411.728,281.456c-3.834-1.911-7.784-3.918-10.495-7.236s-3.832-8.335-1.471-11.907c1.959-2.961,5.7-4.177,9.213-4.655a35.716,35.716,0,0,1,25.235,6.235,44.186,44.186,0,0,1,16.262-39.236c5.546-4.355,12.4-7.373,19.446-7.2s14.2,3.956,17.272,10.3c1.948,4.024,2.162,8.657,1.97,13.123a81.245,81.245,0,0,1-5.407,25.81c16.041-4.37,43.063-6.883,47.26,9.206,8.456,32.412-128.488,49.214-137,19.909C391.772,288.087,411.728,281.456,411.728,281.456Z" transform="translate(276.629 68.036)" fill="#b8ebf4"/>
        <path id="Path_8728" data-name="Path 8728" d="M66.553,95.269a16.173,16.173,0,0,1-5.558-3.832c-1.436-1.758-2.03-4.415-.779-6.308,1.037-1.569,3.016-2.213,4.88-2.466a18.916,18.916,0,0,1,13.368,3.3,23.406,23.406,0,0,1,8.613-20.785,16.385,16.385,0,0,1,10.3-3.812,10.458,10.458,0,0,1,9.149,5.458,14.457,14.457,0,0,1,1.043,6.95,43.037,43.037,0,0,1-2.862,13.672c8.5-2.314,22.812-3.645,25.034,4.876C134.22,109.5,61.679,118.4,57.17,102.872,55.981,98.781,66.553,95.269,66.553,95.269Z" transform="translate(-2.559 -61.366)" fill="#b8ebf4"/>
        <g id="Group_2342" data-name="Group 2342" transform="translate(450.301 408.173)">
          <path id="Path_8729" data-name="Path 8729" d="M312.534,288.394a3.866,3.866,0,1,1-3.867-3.865A3.866,3.866,0,0,1,312.534,288.394Z" transform="translate(-247.487 -284.529)" fill="#fff"/>
          <g id="Group_2341" data-name="Group 2341" transform="translate(0 17.9)">
            <rect id="Rectangle_662" data-name="Rectangle 662" width="119.939" height="65.751" rx="3.065" fill="#fff"/>
            <g id="Group_2340" data-name="Group 2340" transform="translate(25.158 4.794)">
              <g id="Group_2339" data-name="Group 2339">
                <text id="we_are" data-name="we are" transform="translate(33.974 18)" fill="#054651" font-size="20" font-family="BebasNeueBold, Bebas Neue"><tspan x="-22.63" y="0">we are</tspan></text>
                <text id="OPEN" transform="translate(33 52.395)" fill="#054651" font-size="41" font-family="BebasNeueBold, Bebas Neue" letter-spacing="0.02em"><tspan x="-33.477" y="0">OPEN</tspan></text>
              </g>
            </g>
          </g>
          <path id="Path_8730" data-name="Path 8730" d="M346.136,307.11H291.347l28.5-21.061Zm-49.571-1.717h44.672L319.8,288.216Z" transform="translate(-258.642 -283.269)" fill="#fff"/>
        </g>
        <rect id="Rectangle_663" data-name="Rectangle 663" width="58.688" height="20.568" transform="translate(560.839 323.02)" fill="#f29d2c"/>
        <rect id="Rectangle_664" data-name="Rectangle 664" width="58.688" height="20.568" transform="translate(160.618 323.692)" fill="#f29d2c"/>
        <rect id="Rectangle_665" data-name="Rectangle 665" width="29.819" height="13.373" transform="translate(507.617 327.29)" fill="#f29d2c"/>
        <rect id="Rectangle_666" data-name="Rectangle 666" width="29.819" height="13.373" transform="translate(351.32 578.87)" fill="#d87c0e"/>
        <rect id="Rectangle_667" data-name="Rectangle 667" width="29.819" height="13.373" transform="translate(435.392 578.87)" fill="#d87c0e"/>
        <g id="Group_2344" data-name="Group 2344" transform="translate(288.446 73.288)">
          <g id="Group_2343" data-name="Group 2343">
            <rect id="Rectangle_668" data-name="Rectangle 668" width="211.621" height="65.152" transform="translate(2.744 2.743)" fill="#fff"/>
            <path id="Path_8731" data-name="Path 8731" d="M402.082,172.072H184.974V101.435H402.082Zm-211.621-5.487H396.6V106.922H190.461Z" transform="translate(-184.974 -101.435)" fill="#329bad"/>
          </g>
          <text id="SHOP" transform="translate(105.343 52.364)" fill="#054651" font-size="49" font-family="BebasNeueBold, Bebas Neue" letter-spacing="0.2em"><tspan x="-53.385" y="0">SHOP</tspan></text>
        </g>
      </g>
    </g>
  </g>
</svg>
