<svg xmlns="http://www.w3.org/2000/svg" xmlns:xlink="http://www.w3.org/1999/xlink" width="879.777" height="707.895" viewBox="0 0 879.777 707.895">
  <defs>
    <clipPath id="clip-path">
      <path id="Path_8586" data-name="Path 8586" d="M289.976,378.065a10.85,10.85,0,0,0,.8,7.535c-.351.158-.087,1.6.546,1.9.745.36,6.131.271,7.225-.582a1.161,1.161,0,0,0-.035-.966s1.348.51,5.18-.212a19.482,19.482,0,0,0,7.376-2.778c.453-.286.139-1.308-.369-1.143,0,0-.329-2.66-2.554-2.516a16.726,16.726,0,0,1-10.16-2.971,8.406,8.406,0,0,0-3.032-1.317A5.166,5.166,0,0,0,289.976,378.065Z" transform="translate(-289.646 -375.011)" fill="#ed0c37"/>
    </clipPath>
    <clipPath id="clip-path-2">
      <path id="Path_8595" data-name="Path 8595" d="M216.869,368.195a10.85,10.85,0,0,0-5.881,4.779c-.323-.208-1.386.8-1.3,1.494.1.821,3.116,5.289,4.428,5.74a1.159,1.159,0,0,0,.79-.557s.307,1.41,3,4.228a19.482,19.482,0,0,0,6.35,4.67c.485.223,1.172-.6.756-.933,0,0,2.051-1.725.717-3.513a16.738,16.738,0,0,1-3.048-10.136,8.39,8.39,0,0,0-.547-3.26A5.169,5.169,0,0,0,216.869,368.195Z" transform="translate(-209.685 -368.096)" fill="#ed0c37"/>
    </clipPath>
    <clipPath id="clip-path-3">
      <path id="Path_8623" data-name="Path 8623" d="M500.085,371.821a41.608,41.608,0,0,1,3.521,3.389c.5.739,2.442,6.227,2.442,6.227a4.683,4.683,0,0,1-3.035,2.1l-2.445-3.147s-1.252,5.5-2.514,7.287c-1.526,2.159-10.279,4.649-11.587,3.993,0,0-1.609-3.206,1.134-4.965,5.065-3.247,5.189-10.058,5.189-10.058A4.767,4.767,0,0,1,500.085,371.821Z" transform="translate(-485.998 -371.059)" fill="#fd6141"/>
    </clipPath>
    <clipPath id="clip-path-4">
      <path id="Path_8629" data-name="Path 8629" d="M515,374.95a41.5,41.5,0,0,1,2.087,4.419c.2.867.068,6.687.068,6.687a4.667,4.667,0,0,1-3.58.882l-1.168-3.81s-1.8,3.72-3.616,4.941c-2.194,1.475-10.009,3.284-11.323,2.638,0,0-1.8-3.486,1.1-4.974,7.259-3.723,7.9-8.868,7.9-8.868A4.768,4.768,0,0,1,515,374.95Z" transform="translate(-496.912 -373)" fill="#fd6141"/>
    </clipPath>
  </defs>
  <g id="Group_2422" data-name="Group 2422" transform="translate(-842.112 -186.053)">
    <path id="Path_8682" data-name="Path 8682" d="M1616.622,1577.353s-55.547-125.593-223.181-81.543-254.51,31.814-320.585,26.919-211.684,31.814-141.938,228.815-65.6,253.381-68.522,329.151,73.416,181.094,336.492,55.063,337.716,13.459,401.344,28.143S1692.095,1754.936,1616.622,1577.353Z" transform="translate(19.893 -1300.389)" fill="#e3e1eb"/>
    <g id="OBJECTS" transform="translate(765.427 195.317)">
      <g id="Group_2264" data-name="Group 2264" transform="translate(76.685 56.66)">
        <g id="Group_2149" data-name="Group 2149" transform="translate(81.145 326.07)">
          <path id="Path_8424" data-name="Path 8424" d="M816.7,362.608c-2.724-14.038-28.816-16.374-28.816-16.374s15.244-25.423,4.433-36.937-35.654,15.526-35.654,15.526-8.2-17.086-20.4,0c0,0-20.33-15.524-37.911-7.545-12.559,5.7-10.707,20.756-8.623,28.9H344.447a8.513,8.513,0,0,0-1.112-1.741c-11.662-14.076-45.489-6.83-45.489-6.83s14.128-34.887-9.167-45.461-50.233,10-50.233,10c-16.164-22.639-27.033,0-27.033,0s-32.917-35.828-47.242-20.572,5.873,48.94,5.873,48.94-34.57,3.1-38.18,21.7,59.81,37.907,59.81,37.907l579.889,1.106S819.428,376.645,816.7,362.608Z" transform="translate(-131.714 -277.788)" fill="#71bf9d"/>
          <g id="Group_2117" data-name="Group 2117" transform="translate(37.84 25.799)">
            <path id="Path_8425" data-name="Path 8425" d="M208.974,376.336a259.314,259.314,0,0,0-46.5-81.052" transform="translate(-154.955 -295.284)" fill="none" stroke="#e57e55" stroke-linecap="round" stroke-linejoin="round" stroke-width="0.997"/>
            <path id="Path_8426" data-name="Path 8426" d="M194,373.353a504.47,504.47,0,0,1,7.258-69.551" transform="translate(-139.995 -291.242)" fill="none" stroke="#e57e55" stroke-linecap="round" stroke-linejoin="round" stroke-width="0.997"/>
            <path id="Path_8427" data-name="Path 8427" d="M205.123,344.956a170.318,170.318,0,0,0-47.747-15.421" transform="translate(-157.376 -279.029)" fill="none" stroke="#e57e55" stroke-linecap="round" stroke-linejoin="round" stroke-width="0.997"/>
            <path id="Path_8428" data-name="Path 8428" d="M179.345,325.648a85.355,85.355,0,0,0,6.146-22.113" transform="translate(-146.95 -291.368)" fill="none" stroke="#e57e55" stroke-linecap="round" stroke-linejoin="round" stroke-width="0.997"/>
          </g>
          <g id="Group_2118" data-name="Group 2118" transform="translate(607.845 44.549)">
            <path id="Path_8429" data-name="Path 8429" d="M547.864,372.892A207.583,207.583,0,0,1,585.09,308" transform="translate(-542.065 -308)" fill="none" stroke="#e57e55" stroke-linecap="round" stroke-linejoin="round" stroke-width="0.798"/>
            <path id="Path_8430" data-name="Path 8430" d="M549.741,370.5a403.9,403.9,0,0,0-5.81-55.684" transform="translate(-543.931 -304.764)" fill="none" stroke="#e57e55" stroke-linecap="round" stroke-linejoin="round" stroke-width="0.798"/>
            <path id="Path_8431" data-name="Path 8431" d="M551.27,347.769A136.389,136.389,0,0,1,589.5,335.422" transform="translate(-540.448 -294.986)" fill="none" stroke="#e57e55" stroke-linecap="round" stroke-linejoin="round" stroke-width="0.798"/>
            <path id="Path_8432" data-name="Path 8432" d="M561.189,332.31a68.328,68.328,0,0,1-4.921-17.7" transform="translate(-538.076 -304.865)" fill="none" stroke="#e57e55" stroke-linecap="round" stroke-linejoin="round" stroke-width="0.798"/>
          </g>
          <g id="Group_2133" data-name="Group 2133" transform="translate(29.671 2.406)">
            <g id="Group_2125" data-name="Group 2125" transform="translate(31.89 9.6)">
              <g id="Group_2119" data-name="Group 2119">
                <path id="Path_8433" data-name="Path 8433" d="M174.227,285.943a1.982,1.982,0,0,1,.727.369,1.861,1.861,0,0,1,.523.625.649.649,0,0,1-.32.845.633.633,0,0,1-.4.047,2.032,2.032,0,0,1-.718-.367,1.919,1.919,0,0,1-.519-.616.651.651,0,0,1,.3-.849A.622.622,0,0,1,174.227,285.943Z" transform="translate(-173.463 -285.931)" fill="#fff"/>
              </g>
              <g id="Group_2120" data-name="Group 2120" transform="translate(2.344 1.899)">
                <path id="Path_8434" data-name="Path 8434" d="M175.835,287.234a2.05,2.05,0,0,1,1.222,1.026.648.648,0,0,1-.342.836.623.623,0,0,1-.4.037,1.931,1.931,0,0,1-.709-.385,1.966,1.966,0,0,1-.5-.633.646.646,0,0,1,.326-.838A.629.629,0,0,1,175.835,287.234Z" transform="translate(-175.052 -287.219)" fill="#fff"/>
              </g>
              <g id="Group_2121" data-name="Group 2121" transform="translate(4.636 3.86)">
                <path id="Path_8435" data-name="Path 8435" d="M177.406,288.567a1.923,1.923,0,0,1,.706.406,1.965,1.965,0,0,1,.49.65.648.648,0,0,1-.764.855,1.949,1.949,0,0,1-.7-.4,2.026,2.026,0,0,1-.487-.644.647.647,0,0,1,.347-.83A.638.638,0,0,1,177.406,288.567Z" transform="translate(-176.607 -288.548)" fill="#fff"/>
              </g>
              <g id="Group_2122" data-name="Group 2122" transform="translate(8.597 7.467)">
                <path id="Path_8436" data-name="Path 8436" d="M180.115,291.02a2.014,2.014,0,0,1,1.156,1.1.645.645,0,0,1-.392.811.621.621,0,0,1-.4.015,2.069,2.069,0,0,1-1.147-1.091.651.651,0,0,1,.38-.817A.621.621,0,0,1,180.115,291.02Z" transform="translate(-179.293 -290.994)" fill="#fff"/>
              </g>
              <g id="Group_2123" data-name="Group 2123" transform="translate(11.361 10.15)">
                <path id="Path_8437" data-name="Path 8437" d="M181.977,292.816a.816.816,0,0,1,.457.226.8.8,0,0,1,.226.456.756.756,0,0,1-.669.807.955.955,0,0,1-.145,0,.79.79,0,0,1-.675-.675.754.754,0,0,1,.659-.811A.821.821,0,0,1,181.977,292.816Z" transform="translate(-181.167 -292.814)" fill="#fff"/>
              </g>
              <g id="Group_2124" data-name="Group 2124" transform="translate(13.592 12.478)">
                <path id="Path_8438" data-name="Path 8438" d="M183.509,294.4a.814.814,0,0,1,.451.237.8.8,0,0,1,.214.463.756.756,0,0,1-.695.786.922.922,0,0,1-.143,0,.793.793,0,0,1-.444-.234.807.807,0,0,1-.211-.457.754.754,0,0,1,.68-.793A.706.706,0,0,1,183.509,294.4Z" transform="translate(-182.68 -294.393)" fill="#fff"/>
              </g>
            </g>
            <g id="Group_2132" data-name="Group 2132">
              <g id="Group_2126" data-name="Group 2126" transform="translate(6.003)">
                <path id="Path_8439" data-name="Path 8439" d="M156.175,281.166a12.519,12.519,0,0,1,6.668-1.746,19.307,19.307,0,0,1,6.7,1.534,42.542,42.542,0,0,1,5.993,3.156,61.376,61.376,0,0,1,5.475,3.9.574.574,0,0,1-.689.917c-1.8-1.278-3.636-2.5-5.518-3.633a41.015,41.015,0,0,0-5.817-2.983,17.891,17.891,0,0,0-6.168-1.5,12,12,0,0,0-6.052,1.333.614.614,0,0,1-.771-.236A.524.524,0,0,1,156.175,281.166Z" transform="translate(-155.907 -279.42)" fill="#fff"/>
              </g>
              <g id="Group_2127" data-name="Group 2127" transform="translate(3.83 2.584)">
                <path id="Path_8440" data-name="Path 8440" d="M156.208,282.055c-.069.242-.248.351-.364.531a1.243,1.243,0,0,1-.538.357.7.7,0,0,1-.842-.425.647.647,0,0,1-.016-.335,1.6,1.6,0,0,1,.366-.644,1.225,1.225,0,0,1,.65-.355.654.654,0,0,1,.764.547A.678.678,0,0,1,156.208,282.055Z" transform="translate(-154.433 -281.172)" fill="#fff"/>
              </g>
              <g id="Group_2128" data-name="Group 2128" transform="translate(2.31 4.531)">
                <path id="Path_8441" data-name="Path 8441" d="M155.086,283.214a1.3,1.3,0,0,1-.221.615,1.906,1.906,0,0,1-.453.475.668.668,0,0,1-1.009-.546,1.2,1.2,0,0,1,.208-.7,1.582,1.582,0,0,1,.535-.5.644.644,0,0,1,.87.332A.72.72,0,0,1,155.086,283.214Z" transform="translate(-153.403 -282.492)" fill="#fff"/>
              </g>
              <g id="Group_2129" data-name="Group 2129" transform="translate(0.372 6.66)">
                <path id="Path_8442" data-name="Path 8442" d="M154.525,284.658c-.093.435-.22.851-.349,1.265l-.321,1.273c-.212.851-.391,1.708-.627,2.575a.6.6,0,0,1-.714.394.553.553,0,0,1-.423-.537,12.044,12.044,0,0,1,.336-2.785l.423-1.352a13.036,13.036,0,0,1,.621-1.284.566.566,0,0,1,.8-.172A.6.6,0,0,1,154.525,284.658Z" transform="translate(-152.088 -283.936)" fill="#fff"/>
              </g>
              <g id="Group_2130" data-name="Group 2130" transform="translate(0 14.483)">
                <path id="Path_8443" data-name="Path 8443" d="M153.157,289.507a.572.572,0,0,1-.028.8.816.816,0,0,1-1.131-.009l-.016-.018a.605.605,0,0,1,.031-.823.811.811,0,0,1,1.127.032Z" transform="translate(-151.836 -289.242)" fill="#fff"/>
              </g>
              <g id="Group_2131" data-name="Group 2131" transform="translate(0.035 17.209)">
                <path id="Path_8444" data-name="Path 8444" d="M153.153,291.312a.572.572,0,0,1,.029.8.814.814,0,0,1-1.128.068l-.018-.015a.6.6,0,0,1-.029-.82.812.812,0,0,1,1.127-.05Z" transform="translate(-151.86 -291.09)" fill="#fff"/>
              </g>
            </g>
          </g>
          <g id="Group_2148" data-name="Group 2148" transform="translate(628.244 31.663)">
            <g id="Group_2140" data-name="Group 2140" transform="translate(23.822 16.482)">
              <g id="Group_2134" data-name="Group 2134" transform="translate(6.22)">
                <path id="Path_8445" data-name="Path 8445" d="M579.662,310.933a2.264,2.264,0,0,1-.025.876,2.1,2.1,0,0,1-.357.8.625.625,0,0,1-.9.09.649.649,0,0,1-.209-.358,2.335,2.335,0,0,1,.037-.857,2.228,2.228,0,0,1,.338-.787.636.636,0,0,1,.9-.119A.644.644,0,0,1,579.662,310.933Z" transform="translate(-578.139 -310.438)" fill="#fff"/>
              </g>
              <g id="Group_2135" data-name="Group 2135" transform="translate(5.411 3.138)">
                <path id="Path_8446" data-name="Path 8446" d="M579.165,313.091a2.276,2.276,0,0,1-.065.87,2.161,2.161,0,0,1-.389.782.626.626,0,0,1-.907.053.653.653,0,0,1-.2-.369,2.288,2.288,0,0,1,.074-.855,2.207,2.207,0,0,1,.375-.773.632.632,0,0,1,.905-.075A.654.654,0,0,1,579.165,313.091Z" transform="translate(-577.589 -312.566)" fill="#fff"/>
              </g>
              <g id="Group_2136" data-name="Group 2136" transform="translate(4.484 6.242)">
                <path id="Path_8447" data-name="Path 8447" d="M578.574,315.218a2.281,2.281,0,0,1-.1.867,2.2,2.2,0,0,1-.416.765.623.623,0,0,1-.907.024.653.653,0,0,1-.183-.375,2.212,2.212,0,0,1,.1-.854,2.186,2.186,0,0,1,.4-.759.63.63,0,0,1,.907-.043A.655.655,0,0,1,578.574,315.218Z" transform="translate(-576.961 -314.671)" fill="#fff"/>
              </g>
              <g id="Group_2137" data-name="Group 2137" transform="translate(2.609 11.678)">
                <path id="Path_8448" data-name="Path 8448" d="M577.358,318.938a2.261,2.261,0,0,1-.14.858,2.155,2.155,0,0,1-.45.743.627.627,0,0,1-.908-.019.651.651,0,0,1-.165-.383,2.276,2.276,0,0,1,.143-.849,2.248,2.248,0,0,1,.441-.739.633.633,0,0,1,.91,0A.65.65,0,0,1,577.358,318.938Z" transform="translate(-575.69 -318.358)" fill="#fff"/>
              </g>
              <g id="Group_2138" data-name="Group 2138" transform="translate(1.356 15.566)">
                <path id="Path_8449" data-name="Path 8449" d="M576.312,321.519a.9.9,0,0,1-.04.538.885.885,0,0,1-.342.419.72.72,0,0,1-1.007-.292.742.742,0,0,1-.056-.139.9.9,0,0,1,.379-.948.72.72,0,0,1,1.009.28A.736.736,0,0,1,576.312,321.519Z" transform="translate(-574.84 -320.994)" fill="#fff"/>
              </g>
              <g id="Group_2139" data-name="Group 2139" transform="translate(0 18.741)">
                <path id="Path_8450" data-name="Path 8450" d="M575.4,323.691a.9.9,0,0,1-.056.538.9.9,0,0,1-.355.41.732.732,0,0,1-1.048-.464.878.878,0,0,1,.056-.531.9.9,0,0,1,.349-.4.722.722,0,0,1,1,.308A.868.868,0,0,1,575.4,323.691Z" transform="translate(-573.92 -323.148)" fill="#fff"/>
              </g>
            </g>
            <g id="Group_2147" data-name="Group 2147">
              <g id="Group_2141" data-name="Group 2141" transform="translate(14.895)">
                <path id="Path_8451" data-name="Path 8451" d="M568.156,302.759a26.33,26.33,0,0,1,6.624-3.007,9.544,9.544,0,0,1,7.432.55,6.134,6.134,0,0,1,2.466,3.044,13.059,13.059,0,0,1,.764,3.679,29.367,29.367,0,0,1-.65,7.237.573.573,0,1,1-1.13-.2,32.337,32.337,0,0,0,.388-6.941c-.181-2.222-.832-4.561-2.6-5.568a8.166,8.166,0,0,0-6.313-.454,28.289,28.289,0,0,0-6.4,2.651.583.583,0,0,1-.793-.214A.591.591,0,0,1,568.156,302.759Z" transform="translate(-567.866 -299.261)" fill="#fff"/>
              </g>
              <g id="Group_2142" data-name="Group 2142" transform="translate(12.38 4.249)">
                <path id="Path_8452" data-name="Path 8452" d="M568.065,303.117a1.614,1.614,0,0,1-.513.515,1.7,1.7,0,0,1-.683.254.651.651,0,0,1-.708-.619.69.69,0,0,1,.075-.336,1.568,1.568,0,0,1,.519-.534,1.675,1.675,0,0,1,.7-.252.644.644,0,0,1,.69.638A.7.7,0,0,1,568.065,303.117Z" transform="translate(-566.161 -302.142)" fill="#fff"/>
              </g>
              <g id="Group_2143" data-name="Group 2143" transform="translate(10.133 5.763)">
                <path id="Path_8453" data-name="Path 8453" d="M566.535,304.116a1.608,1.608,0,0,1-.49.54,1.7,1.7,0,0,1-.672.285.653.653,0,0,1-.734-.59.692.692,0,0,1,.062-.338,1.557,1.557,0,0,1,.493-.556,1.664,1.664,0,0,1,.687-.283.645.645,0,0,1,.721.6A.711.711,0,0,1,566.535,304.116Z" transform="translate(-564.637 -303.169)" fill="#fff"/>
              </g>
              <g id="Group_2144" data-name="Group 2144" transform="translate(4.445 7.299)">
                <path id="Path_8454" data-name="Path 8454" d="M566.174,305.206c-.687.687-1.439,1.284-2.173,1.908-.761.588-1.5,1.2-2.32,1.73a.584.584,0,0,1-.814-.159.594.594,0,0,1,.065-.708,19.647,19.647,0,0,1,2.143-2,18.861,18.861,0,0,1,2.409-1.681.576.576,0,0,1,.8.215A.6.6,0,0,1,566.174,305.206Z" transform="translate(-560.779 -304.211)" fill="#fff"/>
              </g>
              <g id="Group_2145" data-name="Group 2145" transform="translate(2.097 12.713)">
                <path id="Path_8455" data-name="Path 8455" d="M560.6,308.73a.659.659,0,0,1-.636.582.778.778,0,0,1-.78-.818l0-.024a.674.674,0,0,1,.211-.414.688.688,0,0,1,.432-.174.774.774,0,0,1,.773.82Z" transform="translate(-559.187 -307.882)" fill="#fff"/>
              </g>
              <g id="Group_2146" data-name="Group 2146" transform="translate(0 14.74)">
                <path id="Path_8456" data-name="Path 8456" d="M559.188,310.08a.674.674,0,0,1-.195.416.656.656,0,0,1-.417.186.776.776,0,0,1-.811-.786v-.024a.667.667,0,0,1,.625-.615.775.775,0,0,1,.8.795Z" transform="translate(-557.765 -309.257)" fill="#fff"/>
              </g>
            </g>
          </g>
        </g>
        <g id="Group_2165" data-name="Group 2165" transform="translate(73.671)">
          <path id="Path_8457" data-name="Path 8457" d="M483.968,341.321c-88.309-1.389-324.483,71.718-353.3,0-23.745-59.1,65.038-54.57,70.2-103.5s-17.953-69.777,18.9-92.432,96.9,8.8,136.559-22.655,60.356-54.372,149.628-65.247S661.3,147.2,699.5,157.164s92.91-15.4,119.752,15.4-59.877,99-41.294,127.431,64.084,43.841,46.495,83.715S569.926,342.673,483.968,341.321Z" transform="translate(-126.646 -56.66)" fill="#ffd25a"/>
          <g id="Group_2164" data-name="Group 2164" transform="translate(3.267 236.508)">
            <g id="Group_2156" data-name="Group 2156" transform="translate(1.607)">
              <g id="Group_2150" data-name="Group 2150" transform="translate(0 18.409)">
                <path id="Path_8458" data-name="Path 8458" d="M129.951,231.912a3,3,0,0,1,.226-1.121,3.8,3.8,0,0,1,.565-.991.565.565,0,0,1,.938-.031.851.851,0,0,1,.121.472,3.54,3.54,0,0,1-.249,1.069,4.961,4.961,0,0,1-.513.967c-.279.349-.7.4-.935.1A.793.793,0,0,1,129.951,231.912Z" transform="translate(-129.951 -229.535)" fill="#fff"/>
              </g>
              <g id="Group_2151" data-name="Group 2151" transform="translate(1.62 14.642)">
                <path id="Path_8459" data-name="Path 8459" d="M131.053,229.167a3.41,3.41,0,0,1,.376-1.076,3.2,3.2,0,0,1,.681-.913c.358-.3.777-.251.942.091a.779.779,0,0,1,.052.478,4.262,4.262,0,0,1-.376,1.032,4.1,4.1,0,0,1-.646.892.572.572,0,0,1-.935-.016A.813.813,0,0,1,131.053,229.167Z" transform="translate(-131.049 -226.98)" fill="#fff"/>
              </g>
              <g id="Group_2152" data-name="Group 2152" transform="translate(3.707 11.114)">
                <path id="Path_8460" data-name="Path 8460" d="M132.492,226.588a3.8,3.8,0,0,1,.487-1.029,3.5,3.5,0,0,1,.789-.821c.383-.261.792-.17.92.19a.8.8,0,0,1,0,.487,3.785,3.785,0,0,1-.5.978,3.561,3.561,0,0,1-.734.818c-.363.267-.787.214-.938-.133A.785.785,0,0,1,132.492,226.588Z" transform="translate(-132.465 -224.588)" fill="#fff"/>
              </g>
              <g id="Group_2153" data-name="Group 2153" transform="translate(8.338 5.502)">
                <path id="Path_8461" data-name="Path 8461" d="M135.679,222.453a3.538,3.538,0,0,1,.667-.919,3.235,3.235,0,0,1,.913-.672c.423-.189.811-.03.876.348a.8.8,0,0,1-.081.478,4.265,4.265,0,0,1-.664.882,3.882,3.882,0,0,1-.876.669c-.4.2-.8.078-.891-.293A.8.8,0,0,1,135.679,222.453Z" transform="translate(-135.605 -220.782)" fill="#fff"/>
              </g>
              <g id="Group_2154" data-name="Group 2154" transform="translate(12.269 2.614)">
                <path id="Path_8462" data-name="Path 8462" d="M138.321,219.69a1.362,1.362,0,0,1,.417-.557,1.443,1.443,0,0,1,.628-.3.616.616,0,0,1,.756.73,1.153,1.153,0,0,1-.043.167,1.385,1.385,0,0,1-.41.541,1.507,1.507,0,0,1-.61.3.619.619,0,0,1-.782-.7A1.051,1.051,0,0,1,138.321,219.69Z" transform="translate(-138.271 -218.823)" fill="#fff"/>
              </g>
              <g id="Group_2155" data-name="Group 2155" transform="translate(15.873)">
                <path id="Path_8463" data-name="Path 8463" d="M140.8,217.8a1.394,1.394,0,0,1,.476-.513,1.413,1.413,0,0,1,.664-.233.614.614,0,0,1,.665.815.914.914,0,0,1-.062.159,1.429,1.429,0,0,1-.462.488,1.479,1.479,0,0,1-.636.23.619.619,0,0,1-.7-.779A.99.99,0,0,1,140.8,217.8Z" transform="translate(-140.715 -217.051)" fill="#fff"/>
              </g>
            </g>
            <g id="Group_2163" data-name="Group 2163" transform="translate(0 22.716)">
              <g id="Group_2157" data-name="Group 2157">
                <path id="Path_8464" data-name="Path 8464" d="M140.075,267.906c-1.076-1.141-1.972-2.436-2.962-3.654-.846-1.318-1.718-2.628-2.51-3.98-.7-1.4-1.441-2.787-2.1-4.21l-1.73-4.371a36.285,36.285,0,0,1-1.859-9.25,28.838,28.838,0,0,1,.948-9.378c.118-.42.459-.684.761-.588a.7.7,0,0,1,.352.864,29.793,29.793,0,0,0-.669,9.013,34.735,34.735,0,0,0,1.859,8.864l1.65,4.272c.625,1.389,1.339,2.738,2,4.111.751,1.323,1.569,2.609,2.356,3.914.929,1.2,1.756,2.495,2.759,3.642a.67.67,0,0,1,.068.941A.715.715,0,0,1,140.075,267.906Z" transform="translate(-128.861 -232.456)" fill="#fff"/>
              </g>
              <g id="Group_2158" data-name="Group 2158" transform="translate(12.541 36.284)">
                <path id="Path_8465" data-name="Path 8465" d="M138.245,257.136a3.034,3.034,0,0,1,.746.554,2.569,2.569,0,0,1,.568.736c.184.419.019.818-.383.88a.851.851,0,0,1-.4-.046,2.78,2.78,0,0,1-.815-.523,2.4,2.4,0,0,1-.535-.805c-.162-.45.037-.832.435-.867A.8.8,0,0,1,138.245,257.136Z" transform="translate(-137.366 -257.062)" fill="#fff"/>
              </g>
              <g id="Group_2159" data-name="Group 2159" transform="translate(15.123 38.716)">
                <path id="Path_8466" data-name="Path 8466" d="M139.953,258.758a3.475,3.475,0,0,1,.8.479,2.528,2.528,0,0,1,.63.684.579.579,0,0,1-.3.913.836.836,0,0,1-.4-.01,2.734,2.734,0,0,1-.857-.451,2.168,2.168,0,0,1-.612-.748c-.2-.434-.038-.833.355-.9A.789.789,0,0,1,139.953,258.758Z" transform="translate(-139.117 -258.711)" fill="#fff"/>
              </g>
              <g id="Group_2160" data-name="Group 2160" transform="translate(17.744 40.798)">
                <path id="Path_8467" data-name="Path 8467" d="M141.851,260.256l3.222,1.871,3.249,1.82a.655.655,0,0,1,.342.876.7.7,0,0,1-.805.173,19.952,19.952,0,0,1-3.515-1.593,22.818,22.818,0,0,1-3.159-2.213c-.32-.3-.385-.72-.146-.936A.692.692,0,0,1,141.851,260.256Z" transform="translate(-140.894 -260.123)" fill="#fff"/>
              </g>
              <g id="Group_2161" data-name="Group 2161" transform="translate(27.58 45.745)">
                <path id="Path_8468" data-name="Path 8468" d="M148.093,263.516a1.052,1.052,0,0,1,.579.01,1.026,1.026,0,0,1,.479.32.663.663,0,0,1-.3,1.09l-.027.009a1.1,1.1,0,0,1-1.1-.344.659.659,0,0,1,.336-1.075Z" transform="translate(-147.564 -263.478)" fill="#fff"/>
              </g>
              <g id="Group_2162" data-name="Group 2162" transform="translate(31.257 46.663)">
                <path id="Path_8469" data-name="Path 8469" d="M150.508,264.167a1.047,1.047,0,0,1,.568-.052.993.993,0,0,1,.51.245.663.663,0,0,1-.136,1.124l-.025.012a1.114,1.114,0,0,1-.6.068,1.077,1.077,0,0,1-.54-.273.661.661,0,0,1,.2-1.11Z" transform="translate(-150.058 -264.101)" fill="#fff"/>
              </g>
            </g>
          </g>
          <path id="Path_8470" data-name="Path 8470" d="M406.714,88.9Q344.662,98.99,310.188,145.39c-21.449,28.243-16.853,64.555,1.532,92.8,16.854,26.9,49.03,36.313,79.671,43.038,85.8,20.174,163.94,45.727,245.144,71.281,35.239,10.758,76.607,26.9,107.25,2.69l.047-.037a9.589,9.589,0,0,0,3.573-9.5c-4.878-23.8-35.4-38.012-49.791-60.031C679.033,257.2,765.75,189.014,738.909,158.2s-81.556-5.437-119.752-15.4c-4.528-1.183-9.453-3.65-14.758-7.041C536.059,120.592,482.074,77.229,406.714,88.9Z" transform="translate(-46.308 -42.294)" fill="#ffbe57"/>
          <path id="Path_8471" data-name="Path 8471" d="M788.8,385.859c-36.1,0-98.086-13.852-158.032-27.249-59-13.184-114.726-25.637-149.114-26.177-.874-.015-1.78-.022-2.681-.022-28.279,0-69.924,6.774-114.014,13.945C314.114,354.626,256.489,364,211.77,364c-44.038,0-69-8.858-76.326-27.081-11.31-28.15,5.375-38.2,28.468-52.106,18.527-11.157,39.525-23.8,42.135-48.543,1.845-17.48.2-31.65-1.125-43.035-2.467-21.246-3.706-31.908,16.788-44.509,8.83-5.428,19.809-7.744,36.715-7.744,6.444,0,13.016.317,19.973.653,7.041.341,14.324.692,21.56.692,17.646,0,40.306-1.907,59.052-16.773,3.648-2.893,7.135-5.714,10.531-8.461,32.677-26.429,56.285-45.525,135.015-55.115a103.625,103.625,0,0,1,12.463-.756c50.006,0,92.506,36.21,126.656,65.3,20.386,17.368,36.487,31.086,51.183,34.921a98.376,98.376,0,0,0,24.882,2.762c8.967,0,18.226-.768,27.181-1.511,8.915-.74,17.337-1.438,25.432-1.438,18.8,0,30.276,3.956,38.355,13.231,11.1,12.743-5.9,38.615-20.908,61.44-16.4,24.947-31.888,48.509-20.946,65.253,6.324,9.679,15.246,17.707,23.873,25.47,18.1,16.294,32.405,29.163,22.123,52.468C812.935,383.466,803.681,385.859,788.8,385.859Z" transform="translate(-124.193 -54.496)" fill="none" stroke="#fff" stroke-miterlimit="10" stroke-width="0.973"/>
        </g>
        <g id="Group_2183" data-name="Group 2183" transform="translate(198.272 123.661)">
          <rect id="Rectangle_343" data-name="Rectangle 343" width="472.569" height="260.948" rx="3.855" transform="translate(16.529 19.698)" fill="#764582"/>
          <rect id="Rectangle_344" data-name="Rectangle 344" width="472.57" height="260.948" rx="3.855" transform="translate(8.264 9.849)" fill="#9d68aa"/>
          <g id="Group_2170" data-name="Group 2170">
            <rect id="Rectangle_345" data-name="Rectangle 345" width="472.569" height="260.948" rx="2.124" fill="#fff" stroke="#764582" stroke-miterlimit="10" stroke-width="0.974"/>
            <path id="Path_8472" data-name="Path 8472" d="M231.3,156.547h30.223V154.77H231.3Zm-7.112.889h3.555v-3.555h-3.555Zm7.112,8.889h30.223v-1.777H231.3Zm-7.112.889h3.555v-3.555h-3.555Zm7.112,8.89h30.223v-1.778H231.3Zm-7.112.889h3.555v-3.557h-3.555Z" transform="translate(-204.956 -134.183)" fill="#764582" fill-rule="evenodd"/>
            <rect id="Rectangle_346" data-name="Rectangle 346" width="134.215" height="130.11" rx="15.112" transform="translate(19.229 58.543)" fill="#fff" stroke="#764582" stroke-miterlimit="10" stroke-width="1.024"/>
            <rect id="Rectangle_347" data-name="Rectangle 347" width="134.215" height="130.11" rx="15.112" transform="translate(169.988 58.543)" fill="#fff" stroke="#764582" stroke-miterlimit="10" stroke-width="1.024"/>
            <rect id="Rectangle_348" data-name="Rectangle 348" width="134.215" height="130.11" rx="15.112" transform="translate(320.747 58.543)" fill="#fff" stroke="#764582" stroke-miterlimit="10" stroke-width="1.024"/>
            <g id="Group_2169" data-name="Group 2169" transform="translate(414.991 15.366)">
              <g id="Group_2168" data-name="Group 2168">
                <g id="Group_2166" data-name="Group 2166">
                  <path id="Path_8473" data-name="Path 8473" d="M499.7,168.58l-2.256-15.029a.838.838,0,0,0-.829-.718l-4.042-.025.012-1.865,4.042.025a2.7,2.7,0,0,1,2.662,2.308l.251,1.671,25.492.161-2.617,11.854Zm.121-11.767,1.467,9.785,19.6-1.4,1.82-8.241Z" transform="translate(-492.576 -150.943)" fill="#764582"/>
                </g>
                <g id="Group_2167" data-name="Group 2167" transform="translate(6.546 16.498)">
                  <path id="Path_8474" data-name="Path 8474" d="M520.654,166.808l-22.03-.128a1.616,1.616,0,0,1-1.587-1.876l.432-2.673,1.842.3-.386,2.387,21.741.127Z" transform="translate(-497.016 -162.131)" fill="#764582"/>
                </g>
                <path id="Path_8475" data-name="Path 8475" d="M503.538,168.617a2.515,2.515,0,1,1-2.5-2.53A2.515,2.515,0,0,1,503.538,168.617Z" transform="translate(-489.761 -143.756)" fill="none" stroke="#764582" stroke-miterlimit="10" stroke-width="1.265"/>
                <path id="Path_8476" data-name="Path 8476" d="M512.488,168.675a2.515,2.515,0,1,1-2.5-2.532A2.515,2.515,0,0,1,512.488,168.675Z" transform="translate(-485.513 -143.729)" fill="none" stroke="#764582" stroke-miterlimit="10" stroke-width="1.265"/>
              </g>
            </g>
            <line id="Line_1" data-name="Line 1" x2="134.86" transform="translate(169.343 197.654)" fill="#fff" stroke="#764582" stroke-linecap="round" stroke-linejoin="round" stroke-width="1.024"/>
          </g>
          <g id="Group_2173" data-name="Group 2173" transform="translate(190.867 97.34)">
            <path id="Path_8477" data-name="Path 8477" d="M438.965,237.279c0,1.84-22.024,3.333-49.19,3.333s-49.19-1.492-49.19-3.333,22.023-3.334,49.19-3.334S438.965,235.437,438.965,237.279Z" transform="translate(-340.584 -193.527)" fill="#a1abad" opacity="0.7" style="mix-blend-mode: multiply;isolation: isolate"/>
            <g id="Group_2172" data-name="Group 2172" transform="translate(1.136)">
              <g id="Group_2171" data-name="Group 2171">
                <path id="Path_8478" data-name="Path 8478" d="M347.388,212.92s.984-2.489,9.6.78c4.672,1.772,10.759,6.055,22.607.888,0,0,3.61,11.979-11.488,10.933S347.388,212.92,347.388,212.92Z" transform="translate(-338.491 -203.935)" fill="#dd4026"/>
                <path id="Path_8479" data-name="Path 8479" d="M434.229,226.118l3.5.922c1.986,1.054,1.882,6.341.243,7.975,0,0-14.122,8.256-55.477,8.955-23.786-.457-39.684-4.524-40.42-6.14s-.8-5.229-.655-7.784l4.484-5.224Z" transform="translate(-341.354 -197.857)" fill="#e2e2e2"/>
                <path id="Path_8480" data-name="Path 8480" d="M349.484,215.52s-4.661,4.471-5.213,8.156c-.795,5.294-1.688,7.918-1.118,13.264,0,0,13.411,5.229,35.757,5.49,11.028.128,26.852-.54,38.429-2.6,9.852-1.756,19.618-4.11,19.618-4.11-2.844-9.959-11.452-6.261-23.717-10.145-8.343-2.641-28.209-19.037-28.209-19.037s-4.6,3.418-4.853,5.173c-.158,1.109,2.033,3.992,2.033,3.992s-.553,9.415-9.949,10.04C363.115,226.347,349.484,215.52,349.484,215.52Z" transform="translate(-340.586 -206.535)" fill="#fd6141"/>
                <path id="Path_8481" data-name="Path 8481" d="M437.7,226.325a53.853,53.853,0,0,1-18.245,7.124c-11.067,2.146-29.144,2.861-40.408,2.433-12.451-.475-37.655-6.552-37.655-6.552" transform="translate(-341.334 -197.143)" fill="none"/>
                <path id="Path_8482" data-name="Path 8482" d="M369.583,212.75s4.758.015,6.447.606c3.97,1.388,15.458,10.555,24.064,11.643" transform="translate(-327.958 -203.585)" fill="none" stroke="#efe9da" stroke-linecap="round" stroke-miterlimit="10" stroke-width="1.157"/>
                <path id="Path_8483" data-name="Path 8483" d="M381.226,213.242l-3.837,6.2c-.526.731-2.825-.922-2.3-1.653l3.555-6.541C379.412,210.256,381.992,212.251,381.226,213.242Z" transform="translate(-325.381 -204.427)" fill="#e2e2e2"/>
                <path id="Path_8484" data-name="Path 8484" d="M385.16,215.477l-4.033,6.574c-.491,1.1-3.072-.043-2.581-1.147l4.033-7.422C383.347,212.489,385.927,214.486,385.16,215.477Z" transform="translate(-323.733 -203.366)" fill="#e2e2e2"/>
                <path id="Path_8485" data-name="Path 8485" d="M388.944,217.712l-4.083,6.606c-.435.932-2.965-.246-2.53-1.18l4.033-7.422C387.13,214.726,389.71,216.721,388.944,217.712Z" transform="translate(-321.932 -202.305)" fill="#e2e2e2"/>
                <path id="Path_8486" data-name="Path 8486" d="M371.318,215.254a1.469,1.469,0,0,1,2.927.121l-1.162,11.011c0,1.59-1.669,1.59-1.669,0Z" transform="translate(-327.134 -203.014)" fill="#e2e2e2"/>
                <path id="Path_8487" data-name="Path 8487" d="M364.415,235.632a12.123,12.123,0,0,1,6.055-7.133c5.282-2.489,17.829,2.215,24.771-1.638,2.039-1.131,7.305-5.8,7.305-5.8" transform="translate(-330.41 -199.643)" fill="none" stroke="#efe9da" stroke-linecap="round" stroke-miterlimit="10" stroke-width="1.157"/>
                <path id="Path_8488" data-name="Path 8488" d="M344.681,216.19s7.442,3.335,10.9,7.733c1.56,1.98,3.734,12.633,3.734,12.633" transform="translate(-339.776 -201.953)" fill="none" stroke="#efe9da" stroke-linecap="round" stroke-miterlimit="10" stroke-width="1.157"/>
              </g>
            </g>
          </g>
          <g id="Group_2176" data-name="Group 2176" transform="translate(36.305 97.34)">
            <path id="Path_8489" data-name="Path 8489" d="M334.147,237.279c0,1.84-22.024,3.333-49.19,3.333s-49.19-1.492-49.19-3.333,22.023-3.334,49.19-3.334S334.147,235.437,334.147,237.279Z" transform="translate(-235.766 -193.527)" fill="#a1abad" opacity="0.7" style="mix-blend-mode: multiply;isolation: isolate"/>
            <g id="Group_2175" data-name="Group 2175" transform="translate(1.136)">
              <g id="Group_2174" data-name="Group 2174">
                <path id="Path_8490" data-name="Path 8490" d="M242.57,212.92s.984-2.489,9.6.78c4.671,1.772,10.758,6.055,22.607.888,0,0,3.61,11.979-11.488,10.933S242.57,212.92,242.57,212.92Z" transform="translate(-233.673 -203.935)" fill="#dd4026"/>
                <path id="Path_8491" data-name="Path 8491" d="M329.41,226.118l3.5.922c1.986,1.054,1.882,6.341.243,7.975,0,0-14.122,8.256-55.477,8.955-23.786-.457-39.684-4.524-40.418-6.14s-.8-5.229-.656-7.784l4.484-5.224Z" transform="translate(-236.536 -197.857)" fill="#e2e2e2"/>
                <path id="Path_8492" data-name="Path 8492" d="M244.665,215.52s-4.661,4.471-5.213,8.156c-.795,5.294-1.688,7.918-1.118,13.264,0,0,13.411,5.229,35.757,5.49,11.028.128,26.852-.54,38.429-2.6,9.852-1.756,19.618-4.11,19.618-4.11-2.844-9.959-11.452-6.261-23.717-10.145-8.343-2.641-28.207-19.037-28.207-19.037s-4.605,3.418-4.854,5.173c-.158,1.109,2.033,3.992,2.033,3.992s-.553,9.415-9.948,10.04C258.3,226.347,244.665,215.52,244.665,215.52Z" transform="translate(-235.769 -206.535)" fill="#ffd25a"/>
                <path id="Path_8493" data-name="Path 8493" d="M332.887,226.325a53.852,53.852,0,0,1-18.245,7.124c-11.065,2.146-29.144,2.861-40.408,2.433-12.451-.475-37.655-6.552-37.655-6.552" transform="translate(-236.516 -197.143)" fill="none"/>
                <path id="Path_8494" data-name="Path 8494" d="M264.765,212.75s4.758.015,6.447.606c3.97,1.388,15.458,10.555,24.064,11.643" transform="translate(-223.14 -203.585)" fill="none" stroke="#efe9da" stroke-miterlimit="10" stroke-width="1.157"/>
                <path id="Path_8495" data-name="Path 8495" d="M276.408,213.242l-3.837,6.2c-.526.731-2.825-.922-2.3-1.653l3.555-6.541C274.594,210.256,277.174,212.251,276.408,213.242Z" transform="translate(-220.563 -204.427)" fill="#e2e2e2"/>
                <path id="Path_8496" data-name="Path 8496" d="M280.342,215.477l-4.033,6.574c-.491,1.1-3.072-.043-2.581-1.147l4.033-7.422C278.529,212.489,281.109,214.486,280.342,215.477Z" transform="translate(-218.915 -203.366)" fill="#e2e2e2"/>
                <path id="Path_8497" data-name="Path 8497" d="M284.126,217.712l-4.083,6.606c-.435.932-2.965-.246-2.53-1.18l4.033-7.422C282.312,214.726,284.892,216.721,284.126,217.712Z" transform="translate(-217.114 -202.305)" fill="#e2e2e2"/>
                <path id="Path_8498" data-name="Path 8498" d="M266.5,215.254a1.468,1.468,0,0,1,2.926.121l-1.162,11.011c0,1.59-1.668,1.59-1.669,0Z" transform="translate(-222.316 -203.014)" fill="#e2e2e2"/>
                <path id="Path_8499" data-name="Path 8499" d="M259.6,235.632a12.122,12.122,0,0,1,6.056-7.133c5.28-2.489,17.828,2.215,24.77-1.638,2.039-1.131,7.305-5.8,7.305-5.8" transform="translate(-225.592 -199.643)" fill="none" stroke="#efe9da" stroke-miterlimit="10" stroke-width="1.157"/>
                <path id="Path_8500" data-name="Path 8500" d="M239.863,216.19s7.442,3.335,10.9,7.733c1.56,1.98,3.734,12.633,3.734,12.633" transform="translate(-234.958 -201.953)" fill="none" stroke="#efe9da" stroke-miterlimit="10" stroke-width="1.157"/>
              </g>
            </g>
          </g>
          <g id="Group_2179" data-name="Group 2179" transform="translate(338.36 97.34)">
            <path id="Path_8501" data-name="Path 8501" d="M538.989,237.279c0,1.84-22.023,3.333-49.19,3.333s-49.19-1.492-49.19-3.333,22.023-3.334,49.19-3.334S538.989,235.437,538.989,237.279Z" transform="translate(-440.608 -193.527)" fill="#a1abad" opacity="0.7" style="mix-blend-mode: multiply;isolation: isolate"/>
            <g id="Group_2178" data-name="Group 2178" transform="translate(1.137)">
              <g id="Group_2177" data-name="Group 2177">
                <path id="Path_8502" data-name="Path 8502" d="M447.412,212.92s.985-2.489,9.6.78c4.671,1.772,10.76,6.055,22.607.888,0,0,3.61,11.979-11.488,10.933S447.412,212.92,447.412,212.92Z" transform="translate(-438.516 -203.935)" fill="#3c8460"/>
                <path id="Path_8503" data-name="Path 8503" d="M534.253,226.118l3.495.922c1.986,1.054,1.882,6.341.243,7.975,0,0-14.122,8.256-55.475,8.955-23.788-.457-39.685-4.524-40.42-6.14s-.8-5.229-.655-7.784l4.484-5.224Z" transform="translate(-441.379 -197.857)" fill="#e2e2e2"/>
                <path id="Path_8504" data-name="Path 8504" d="M449.507,215.52s-4.66,4.471-5.213,8.156c-.793,5.294-1.688,7.918-1.118,13.264,0,0,13.411,5.229,35.757,5.49,11.03.128,26.852-.54,38.429-2.6,9.853-1.756,19.618-4.11,19.618-4.11-2.844-9.959-11.45-6.261-23.716-10.145-8.343-2.641-28.209-19.037-28.209-19.037s-4.605,3.418-4.854,5.173c-.158,1.109,2.033,3.992,2.033,3.992s-.551,9.415-9.948,10.04C463.138,226.347,449.507,215.52,449.507,215.52Z" transform="translate(-440.612 -206.535)" fill="#71bf9d"/>
                <path id="Path_8505" data-name="Path 8505" d="M537.728,226.325a53.852,53.852,0,0,1-18.243,7.124c-11.067,2.146-29.143,2.861-40.409,2.433-12.451-.475-37.653-6.552-37.653-6.552" transform="translate(-441.359 -197.143)" fill="none"/>
                <path id="Path_8506" data-name="Path 8506" d="M469.607,212.75s4.76.015,6.447.606c3.97,1.388,15.458,10.555,24.065,11.643" transform="translate(-427.983 -203.585)" fill="none" stroke="#efe9da" stroke-miterlimit="10" stroke-width="1.157"/>
                <path id="Path_8507" data-name="Path 8507" d="M481.25,213.242l-3.837,6.2c-.526.731-2.824-.922-2.3-1.653l3.555-6.541C479.436,210.256,482.016,212.251,481.25,213.242Z" transform="translate(-425.406 -204.427)" fill="#e2e2e2"/>
                <path id="Path_8508" data-name="Path 8508" d="M485.185,215.477l-4.034,6.574c-.491,1.1-3.07-.043-2.579-1.147l4.031-7.422C483.37,212.489,485.952,214.486,485.185,215.477Z" transform="translate(-423.758 -203.366)" fill="#e2e2e2"/>
                <path id="Path_8509" data-name="Path 8509" d="M488.968,217.712l-4.083,6.606c-.435.932-2.965-.246-2.53-1.18l4.033-7.422C487.154,214.726,489.734,216.721,488.968,217.712Z" transform="translate(-421.957 -202.305)" fill="#e2e2e2"/>
                <path id="Path_8510" data-name="Path 8510" d="M471.343,215.254a1.468,1.468,0,0,1,2.926.121l-1.16,11.011c0,1.59-1.669,1.59-1.669,0Z" transform="translate(-427.159 -203.014)" fill="#e2e2e2"/>
                <path id="Path_8511" data-name="Path 8511" d="M464.439,235.632A12.122,12.122,0,0,1,470.5,228.5c5.28-2.489,17.828,2.215,24.77-1.638,2.039-1.131,7.307-5.8,7.307-5.8" transform="translate(-430.436 -199.643)" fill="none" stroke="#efe9da" stroke-miterlimit="10" stroke-width="1.157"/>
                <path id="Path_8512" data-name="Path 8512" d="M444.7,216.19s7.444,3.335,10.906,7.733c1.559,1.98,3.732,12.633,3.732,12.633" transform="translate(-439.801 -201.953)" fill="none" stroke="#efe9da" stroke-miterlimit="10" stroke-width="1.157"/>
              </g>
            </g>
          </g>
          <g id="Group_2180" data-name="Group 2180" transform="translate(178.99 72.908)">
            <path id="Path_8513" data-name="Path 8513" d="M338.053,196.814v.152c0,.764-.189,1.091-.628,1.091h-4.269c-.439,0-.627-.327-.627-1.091v-.152c0-.764.187-1.091.627-1.091h4.269C337.864,195.723,338.053,196.05,338.053,196.814Z" transform="translate(-332.529 -187.234)" fill="#764582"/>
            <path id="Path_8514" data-name="Path 8514" d="M345.012,193.632c0,3.033-1.675,3.666-3.139,3.666s-3.139-.633-3.139-3.666,1.675-3.666,3.139-3.666S345.012,190.6,345.012,193.632Zm-4.144,0c0,.851.189,1.877,1,1.877s.984-1.026.984-1.877-.168-1.79-.984-1.79S340.868,192.781,340.868,193.632Zm9.98-3.229a.9.9,0,0,1-.1.305l-7.47,14.141a.982.982,0,0,1-.922.61h-.92c-.292,0-.439-.131-.439-.283a.834.834,0,0,1,.1-.327l7.47-14.141a.981.981,0,0,1,.922-.61h.92C350.7,190.1,350.848,190.228,350.848,190.4Zm2.26,11.522c0,3.033-1.674,3.666-3.138,3.666s-3.139-.633-3.139-3.666,1.674-3.667,3.139-3.667S353.109,198.892,353.109,201.925Zm-4.142,0c0,.851.187,1.876,1,1.876s.984-1.025.984-1.876-.168-1.79-.984-1.79S348.967,201.072,348.967,201.925Z" transform="translate(-329.585 -189.966)" fill="#764582"/>
          </g>
          <g id="Group_2182" data-name="Group 2182" transform="translate(194.468 153.233)">
            <rect id="Rectangle_349" data-name="Rectangle 349" width="69.137" height="12.461" rx="3.934" transform="translate(0 16.192)" fill="#fd6141"/>
          </g>
        </g>
        <g id="Group_2186" data-name="Group 2186" transform="translate(0 422.688)">
          <path id="Path_8516" data-name="Path 8516" d="M953.017,484.008H80.13a3.438,3.438,0,0,1-2.146-6.124L208.711,373.459a16.165,16.165,0,0,1,10.073-3.471H814.362a16.165,16.165,0,0,1,10.073,3.471L955.162,477.884A3.438,3.438,0,0,1,953.017,484.008Z" transform="translate(-76.685 -330.651)" fill="#764582" opacity="0.2"/>
          <g id="Group_2185" data-name="Group 2185" transform="translate(6.789 0)">
            <path id="Path_8517" data-name="Path 8517" d="M947.487,453.971H81.289L215.6,346.68a15.688,15.688,0,0,1,9.775-3.369H803.4a15.689,15.689,0,0,1,9.775,3.369Z" transform="translate(-81.289 -343.311)" fill="#e4bce8"/>
            <path id="Path_8518" data-name="Path 8518" d="M833.988,441.288H139.519l97.774-91.47H736.214Z" transform="translate(-53.654 -340.223)" fill="#9d68aa"/>
            <path id="Path_8519" data-name="Path 8519" d="M822.73,440.024H145.295l95.376-87.544H727.355Z" transform="translate(-50.913 -338.959)" fill="#fff"/>
            <path id="Rectangle_350" data-name="Rectangle 350" d="M0,0H866.2a0,0,0,0,1,0,0V14.468a14.316,14.316,0,0,1-14.316,14.316H14.316A14.316,14.316,0,0,1,0,14.468V0A0,0,0,0,1,0,0Z" transform="translate(0 110.66)" fill="#9d68aa"/>
            <line id="Line_2" data-name="Line 2" x2="866.198" transform="translate(0 121.853)" fill="none" stroke="#fff" stroke-miterlimit="10" stroke-width="0.973"/>
            <rect id="Rectangle_351" data-name="Rectangle 351" width="132.574" height="15.132" rx="4.777" transform="translate(165.547 115.137)" fill="#764582"/>
            <rect id="Rectangle_352" data-name="Rectangle 352" width="132.574" height="13.433" rx="4.24" transform="translate(165.547 116.837)" fill="#e4bce8"/>
            <g id="Group_2184" data-name="Group 2184" transform="translate(716.251 22.935)">
              <path id="Path_8520" data-name="Path 8520" d="M567.023,362.33l49.227,43.525h26.357V402.39l-75.583-43.525Z" transform="translate(-567.023 -358.865)" fill="#9d68aa"/>
              <path id="Path_8521" data-name="Path 8521" d="M567.023,358.865l49.227,43.525h26.357l-54.711-43.525Z" transform="translate(-567.023 -358.865)" fill="#fdeeff"/>
            </g>
            <ellipse id="Ellipse_4" data-name="Ellipse 4" cx="20.71" cy="9.015" rx="20.71" ry="9.015" transform="translate(94.381 34.697)" fill="#fff"/>
            <path id="Path_8522" data-name="Path 8522" d="M178.51,374.317c0,3.117-6.493,5.645-14.5,5.645s-14.5-2.527-14.5-5.645,6.494-5.643,14.5-5.643S178.51,371.2,178.51,374.317Z" transform="translate(-48.916 -331.274)" fill="#764582"/>
            <path id="Path_8523" data-name="Path 8523" d="M163.723,372.262c0,1.074-2.238,1.945-5,1.945s-5-.871-5-1.945,2.238-1.946,5-1.946S163.723,371.187,163.723,372.262Z" transform="translate(-46.913 -330.495)" fill="#fff"/>
          </g>
        </g>
        <g id="Group_2193" data-name="Group 2193" transform="translate(105.783 50.062)">
          <g id="Group_2192" data-name="Group 2192">
            <g id="Group_2188" data-name="Group 2188" transform="translate(0 8.398)">
              <g id="Group_2187" data-name="Group 2187">
                <rect id="Rectangle_353" data-name="Rectangle 353" width="516.608" height="42.39" rx="13.382" transform="translate(98.814 0)" fill="#e4bce8"/>
                <circle id="Ellipse_5" data-name="Ellipse 5" cx="21.195" cy="21.195" r="21.195" transform="translate(0 0)" fill="#e4bce8"/>
                <circle id="Ellipse_6" data-name="Ellipse 6" cx="21.195" cy="21.195" r="21.195" transform="translate(49.407)" fill="#e4bce8"/>
              </g>
            </g>
            <path id="Path_8524" data-name="Path 8524" d="M593.237,95.583l7,14.972,16.4,2.034-12.075,11.287L607.7,140.1l-14.466-8-14.466,8,3.134-16.229-12.075-11.287,16.4-2.034Z" transform="translate(51.568 -88.25)" fill="#e4bce8"/>
            <g id="Group_2191" data-name="Group 2191" transform="translate(0 1.066)">
              <g id="Group_2190" data-name="Group 2190">
                <rect id="Rectangle_354" data-name="Rectangle 354" width="516.608" height="42.39" rx="13.382" transform="translate(98.814 0)" fill="#fff" stroke="#764582" stroke-miterlimit="10" stroke-width="0.974"/>
                <g id="Group_2189" data-name="Group 2189" transform="translate(217.51 12.81)">
                  <path id="Path_8526" data-name="Path 8526" d="M309.669,108.112v.184c0,.7-.186.973-.6.973H304.46c-.416,0-.6-.277-.6-.973v-.184c0-.695.186-1,.6-1h4.608C309.483,107.117,309.669,107.418,309.669,108.112Z" transform="translate(-302.166 -96.652)" fill="#a1abad"/>
                  <path id="Path_8527" data-name="Path 8527" d="M315.871,104.758c0,3.172-1.828,3.843-3.38,3.843s-3.358-.671-3.358-3.843,1.783-3.843,3.358-3.843C314.043,100.915,315.871,101.586,315.871,104.758Zm-4.676,0c0,.973.184,2.176,1.3,2.176s1.32-1.2,1.32-2.176-.162-2.129-1.32-2.129C311.38,102.628,311.2,103.786,311.2,104.758Zm11.09-3.473a.654.654,0,0,1-.117.279L313.764,116.8a1.012,1.012,0,0,1-.972.58H312.1c-.324,0-.51-.116-.51-.279a.718.718,0,0,1,.117-.3l8.381-15.234a1.05,1.05,0,0,1,1-.557h.695C322.1,101.006,322.286,101.123,322.286,101.285Zm2.43,12.317c0,3.2-1.828,3.844-3.38,3.844s-3.358-.649-3.358-3.844c0-3.172,1.783-3.843,3.358-3.843C322.887,109.759,324.716,110.43,324.716,113.6Zm-4.677,0c0,.973.186,2.176,1.3,2.176s1.32-1.2,1.32-2.176c0-.948-.162-2.129-1.32-2.129C320.224,111.473,320.038,112.654,320.038,113.6Z" transform="translate(-299.662 -99.595)" fill="#a1abad"/>
                </g>
                <path id="Path_8528" data-name="Path 8528" d="M302.368,119.492H260.793a9.736,9.736,0,0,1-9.737-9.737h0a9.736,9.736,0,0,1,9.737-9.735h41.576a9.736,9.736,0,0,1,9.735,9.735h0A9.736,9.736,0,0,1,302.368,119.492Z" transform="translate(-99.715 -87.21)" fill="#a1abad"/>
                <circle id="Ellipse_7" data-name="Ellipse 7" cx="21.195" cy="21.195" r="21.195" transform="translate(0 0)" fill="#fff" stroke="#764582" stroke-miterlimit="10" stroke-width="0.974"/>
                <circle id="Ellipse_8" data-name="Ellipse 8" cx="21.195" cy="21.195" r="21.195" transform="translate(49.407)" fill="#fff" stroke="#764582" stroke-miterlimit="10" stroke-width="0.974"/>
              </g>
            </g>
            <path id="Path_8529" data-name="Path 8529" d="M593.237,90.61l7,14.972,16.4,2.034L604.569,118.9l3.134,16.229-14.466-8-14.466,8,3.134-16.229-12.075-11.287,16.4-2.034Z" transform="translate(51.568 -90.61)" fill="#ffcc5a" stroke="#764582" stroke-miterlimit="10" stroke-width="0.974"/>
          </g>
          <path id="Path_8530" data-name="Path 8530" d="M168.892,96.947l-13.413,13.285,13.413,13.541,2.555-2.555-10.858-10.986L171.446,99.5Z" transform="translate(-145.074 -87.603)" fill="#764582"/>
          <path id="Path_8531" data-name="Path 8531" d="M195.821,123.773l13.413-13.285L195.821,96.947,193.266,99.5l10.858,10.986-10.858,10.73Z" transform="translate(-127.141 -87.603)" fill="#764582"/>
          <path id="Path_8532" data-name="Path 8532" d="M254.3,122.191l-8.547-8.446a10.886,10.886,0,0,0,1.831-6.063,11.2,11.2,0,0,0-19.046-7.855,10.918,10.918,0,0,0-3.235,7.784,11.208,11.208,0,0,0,11.176,11.058h.046a11.186,11.186,0,0,0,6.124-1.84l8.542,8.445Zm-10.042-14.511a7.645,7.645,0,0,1-2.263,5.44,7.85,7.85,0,0,1-5.484,2.246h-.034a7.865,7.865,0,0,1-7.846-7.753,7.632,7.632,0,0,1,2.262-5.44,7.864,7.864,0,0,1,13.366,5.508Z" transform="translate(-111.935 -87.757)" fill="#764582"/>
          <path id="Path_8533" data-name="Path 8533" d="M550.648,111.07l-4.806,4.832a1.47,1.47,0,0,0,0,2.072,1.451,1.451,0,0,0,2.06,0l4.806-4.832,4.806,4.832a1.451,1.451,0,0,0,2.06,0,1.47,1.47,0,0,0,0-2.072l-4.806-4.832,4.806-4.832a1.47,1.47,0,0,0,0-2.072,1.453,1.453,0,0,0-2.06,0L552.708,109l-4.806-4.834a1.453,1.453,0,0,0-2.06,0,1.47,1.47,0,0,0,0,2.072Zm2.06,15.62a15.62,15.62,0,1,1,15.536-15.62A15.578,15.578,0,0,1,552.708,126.69Z" transform="translate(36.069 -88.313)" fill="#9d68aa" fill-rule="evenodd"/>
        </g>
        <g id="Group_2194" data-name="Group 2194" transform="translate(100.775 142.272)">
          <path id="Path_8534" data-name="Path 8534" d="M202.4,181.819a28.675,28.675,0,1,0-57.349,0h0c0,6.585-1.976,10.891,28.675,65.915C204.5,192.461,202.375,185.212,202.4,181.819Z" transform="translate(-145.027 -153.144)" fill="#fd6141"/>
          <path id="Path_8535" data-name="Path 8535" d="M168.567,189.8a12.67,12.67,0,1,1,12.67-12.67A12.669,12.669,0,0,1,168.567,189.8Z" transform="translate(-139.868 -147.774)" fill="#fff"/>
        </g>
        <path id="Path_8536" data-name="Path 8536" d="M433.057,258.44" transform="translate(92.441 39.099)" fill="#ffb072"/>
        <g id="Group_2231" data-name="Group 2231" transform="translate(191.627 207.057)">
          <g id="Group_2206" data-name="Group 2206" transform="translate(118.414 116.755)">
            <g id="Group_2204" data-name="Group 2204">
              <path id="Path_8537" data-name="Path 8537" d="M324.575,373.165l-11.637,20.152c-2.362,4.092.861,9.024,5.9,9.024h114.4c4.551,0,7.768-4.1,6.338-8.072l-7.25-20.152a6.649,6.649,0,0,0-6.338-4.213H330.471A6.774,6.774,0,0,0,324.575,373.165Z" transform="translate(-274.981 -231.815)" fill="#764582" opacity="0.2"/>
              <g id="Group_2201" data-name="Group 2201" transform="translate(0 0.192)">
                <g id="Group_2195" data-name="Group 2195" transform="translate(52.694 124.439)">
                  <path id="Path_8538" data-name="Path 8538" d="M343,371.589a10.162,10.162,0,1,1-10.161-10.163A10.161,10.161,0,0,1,343,371.589Z" transform="translate(-322.678 -360.469)" fill="#764582"/>
                  <circle id="Ellipse_9" data-name="Ellipse 9" cx="6.11" cy="6.11" r="6.11" transform="translate(4.052 5.009)" fill="#3e2344"/>
                  <path id="Path_8539" data-name="Path 8539" d="M326.917,370.785l3.484-9.19a1.269,1.269,0,0,1,1.186-.818H343.7a1.268,1.268,0,0,1,.93,2.129l-10.912,11.777a3.427,3.427,0,0,1-3.577.927l-1.091-.357A3.426,3.426,0,0,1,326.917,370.785Z" transform="translate(-320.772 -360.777)" fill="#ffdcae"/>
                  <circle id="Ellipse_10" data-name="Ellipse 10" cx="2.34" cy="2.34" r="2.34" transform="translate(7.822 8.779)" fill="#764582"/>
                </g>
                <g id="Group_2196" data-name="Group 2196" transform="translate(128.001 124.439)">
                  <path id="Path_8540" data-name="Path 8540" d="M376.379,371.589a10.162,10.162,0,1,0,10.161-10.163A10.161,10.161,0,0,0,376.379,371.589Z" transform="translate(-372.5 -360.469)" fill="#764582"/>
                  <path id="Path_8541" data-name="Path 8541" d="M379.126,370.285a6.111,6.111,0,1,0,6.111-6.111A6.112,6.112,0,0,0,379.126,370.285Z" transform="translate(-371.196 -359.165)" fill="#3e2344"/>
                  <path id="Path_8542" data-name="Path 8542" d="M391.807,370.785l-3.484-9.19a1.269,1.269,0,0,0-1.186-.818H375.019a1.267,1.267,0,0,0-.93,2.129L385,374.684a3.427,3.427,0,0,0,3.577.927l1.091-.357A3.426,3.426,0,0,0,391.807,370.785Z" transform="translate(-373.748 -360.777)" fill="#ffdcae"/>
                  <circle id="Ellipse_11" data-name="Ellipse 11" cx="2.34" cy="2.34" r="2.34" transform="translate(11.701 8.779)" fill="#764582"/>
                </g>
                <g id="Group_2197" data-name="Group 2197">
                  <path id="Path_8543" data-name="Path 8543" d="M323.221,317.533a1.5,1.5,0,0,1-1.383-.908c-3.445-7.971-9.182-20.967-10.211-22.593-1.539-1.118-13.137-5.25-23.642-8.659a1.505,1.505,0,0,1,0-2.864l18.665-6.049a1.529,1.529,0,0,1,.861-.021c1.786.487,17.542,4.851,20.93,8,2.693,2.5,10.632,19.06,12.2,22.353a1.506,1.506,0,0,1-2.721,1.292c-3.526-7.424-9.772-19.809-11.525-21.439-2.1-1.949-12.724-5.381-19.242-7.183l-13.843,4.486c9.641,3.2,19.612,6.774,20.679,8.2,1.25,1.666,9.063,19.686,10.617,23.281a1.507,1.507,0,0,1-1.382,2.1Z" transform="translate(-286.943 -276.388)" fill="#fd6141"/>
                </g>
                <path id="Path_8544" data-name="Path 8544" d="M308.778,302.517l16.993-10.551,131.039,6.412,3.005,8.215Z" transform="translate(-276.581 -268.995)" fill="#fff" stroke="#fd6141" stroke-linecap="round" stroke-linejoin="round" stroke-width="1.854"/>
                <path id="Path_8545" data-name="Path 8545" d="M307.937,299.3l19.83,65.4a4.532,4.532,0,0,0,4.477,3.215l109.691-3.393a4.532,4.532,0,0,0,4.264-3.464l14.014-57.955Z" transform="translate(-276.98 -265.513)" fill="#fd6141"/>
                <path id="Path_8546" data-name="Path 8546" d="M328.865,326.424c7.087,14.747,22.766,17.72,37.693,16.98,32.047-1.588,60.048-14.1,78.816-40.686L328.69,299.8c-1.724-.025-2.572,11.168-2.657,12.622A28.594,28.594,0,0,0,328.865,326.424Z" transform="translate(-268.414 -265.277)" fill="#ff8976"/>
                <path id="Path_8547" data-name="Path 8547" d="M438.7,379.827a42.658,42.658,0,0,0-6.1-13.429c-1.037-1.407-2.737-3.021-6.718-3.021H335.055c-1.43,0-3.992-.237-5.077-1.826-1.017-1.491-.435-3.843.233-5.555a103.449,103.449,0,0,1,5.092-11.247l-3.549.3A82.277,82.277,0,0,0,327.4,354.9c-1.354,3.473-1.324,6.28.087,8.348s4.018,3.138,7.563,3.138h4.866v2.038a2.289,2.289,0,0,0,2.289,2.289h1.74a2.289,2.289,0,0,0,2.289-2.289v-2.038H406.3v2.038a2.289,2.289,0,0,0,2.288,2.289h1.74a2.289,2.289,0,0,0,2.289-2.289v-2.038h13.273c2.741,0,3.653.926,4.293,1.795a39.963,39.963,0,0,1,5.6,12.375,2.8,2.8,0,0,1-.218,2.414c-.821,1.078-2.9,1.208-3.517,1.221-21.047.472-66.438.212-90.825.074-7.249-.043-12.74-.074-15.356-.074-3.7,0-6.45-1.059-7.749-2.98-1.252-1.852-1.216-4.567.1-7.857,2.9-7.234,11.437-28.781,11.437-28.781l-2.8-1.109S318.325,365,315.424,372.234c-2.159,5.381-1.085,8.769.2,10.663,1.877,2.777,5.515,4.306,10.242,4.306,1.716,0,4.688.013,8.563.034v1.972a2.289,2.289,0,0,0,2.29,2.289h1.738a2.289,2.289,0,0,0,2.29-2.289V387.73l.448-.456c13.9.08,34.611.2,53.77.2,5.2,0,10.282-.009,15.085-.029v1.765a2.289,2.289,0,0,0,2.29,2.289h1.739a2.288,2.288,0,0,0,2.289-2.289v-1.8c6.016-.043,11.4-.108,15.747-.2,1.523-.035,4.31-.392,5.844-2.405A5.6,5.6,0,0,0,438.7,379.827Z" transform="translate(-274.012 -244.554)" fill="#fd6141"/>
                <g id="Group_2198" data-name="Group 2198" transform="translate(33.83 30.107)">
                  <path id="Path_8548" data-name="Path 8548" d="M454.9,302.258,441.3,358.324a3.551,3.551,0,0,1-3.333,2.707l-51.221,1.584q5.959-6.437,11.825-12.961c.288-.321.379-.72.2-.905s-.594-.086-.911.243q-6.326,6.529-12.543,13.161l-.007.009a1.733,1.733,0,0,0-.323.509l-45.218,1.4q6.328-6.828,12.558-13.75c.3-.336.405-.748.227-.933s-.606-.074-.938.271Q345,356.5,338.492,363.444l-.009.009a1.835,1.835,0,0,0-.4.667l-4.088.127a3.555,3.555,0,0,1-3.5-2.513l-9.026-29.76q3.5-3.8,6.9-7.683a.486.486,0,0,0-.711-.662q-3.366,3.382-6.638,6.855l-9.7-31.967-1.441.438,19.172,63.217a5.057,5.057,0,0,0,4.831,3.582h.156l103.972-3.215a5.062,5.062,0,0,0,4.751-3.859l13.594-56.063Z" transform="translate(-309.885 -295.993)" fill="#fff"/>
                  <path id="Path_8549" data-name="Path 8549" d="M323.5,316.061a6.206,6.206,0,0,0,1.056-.911,6.032,6.032,0,0,0,.835-1.118.554.554,0,0,0-.779-.727,6.5,6.5,0,0,0-1.892,2.029.547.547,0,0,0,.024.549A.554.554,0,0,0,323.5,316.061Z" transform="translate(-303.823 -289.013)" fill="#fff"/>
                  <path id="Path_8550" data-name="Path 8550" d="M325.375,313.527a.547.547,0,0,0,.515-.552v-.015a.757.757,0,0,0-.78-.712.566.566,0,0,0-.367.174.573.573,0,0,0-.147.378v.019A.751.751,0,0,0,325.375,313.527Z" transform="translate(-302.904 -289.477)" fill="#fff"/>
                  <path id="Path_8551" data-name="Path 8551" d="M333.891,307.386q4.587-4.667,9.069-9.434l0,0a.684.684,0,0,0-1-.929q-4.441,4.8-8.78,9.706a.486.486,0,0,0,.711.662Z" transform="translate(-298.886 -296.805)" fill="#fff"/>
                  <path id="Path_8552" data-name="Path 8552" d="M332.8,305.588a.573.573,0,0,0,.369-.174.58.58,0,0,0,.147-.379v-.018a.753.753,0,0,0-.779-.709.573.573,0,0,0-.367.174.559.559,0,0,0-.147.379v.015A.755.755,0,0,0,332.8,305.588Z" transform="translate(-299.378 -293.245)" fill="#fff"/>
                  <path id="Path_8553" data-name="Path 8553" d="M331.677,306.8a.565.565,0,0,0,.367-.172.58.58,0,0,0,.147-.379l0-.019a.752.752,0,0,0-.779-.708.566.566,0,0,0-.367.174.558.558,0,0,0-.147.378v.015A.754.754,0,0,0,331.677,306.8Z" transform="translate(-299.913 -292.67)" fill="#fff"/>
                  <path id="Path_8554" data-name="Path 8554" d="M330.548,308.009a.559.559,0,0,0,.367-.174.573.573,0,0,0,.147-.379v-.018a.751.751,0,0,0-.779-.708.547.547,0,0,0-.515.551v.015A.756.756,0,0,0,330.548,308.009Z" transform="translate(-300.449 -292.095)" fill="#fff"/>
                  <path id="Path_8555" data-name="Path 8555" d="M326.706,313.465a29.148,29.148,0,0,0,2.2-2.135,29.7,29.7,0,0,0,1.976-2.339.538.538,0,0,0-.78-.727,29.409,29.409,0,0,0-2.2,2.134,29.089,29.089,0,0,0-1.976,2.339.539.539,0,0,0,.78.728Z" transform="translate(-302.32 -291.425)" fill="#fff"/>
                  <path id="Path_8556" data-name="Path 8556" d="M339.478,333.655c.12.3.553.28.969-.05a19.884,19.884,0,0,0,1.823-1.734,19.671,19.671,0,0,0,1.6-1.939.9.9,0,0,0,.189-.776c-.119-.3-.553-.282-.969.049a21.134,21.134,0,0,0-3.424,3.673A.9.9,0,0,0,339.478,333.655Z" transform="translate(-295.856 -281.554)" fill="#fff"/>
                  <path id="Path_8557" data-name="Path 8557" d="M343.818,329a1.594,1.594,0,0,0,.577-.4,1.553,1.553,0,0,0,.355-.6l.006-.022c.136-.577-.217-.892-.784-.7a1.619,1.619,0,0,0-.932,1l-.007.027C342.9,328.87,343.25,329.184,343.818,329Z" transform="translate(-294.168 -282.373)" fill="#fff"/>
                  <path id="Path_8558" data-name="Path 8558" d="M359.286,317.9q8.2-8.547,16.3-17.194l.007-.007c.457-.492.6-1.1.324-1.355s-.874-.063-1.331.431q-8.06,8.682-16.012,17.463c-.307.339-.411.754-.23.939S358.955,318.245,359.286,317.9Z" transform="translate(-286.929 -295.654)" fill="#fff"/>
                  <path id="Path_8559" data-name="Path 8559" d="M357.261,314.61a1.639,1.639,0,0,0,.932-1l.006-.027c.134-.575-.218-.889-.786-.7a1.619,1.619,0,0,0-.932,1l-.006.021C356.341,314.481,356.692,314.8,357.261,314.61Z" transform="translate(-287.788 -289.201)" fill="#fff"/>
                  <path id="Path_8560" data-name="Path 8560" d="M355.217,316.8a1.639,1.639,0,0,0,.932-1l.006-.027c.134-.575-.218-.889-.786-.7a1.619,1.619,0,0,0-.932,1l-.006.021C354.3,316.673,354.648,316.988,355.217,316.8Z" transform="translate(-288.758 -288.16)" fill="#fff"/>
                  <path id="Path_8561" data-name="Path 8561" d="M353.173,318.994a1.57,1.57,0,0,0,.575-.4,1.586,1.586,0,0,0,.357-.6l.006-.027c.134-.575-.218-.889-.786-.7a1.619,1.619,0,0,0-.932,1l-.006.021C352.253,318.865,352.6,319.18,353.173,318.994Z" transform="translate(-289.728 -287.12)" fill="#fff"/>
                  <path id="Path_8562" data-name="Path 8562" d="M346.241,328.894c1.351-1.265,2.616-2.608,3.887-3.947,1.246-1.362,2.5-2.718,3.666-4.152.271-.332.375-.721.227-.93-.173-.248-.622-.156-1.006.2-1.351,1.265-2.614,2.61-3.887,3.947-1.246,1.363-2.5,2.718-3.666,4.152-.27.332-.373.72-.227.93C345.408,329.344,345.858,329.254,346.241,328.894Z" transform="translate(-293.14 -285.928)" fill="#fff"/>
                  <path id="Path_8563" data-name="Path 8563" d="M371.736,333.164a19.21,19.21,0,0,0,3.271-3.507.858.858,0,0,0,.167-.754c-.124-.3-.549-.286-.947.027a17.957,17.957,0,0,0-1.746,1.65,18.344,18.344,0,0,0-1.525,1.856.868.868,0,0,0-.168.755C370.913,333.49,371.338,333.477,371.736,333.164Z" transform="translate(-280.998 -281.674)" fill="#fff"/>
                  <path id="Path_8564" data-name="Path 8564" d="M374.957,328.766a1.49,1.49,0,0,0,.889-.954l0-.021c.119-.56-.232-.876-.783-.706a1.437,1.437,0,0,0-.556.375,1.457,1.457,0,0,0-.335.58l-.006.026C374.053,328.623,374.406,328.937,374.957,328.766Z" transform="translate(-279.387 -282.457)" fill="#fff"/>
                  <path id="Path_8565" data-name="Path 8565" d="M389.723,318.17q7.839-8.155,15.573-16.411l.006-.007c.437-.47.566-1.059.288-1.315s-.857-.081-1.295.391q-7.693,8.29-15.283,16.68c-.292.323-.385.725-.2.911S389.406,318.5,389.723,318.17Z" transform="translate(-272.474 -295.137)" fill="#fff"/>
                  <path id="Path_8566" data-name="Path 8566" d="M387.792,315.03a1.485,1.485,0,0,0,.891-.956l.006-.025c.118-.557-.234-.871-.786-.7a1.475,1.475,0,0,0-.554.375,1.435,1.435,0,0,0-.335.581l0,.019C386.889,314.883,387.24,315.2,387.792,315.03Z" transform="translate(-273.295 -288.976)" fill="#fff"/>
                  <path id="Path_8567" data-name="Path 8567" d="M385.841,317.123a1.459,1.459,0,0,0,.554-.375,1.435,1.435,0,0,0,.335-.581l.006-.025c.118-.557-.233-.871-.784-.7a1.482,1.482,0,0,0-.556.375,1.445,1.445,0,0,0-.335.581l0,.019C384.937,316.976,385.288,317.293,385.841,317.123Z" transform="translate(-274.221 -287.983)" fill="#fff"/>
                  <path id="Path_8568" data-name="Path 8568" d="M383.889,319.216a1.495,1.495,0,0,0,.891-.956l.006-.025c.116-.557-.234-.871-.786-.7a1.475,1.475,0,0,0-.554.375,1.455,1.455,0,0,0-.336.581l0,.021C382.985,319.069,383.336,319.386,383.889,319.216Z" transform="translate(-275.148 -286.99)" fill="#fff"/>
                  <path id="Path_8569" data-name="Path 8569" d="M377.271,328.667c1.293-1.2,2.5-2.488,3.716-3.765,1.189-1.3,2.384-2.6,3.495-3.97a.821.821,0,0,0,.2-.9c-.176-.245-.613-.167-.981.176-1.293,1.2-2.5,2.488-3.716,3.765-1.19,1.3-2.386,2.6-3.5,3.97a.82.82,0,0,0-.2.9C376.464,329.088,376.9,329.01,377.271,328.667Z" transform="translate(-278.405 -285.85)" fill="#fff"/>
                </g>
                <path id="Path_8570" data-name="Path 8570" d="M334.949,377.231l5.342-18.9h56.632l3.087,18.9Z" transform="translate(-264.16 -237.501)" fill="#ff8976"/>
                <g id="Group_2199" data-name="Group 2199" transform="translate(44.127 145.33)">
                  <circle id="Ellipse_12" data-name="Ellipse 12" cx="11.94" cy="11.94" r="11.94" transform="translate(0 1.126)" fill="#764582"/>
                  <path id="Path_8571" data-name="Path 8571" d="M334.455,386.115a7.18,7.18,0,1,1-7.18-7.178A7.18,7.18,0,0,1,334.455,386.115Z" transform="translate(-315.336 -373.051)" fill="#3e2344"/>
                  <path id="Path_8572" data-name="Path 8572" d="M321.849,386.7l4.093-10.8a1.489,1.489,0,0,1,1.393-.961h14.237a1.489,1.489,0,0,1,1.093,2.5l-12.821,13.839a4.024,4.024,0,0,1-4.2,1.09l-1.283-.42A4.022,4.022,0,0,1,321.849,386.7Z" transform="translate(-314.629 -374.945)" fill="#ffdcae"/>
                  <path id="Path_8573" data-name="Path 8573" d="M328.6,384.69a2.75,2.75,0,1,1-2.75-2.749A2.75,2.75,0,0,1,328.6,384.69Z" transform="translate(-313.91 -371.625)" fill="#764582"/>
                </g>
                <g id="Group_2200" data-name="Group 2200" transform="translate(130.785 145.33)">
                  <circle id="Ellipse_13" data-name="Ellipse 13" cx="11.94" cy="11.94" r="11.94" transform="translate(4.558 1.126)" fill="#764582"/>
                  <path id="Path_8574" data-name="Path 8574" d="M381.955,386.115a7.179,7.179,0,1,0,7.18-7.178A7.18,7.18,0,0,0,381.955,386.115Z" transform="translate(-372.637 -373.051)" fill="#3e2344"/>
                  <path id="Path_8575" data-name="Path 8575" d="M396.854,386.7l-4.095-10.8a1.486,1.486,0,0,0-1.392-.961H377.128a1.489,1.489,0,0,0-1.093,2.5l12.821,13.839a4.026,4.026,0,0,0,4.2,1.09l1.281-.42A4.022,4.022,0,0,0,396.854,386.7Z" transform="translate(-375.636 -374.945)" fill="#ffdcae"/>
                  <path id="Path_8576" data-name="Path 8576" d="M384.959,384.69a2.749,2.749,0,1,0,2.75-2.749A2.75,2.75,0,0,0,384.959,384.69Z" transform="translate(-371.211 -371.625)" fill="#764582"/>
                </g>
              </g>
              <g id="Group_2203" data-name="Group 2203" transform="translate(146.204)">
                <circle id="Ellipse_14" data-name="Ellipse 14" cx="27.016" cy="27.016" r="27.016" transform="matrix(0.228, -0.974, 0.974, 0.228, 0, 52.609)" fill="#ffd25a"/>
                <g id="Group_2202" data-name="Group 2202" transform="translate(24.103 17.057)">
                  <path id="Path_8577" data-name="Path 8577" d="M415.814,288.841v23.832h4.528c.889,0,1.271.634,1.271,2.116v.72c0,1.48-.382,2.116-1.271,2.116H403.92c-.889,0-1.27-.636-1.27-2.116v-.72c0-1.482.38-2.116,1.27-2.116h5.63V293.666l-5.757.848c-1.1,0-1.355-2.371-1.355-3.557a1.16,1.16,0,0,1,1.1-1.186l10.54-1.946C414.757,287.825,415.814,288.332,415.814,288.841Z" transform="translate(-402.438 -287.825)" fill="#764582"/>
                </g>
              </g>
            </g>
            <g id="Group_2205" data-name="Group 2205" transform="translate(68.967 5.94)">
              <path id="Path_8578" data-name="Path 8578" d="M334.709,285.181v21.282l50.256,1.309V283Z" transform="translate(-333.241 -278.997)" fill="#ffbe57"/>
              <path id="Path_8579" data-name="Path 8579" d="M368.79,283v24.77l23.951.766V287.332Z" transform="translate(-317.067 -278.997)" fill="#f99441"/>
              <path id="Path_8580" data-name="Path 8580" d="M333.714,282.443l52.892-2.157V287.2l-52.892,2.2Z" transform="translate(-333.714 -280.286)" fill="#ffd25a"/>
              <path id="Path_8581" data-name="Path 8581" d="M369.583,287.2l24.523,4.2v-6.558l-24.523-4.559Z" transform="translate(-316.691 -280.286)" fill="#ffbe57"/>
            </g>
          </g>
          <g id="Group_2207" data-name="Group 2207" transform="translate(0 270.961)">
            <ellipse id="Ellipse_15" data-name="Ellipse 15" cx="72.682" cy="4.182" rx="72.682" ry="4.182" fill="#764582" opacity="0.2"/>
          </g>
          <g id="Group_2230" data-name="Group 2230" transform="translate(4.492)">
            <g id="Group_2212" data-name="Group 2212" transform="translate(64.293 123.952)">
              <g id="Group_2210" data-name="Group 2210" transform="translate(38.939 91.856)">
                <path id="Path_8582" data-name="Path 8582" d="M279.749,354.784c1.174,11.683,10.993,28.776,14.8,38.311,1.122,2.808,6.438,1.239,5.836-1.725-2.047-10.1-3.452-30.546-4.387-40.976C294.9,338.113,278.631,343.664,279.749,354.784Z" transform="translate(-279.694 -343.431)" fill="#ffb072"/>
                <g id="Group_2209" data-name="Group 2209" transform="translate(14.675 46.566)">
                  <path id="Path_8583" data-name="Path 8583" d="M289.976,378.065a10.85,10.85,0,0,0,.8,7.535c-.351.158-.087,1.6.546,1.9.745.36,6.131.271,7.225-.582a1.161,1.161,0,0,0-.035-.966s1.348.51,5.18-.212a19.482,19.482,0,0,0,7.376-2.778c.453-.286.139-1.308-.369-1.143,0,0-.329-2.66-2.554-2.516a16.726,16.726,0,0,1-10.16-2.971,8.406,8.406,0,0,0-3.032-1.317A5.166,5.166,0,0,0,289.976,378.065Z" transform="translate(-289.646 -375.011)" fill="#ed0c37"/>
                  <g id="Group_2208" data-name="Group 2208" clip-path="url(#clip-path)">
                    <path id="Path_8584" data-name="Path 8584" d="M290.893,383.891a42.916,42.916,0,0,0,7.75-.121s8.734-.153,12.173-3.658,6.411.229,6.411.229l-14.293,11.382-9.336-.731-4.17-3.518S289.085,383.684,290.893,383.891Z" transform="translate(-289.761 -373.302)" fill="#ffaec1"/>
                    <path id="Path_8585" data-name="Path 8585" d="M289.579,378.716a3.614,3.614,0,0,0,3.824,1.638c2.57-.544,2.831-2.123,2.249-4.872S286.879,374.549,289.579,378.716Z" transform="translate(-289.936 -375.409)" fill="#ffb072"/>
                  </g>
                </g>
              </g>
              <g id="Group_2211" data-name="Group 2211">
                <path id="Path_8587" data-name="Path 8587" d="M254.061,300.741s16.793,30.21,22.341,42.556,12.566,42.836,12.566,42.836,13.809,2.9,21.044-3.573c0,0-2.318-32.171-6.258-46.619s-18.914-49.913-18.914-49.913C278.827,273.3,248.048,288.008,254.061,300.741Z" transform="translate(-253.287 -281.138)" fill="#552f5e"/>
                <path id="Path_8588" data-name="Path 8588" d="M263.129,316.941a57.071,57.071,0,0,1,4.744-11.462c2.961-5.18,10.108-9.247,10.893-8.616,1.349,1.085-9.316,9.005-11.381,14.724,0,0,11.872-8.635,12.7-7.5C280.853,305.153,267.8,312.278,263.129,316.941Z" transform="translate(-248.616 -273.706)" fill="#3e2344"/>
              </g>
            </g>
            <g id="Group_2213" data-name="Group 2213" transform="translate(76.656 52.082)">
              <path id="Path_8589" data-name="Path 8589" d="M262.05,249.405c2.772,12.768,7.072,29.783,16.549,38.09s30.053,12.916,31.032,12.916c2.291.528,4.747-11.567,2.93-12.964s-18-7.933-20.874-10.705c-5.136-4.953-2.948-35.12-8.763-41.7S258.819,234.522,262.05,249.405Z" transform="translate(-261.671 -232.399)" fill="#dd4026"/>
              <path id="Path_8590" data-name="Path 8590" d="M299.837,271.574s7.214,5.994,7.641,7.627.255,4.322-.335,5-5,2.89-6.68,1.734a29.5,29.5,0,0,1-4-3.791l.795-2.951s-.541,2.022-4.912-.718S295.686,267.432,299.837,271.574Z" transform="translate(-247.731 -214.347)" fill="#f29353"/>
            </g>
            <g id="Group_2218" data-name="Group 2218" transform="translate(0 124.231)">
              <g id="Group_2216" data-name="Group 2216" transform="translate(0 91.577)">
                <path id="Path_8591" data-name="Path 8591" d="M236.03,346.112c-8.7,7.886-16.617,25.939-22.024,34.669-1.591,2.572,2.828,5.914,4.856,3.67,6.907-7.644,22.521-20.923,30.357-27.869C258.442,348.4,244.311,338.608,236.03,346.112Z" transform="translate(-207.796 -343.431)" fill="#ffb072"/>
                <g id="Group_2215" data-name="Group 2215" transform="translate(0 36.37)">
                  <path id="Path_8592" data-name="Path 8592" d="M216.869,368.195a10.85,10.85,0,0,0-5.881,4.779c-.323-.208-1.386.8-1.3,1.494.1.821,3.116,5.289,4.428,5.74a1.159,1.159,0,0,0,.79-.557s.307,1.41,3,4.228a19.482,19.482,0,0,0,6.35,4.67c.485.223,1.172-.6.756-.933,0,0,2.051-1.725.717-3.513a16.738,16.738,0,0,1-3.048-10.136,8.39,8.39,0,0,0-.547-3.26A5.169,5.169,0,0,0,216.869,368.195Z" transform="translate(-209.685 -368.096)" fill="#ed0c37"/>
                  <g id="Group_2214" data-name="Group 2214" clip-path="url(#clip-path-2)">
                    <path id="Path_8593" data-name="Path 8593" d="M212.01,371.589a42.9,42.9,0,0,0,4.328,6.432s4.888,7.237,9.7,8.209,3.3,5.5,3.3,5.5l-17.334-5.777-4.477-8.225.675-5.413S211.2,369.959,212.01,371.589Z" transform="translate(-210.707 -366.711)" fill="#ffaec1"/>
                    <path id="Path_8594" data-name="Path 8594" d="M214.272,368.406a3.616,3.616,0,0,0,.711,4.1c1.856,1.857,3.324,1.215,5.31-.771S216.293,363.87,214.272,368.406Z" transform="translate(-207.675 -368.745)" fill="#ffb072"/>
                  </g>
                </g>
              </g>
              <g id="Group_2217" data-name="Group 2217" transform="translate(26.747)">
                <path id="Path_8596" data-name="Path 8596" d="M248.36,289.318s2.327,44.3-2.645,55.9S227.824,375.7,227.824,375.7a19.883,19.883,0,0,0,16.644,12.569s19.753-13.913,27.5-34.984,14.247-44.262,11.109-61.446C281.317,282.191,250.854,275.2,248.36,289.318Z" transform="translate(-227.824 -281.327)" fill="#764582"/>
                <path id="Path_8597" data-name="Path 8597" d="M253.518,286.469s.283,36.885-1.439,51.157c-1.671,13.852-22.958,39.342-22.958,39.342" transform="translate(-227.208 -278.887)" fill="none" stroke="#fff" stroke-miterlimit="10" stroke-width="0.499"/>
              </g>
            </g>
            <g id="Group_2228" data-name="Group 2228" transform="translate(42.597)">
              <g id="Group_2226" data-name="Group 2226" transform="translate(2.248)">
                <path id="Path_8598" data-name="Path 8598" d="M292.124,239.412c3.411,6.789-2.676,32.562-2.676,43.82,0,9.156,1.5,24.465,2.859,30.242a3.592,3.592,0,0,1-1.688,3.922,44.317,44.317,0,0,1-16.605,5.142c-16.673,1.6-24.727-1.318-28.517-2.753a4.628,4.628,0,0,1-2.948-5.018c.842-5.63,3.216-19.4,1.183-32.072-2.66-16.58-7-39.131.776-46.091s22.343-11.291,22.343-11.291S287.908,231.028,292.124,239.412Z" transform="translate(-240.098 -183.679)" fill="#fff"/>
                <g id="Group_2225" data-name="Group 2225" transform="translate(17.952)">
                  <path id="Path_8599" data-name="Path 8599" d="M264.592,231.289s-3.74-.624-8.87-7c-3.362-4.179-8.038-23.08,6.787-25.941s19.192,7.161,19.87,13.712-6.678,11.954-10.007,14.318S264.592,231.289,264.592,231.289Z" transform="translate(-252.272 -196.713)" fill="#3e2344"/>
                  <path id="Path_8600" data-name="Path 8600" d="M260.769,215.363a43.653,43.653,0,0,1-2.141,10.192c-1.691,4.468-3.5,5.839-5.637,7.737s8.519,13.212,18,16.082c0,0,6.879-8.379,3.725-13.049s-5.652-5.081-4.522-11.317c.984-5.435,1.572-8.449,1.572-8.449Z" transform="translate(-252.062 -188.401)" fill="#ffb072"/>
                  <g id="Group_2224" data-name="Group 2224" transform="translate(3.228)">
                    <g id="Group_2220" data-name="Group 2220" transform="translate(0 7.229)">
                      <g id="Group_2219" data-name="Group 2219">
                        <path id="Path_8601" data-name="Path 8601" d="M259.94,221.714s-.478,4.233,1.228,6.047,4.758,6.2,11.721,5.686c9.3-.678,5.687-15.436,5.687-15.436a32.737,32.737,0,0,0,0-10.341c-.972-4.663-10.179-7.106-17.676-4.822,0,0-2.153,2.048-1.327,11.211a2.8,2.8,0,0,0-3.558-.478c-1.652.9-1.826,3.029-1.265,5.036C255.422,221.025,257.933,223.1,259.94,221.714Z" transform="translate(-254.462 -201.981)" fill="#ffb072" fill-rule="evenodd"/>
                      </g>
                      <path id="Path_8602" data-name="Path 8602" d="M258.716,216.583l-.818-2.178,1.4-.578s-.907-4.071-3.176-2.57C254.253,212.49,256.385,217.412,258.716,216.583Z" transform="translate(-254.013 -197.737)" fill="#e57e55"/>
                    </g>
                    <path id="Path_8603" data-name="Path 8603" d="M258.576,212.563a58.071,58.071,0,0,0-.777,8.278c.139,2.554,2.657,10.5,14.3,9.8,11.565-.7,7.423-13.239,5.465-14.1a3.454,3.454,0,0,1-1.155,2.765,3.082,3.082,0,0,0-3.729-1.606c-1.656-.936-3.555-.355-5.553.836l-1.439,1.009c-3.6-.888-5.465-3.253-5.917-6.824Z" transform="translate(-252.885 -189.73)" fill="#3e2344"/>
                    <path id="Path_8604" data-name="Path 8604" d="M265.113,217.444s6.114,0,6.26.414-.728,1.247-3.131,1.247A3.274,3.274,0,0,1,265.113,217.444Z" transform="translate(-249.407 -187.414)" fill="#fff" stroke="#e57e55" stroke-miterlimit="10" stroke-width="0.276"/>
                    <g id="Group_2221" data-name="Group 2221" transform="translate(11.03 17.995)">
                      <path id="Path_8605" data-name="Path 8605" d="M266.618,212.666c-.043.516-.721.553-1.547.484s-1.489-.218-1.447-.734.749-.879,1.575-.81S266.662,212.15,266.618,212.666Z" transform="translate(-261.144 -208.183)" fill="#3e2344"/>
                      <path id="Path_8606" data-name="Path 8606" d="M261.942,211.3a28.918,28.918,0,0,1,3.107-.737c.754.009,3.6.463,3.838.186a4.044,4.044,0,0,0,.426-1.231,30.833,30.833,0,0,0-4.674-.174A5.338,5.338,0,0,0,261.942,211.3Z" transform="translate(-261.942 -209.282)" fill="#3e2344"/>
                    </g>
                    <g id="Group_2222" data-name="Group 2222" transform="translate(20.384 18.396)">
                      <path id="Path_8607" data-name="Path 8607" d="M271.756,213.1c-.044.516-.721.553-1.548.484s-1.488-.218-1.445-.734.748-.879,1.575-.81S271.8,212.58,271.756,213.1Z" transform="translate(-268.059 -208.38)" fill="#3e2344"/>
                      <path id="Path_8608" data-name="Path 8608" d="M273.036,212.35c.007.08-1.02-1.228-1.532-1.326s-2.98.114-3.1-.193a5.56,5.56,0,0,1-.117-1.277,20.855,20.855,0,0,1,3.806.562A3.559,3.559,0,0,1,273.036,212.35Z" transform="translate(-268.285 -209.554)" fill="#3e2344"/>
                    </g>
                    <g id="Group_2223" data-name="Group 2223" transform="translate(17.957 19.576)">
                      <path id="Path_8609" data-name="Path 8609" d="M268.507,216.2s-1.911-.065-1.867-.588,4.043-1.1,4.264-.721S269.367,215.964,268.507,216.2Z" transform="translate(-266.639 -208.257)" fill="#e57e55" opacity="0.5"/>
                      <path id="Path_8610" data-name="Path 8610" d="M268.244,210.354a9.64,9.64,0,0,0-.273,3.257c.288.863,2.041,2.806,2.079,3.216s-1.988,1.414-2.137,1.475,2.886-.406,2.8-1.348-2.343-3.3-2.424-3.768S268.244,210.354,268.244,210.354Z" transform="translate(-266.046 -210.354)" fill="#e57e55"/>
                    </g>
                    <path id="Path_8611" data-name="Path 8611" d="M260.733,220.615c.594-.4,1.569-3.857.532-7.183a4.142,4.142,0,0,1,3.077-5.363c1.9-.206,8.045,1.538,10.477,1.24,5.331-.655,9.461-2.228,9.452-3.212s-3.911.037-3.911.037,5.943-1.516,5.4-6.488a24.359,24.359,0,0,1-8.457-1.04c-3.99-1.367-13.544-2.954-18.625.82-3.325,2.468-5.686,10.517-1.281,14.609C259.409,215.9,259.6,221.383,260.733,220.615Z" transform="translate(-254.21 -197.079)" fill="#3e2344"/>
                  </g>
                </g>
                <path id="Path_8612" data-name="Path 8612" d="M268.947,234.951s-2.539,50.442-1.98,55.19-.363,22.977,11.151,26.485c0,0-5.146-26.315-4.418-42.124S268.947,234.951,268.947,234.951Z" transform="translate(-227.385 -179.105)" fill="#a1abad" fill-rule="evenodd" opacity="0.7" style="mix-blend-mode: multiply;isolation: isolate"/>
              </g>
              <path id="Path_8613" data-name="Path 8613" d="M265.79,227.208a128.7,128.7,0,0,1,4.679,36.388c-.276,20.591-1.112,62.83,14.128,61.85,0,0-6.423-25.948-6.031-35.375s5.5-44.071,3.62-50.007C279.471,231.464,265.79,227.208,265.79,227.208Z" transform="translate(-225.657 -182.78)" fill="#fd6141"/>
              <g id="Group_2227" data-name="Group 2227" transform="translate(0 43.685)">
                <path id="Path_8614" data-name="Path 8614" d="M261.217,226.7s10.275,16.077,13.566,43.326c1.57,12.99-.19,33.575-2.151,46.719-2.258,15.132-31.877,15.109-33.778,11.14s6.584-29.1,3.94-43.382-4.207-37.6-1.048-45.269S261.217,226.7,261.217,226.7Z" transform="translate(-238.573 -226.704)" fill="#fd6141"/>
                <path id="Path_8615" data-name="Path 8615" d="M243.964,245.221s5.04,24.314,4.4,37.183-4.745,38.871-4.745,38.871" transform="translate(-236.18 -217.916)" fill="none" stroke="#fff" stroke-linecap="round" stroke-linejoin="round" stroke-width="0.499"/>
                <path id="Path_8616" data-name="Path 8616" d="M241.876,238.011a24.2,24.2,0,0,0-1.34,6.358c2.777,21.206,14.7,44.972,33.023,53.5.6-6.889.969-14.16.87-20.687-12.274-12.224-21.66-28.114-28.844-43.777A12.425,12.425,0,0,0,241.876,238.011Z" transform="translate(-237.642 -223.522)" fill="#dd4026"/>
              </g>
            </g>
            <g id="Group_2229" data-name="Group 2229" transform="translate(44.885 50.16)">
              <path id="Path_8617" data-name="Path 8617" d="M292.057,274.134s9.132,2.137,10.245,3.4,2.982,5.609,2.759,6.484-5.05,2.781-7.074,2.5a15.622,15.622,0,0,1-4.225-1.422c.3-1.076.221-2.044-.9-2.392-1.186-.369-2.445.271-4.511,1.2C283.649,286.027,286.492,272.285,292.057,274.134Z" transform="translate(-218.363 -210.751)" fill="#ffb072"/>
              <path id="Path_8618" data-name="Path 8618" d="M240.594,250.279c2.455,13.609,19.858,33.908,27.306,40.3,6.528,5.6,38.764,15.106,40.185,15.181,3.3.7,7.506-11.186,4.94-12.723s-31.3-14.756-34.411-18.215-14.522-34.19-22.626-41.207S237.822,234.92,240.594,250.279Z" transform="translate(-240.124 -231.095)" fill="#ff8976"/>
            </g>
          </g>
        </g>
        <g id="Group_2234" data-name="Group 2234" transform="translate(733.045 229.821)">
          <g id="Group_2232" data-name="Group 2232">
            <path id="Path_8619" data-name="Path 8619" d="M606.659,237.212c13.212-19.041,26.84-14.909,31.848-6.883s1.395,19.948-9.033,29.8c-7.481,7.5-22.456,12.718-34.484,15.582-8.414-9.06-17.969-21.719-20.029-32.106-3.2-13.986.411-25.908,9.033-29.8S606.242,214.041,606.659,237.212Z" transform="translate(-573.807 -212.516)" fill="#fd6141" fill-rule="evenodd"/>
          </g>
          <g id="Group_2233" data-name="Group 2233" transform="translate(3.226 11.086)" opacity="0.5">
            <path id="Path_8620" data-name="Path 8620" d="M637.468,226.761c-4.276-6.854-14.84-10.854-26.062-.024,9.557-7.535,23.257-7.678,24.456,6.1,1.258,14.471-10.341,24.361-23.7,21.834-17.53-3.316-13.219-18.018-21.548-25.211-6.513-5.478-14.237,2.8-14.582,9.591a40.433,40.433,0,0,0,.69,9.085c3.949,8.374,10.909,17.205,17.226,24.008,12.028-2.864,27-8.087,34.484-15.582C638.863,246.709,642.476,234.787,637.468,226.761Z" transform="translate(-575.995 -220.034)" fill="#dd4026" fill-rule="evenodd"/>
          </g>
        </g>
        <g id="Group_2259" data-name="Group 2259" transform="translate(527.25 197.459)">
          <ellipse id="Ellipse_16" data-name="Ellipse 16" cx="72.682" cy="4.182" rx="72.682" ry="4.182" transform="translate(4.334 279.098)" fill="#764582" opacity="0.2"/>
          <g id="Group_2258" data-name="Group 2258">
            <g id="Group_2257" data-name="Group 2257">
              <g id="Group_2244" data-name="Group 2244" transform="translate(56.443 92.944)">
                <g id="Group_2238" data-name="Group 2238" transform="translate(1.019 9.437)">
                  <g id="Group_2237" data-name="Group 2237" transform="translate(18.851 163.766)">
                    <g id="Group_2236" data-name="Group 2236">
                      <path id="Path_8621" data-name="Path 8621" d="M500.085,371.821a41.608,41.608,0,0,1,3.521,3.389c.5.739,2.442,6.227,2.442,6.227a4.683,4.683,0,0,1-3.035,2.1l-2.445-3.147s-1.252,5.5-2.514,7.287c-1.526,2.159-10.279,4.649-11.587,3.993,0,0-1.609-3.206,1.134-4.965,5.065-3.247,5.189-10.058,5.189-10.058A4.767,4.767,0,0,1,500.085,371.821Z" transform="translate(-485.998 -371.059)" fill="#fd6141"/>
                      <g id="Group_2235" data-name="Group 2235" clip-path="url(#clip-path-3)">
                        <path id="Path_8622" data-name="Path 8622" d="M485.617,389.848c.155-.081,11.2-1.568,12.5-4.826,1.022-2.549,1.7-6.849,2.292-7.352s3.374-3.8,3.374-3.8l4.419,7.7-16.629,13.992Z" transform="translate(-486.179 -369.723)" fill="#dd4026"/>
                      </g>
                    </g>
                    <path id="Path_8624" data-name="Path 8624" d="M489.343,380.7l1.509.32a5.12,5.12,0,0,0,.972-2.791l-1.472-.515a.519.519,0,0,0-.658.31l-.73,1.992A.519.519,0,0,0,489.343,380.7Z" transform="translate(-484.605 -367.917)" fill="#f7b614"/>
                  </g>
                  <path id="Path_8625" data-name="Path 8625" d="M486.745,272.167c-.035-.528-14.019,61.736-13.517,78.477.313,10.43,19.809,58.427,25.63,78.707,1.116,3.891,7.168-.675,6.693-4.713-2.281-19.416-2.138-29.63-10.708-71.821-1.334-6.571,22.245-65.467,20.38-79.264S494.11,252.244,486.745,272.167Z" transform="translate(-473.214 -260)" fill="#ffb072"/>
                  <path id="Path_8626" data-name="Path 8626" d="M515.208,273.553c-1.865-13.8-21.112-21.309-28.477-1.386-.034-.5-12.69,55.823-13.489,75.72,6.288-4.773,14.647-2.259,21.877,1.541C497.9,335.062,516.891,285.991,515.208,273.553Z" transform="translate(-473.201 -260)" fill="#ffbe57" opacity="0.5" style="mix-blend-mode: multiply;isolation: isolate"/>
                </g>
                <g id="Group_2242" data-name="Group 2242" transform="translate(28.347 9.213)">
                  <g id="Group_2241" data-name="Group 2241" transform="translate(7.616 166.851)">
                    <g id="Group_2240" data-name="Group 2240">
                      <path id="Path_8627" data-name="Path 8627" d="M515,374.95a41.5,41.5,0,0,1,2.087,4.419c.2.867.068,6.687.068,6.687a4.667,4.667,0,0,1-3.58.882l-1.168-3.81s-1.8,3.72-3.616,4.941c-2.194,1.475-10.009,3.284-11.323,2.638,0,0-1.8-3.486,1.1-4.974,7.259-3.723,7.9-8.868,7.9-8.868A4.768,4.768,0,0,1,515,374.95Z" transform="translate(-496.912 -373)" fill="#fd6141"/>
                      <g id="Group_2239" data-name="Group 2239" clip-path="url(#clip-path-4)">
                        <path id="Path_8628" data-name="Path 8628" d="M496.682,388.31c.174-.021,9.105-.871,11.252-2.585s4.024-5.8,4.757-6.059,4.5-2.348,4.5-2.348l1.395,8.763-20.517,7.168Z" transform="translate(-497.021 -370.95)" fill="#dd4026"/>
                      </g>
                    </g>
                    <path id="Path_8630" data-name="Path 8630" d="M500.671,380.87l1.3.838a5.126,5.126,0,0,0,1.9-2.263l-1.193-1.006a.516.516,0,0,0-.724.056l-1.391,1.6A.517.517,0,0,0,500.671,380.87Z" transform="translate(-495.24 -370.477)" fill="#f7b614"/>
                  </g>
                  <path id="Path_8631" data-name="Path 8631" d="M491.756,276.254c-.109,5.419.724,63.227,5.73,79.051,3.12,9.859,9.669,57.187,11.887,73.357.81,5.9,7.211,5.9,7.675.264,1.728-20.94,8.5-50.066.813-75.656-1.92-6.392,6.981-72.388,1.466-84.959S492.161,256.213,491.756,276.254Z" transform="translate(-491.747 -259.848)" fill="#ffb072"/>
                  <path id="Path_8632" data-name="Path 8632" d="M517.589,348.988c.177-16.327,6.63-69.525,1.737-80.677-5.515-12.569-27.165-12.1-27.57,7.944-.1,4.988.6,54.347,4.618,74.507C502.626,347.23,510.529,346.935,517.589,348.988Z" transform="translate(-491.747 -259.848)" fill="#ffbe57" opacity="0.5" style="mix-blend-mode: multiply;isolation: isolate"/>
                </g>
                <g id="Group_2243" data-name="Group 2243">
                  <path id="Path_8633" data-name="Path 8633" d="M487.693,268.428l-.621,5.682s-10.167,25.776-14.55,67.615c10.846-3.01,31.326,7.012,61.7,2.747,0,0,12.016-53.579-8.886-77.415S488.793,255.813,487.693,268.428Z" transform="translate(-472.523 -253.6)" fill="#fd6141"/>
                  <path id="Path_8634" data-name="Path 8634" d="M482.839,268.343s-.81,8.022,13.072,9.437,27.651-8.612,27.3-11.561S482.839,268.343,482.839,268.343Z" transform="translate(-467.632 -248.048)" fill="#dd4026"/>
                  <path id="Path_8635" data-name="Path 8635" d="M506.074,264.667s15.9,26.447,6.117,73.639" transform="translate(-456.6 -248.348)" fill="none" stroke="#fff" stroke-linecap="round" stroke-miterlimit="10" stroke-width="0.499"/>
                </g>
              </g>
              <g id="Group_2256" data-name="Group 2256">
                <g id="Group_2245" data-name="Group 2245" transform="translate(0 49.338)">
                  <path id="Path_8636" data-name="Path 8636" d="M449.356,253.456c-.106-.013-5.866-.352-6.863-.081a34.4,34.4,0,0,0-3.965,1.739c-1.591.8-.04,1.941,1.165,1.836a20.566,20.566,0,0,1,3.046-.348,5.624,5.624,0,0,1,1.035.264,24.371,24.371,0,0,1-5.258,3.15c-1.131.435-2.153.736-3.79,1.259-.73.234-.61,1.2.223,1.352a10.022,10.022,0,0,0,4.381-.554c.7-.267,1.414-.56,2.064-.863a15.336,15.336,0,0,1-2.247,1.29c-1.072.488-2.153.687-3.72,1.264-.718.265-.523,1.1.314,1.222a8.39,8.39,0,0,0,1.19.062c-.295.382-.086.979.58,1.066a8.069,8.069,0,0,0,1.775-.145.7.7,0,0,0,.631.406c5.86.018,9.358-3.181,12.566-3.927C457.6,257.285,453.177,254.187,449.356,253.456Z" transform="translate(-434.245 -210.151)" fill="#ffb072"/>
                  <path id="Path_8637" data-name="Path 8637" d="M512.173,225.574c-3.983-2.26-10.781-3-16.138,4.629s-7.719,25.588-13.4,31.664c-3.389,3.622-34.142,4.669-36.331,5.767-1.424.715-.574,7.559-.108,8.828.978,2.659,34.272,4.08,43.33.51S520.724,230.426,512.173,225.574Z" transform="translate(-428.896 -224.029)" fill="#552f5e"/>
                </g>
                <path id="Path_8638" data-name="Path 8638" d="M482.673,207.462c.245-2.784.23-7.414,3.549-11.431s16.259-8.042,23.039-3.346c8.336,5.771,5.614,11.176,16.007,15.368s7.249,8.843,4.279,13.591-1.926,5.536,2.88,10.514,11.177,17.379,0,24.453-35.382,2.446-45.079-6.9,1.747-15.5-.945-21.067-5.851-4.341-5.851-10.26C480.551,213.849,482.3,211.756,482.673,207.462Z" transform="translate(-412.27 -190.569)" fill="#3e2344"/>
                <path id="Path_8639" data-name="Path 8639" d="M503.549,220.651s-22.046,3.676-22.784,10.4c-.308,2.819,3.535,8.505,2.542,11.394-1.45,4.222-3.759,6.672.5,16.7,3.445,8.1-2.468,24.872-2.289,26.868.671,7.463,12.5,8.828,17.359,8.712,6.92-.165,26.821-4.618,26.821-8.979,0-3.779-9.216-11.9-10.11-18.379s15.968-32.444,12.621-38.1C521.734,218.322,503.549,220.651,503.549,220.651Z" transform="translate(-412.176 -176.392)" fill="#764582"/>
                <g id="Group_2246" data-name="Group 2246" transform="translate(100.687 46.754)">
                  <path id="Path_8640" data-name="Path 8640" d="M514.366,267.753c-.1.021-5.693,1.458-6.559,2.022a34.927,34.927,0,0,0-3.244,2.867c-1.27,1.248.556,1.861,1.671,1.392a20.649,20.649,0,0,1,2.794-1.262,5.6,5.6,0,0,1,1.066-.065,24.31,24.31,0,0,1-4.043,4.607c-.944.759-1.826,1.358-3.222,2.358-.624.445-.215,1.326.624,1.219a10.039,10.039,0,0,0,4-1.868c.588-.469,1.175-.966,1.7-1.452a15.272,15.272,0,0,1-1.744,1.915c-.872.793-1.84,1.314-3.156,2.342-.6.472-.161,1.211.672,1.068a8.692,8.692,0,0,0,1.153-.305c-.165.454.217.958.876.838a7.891,7.891,0,0,0,1.647-.68.749.749,0,0,0,.726.193c3.473-.8,9.417-5.785,10.763-7.582C523.383,268.879,518.227,267.281,514.366,267.753Z" transform="translate(-502.527 -200.73)" fill="#ffb072"/>
                  <path id="Path_8641" data-name="Path 8641" d="M508.674,222.978c-3.563,2.875-6.746,8.927-1.61,16.711s19.762,15.875,23.332,23.388c2.128,4.48-17.631,23.7-17.67,26.144s3.719,8.414,5.157,9.111c2.55,1.236,30.307-25.706,30.307-35.443S516.323,216.8,508.674,222.978Z" transform="translate(-501.649 -222.276)" fill="#764582"/>
                </g>
                <path id="Path_8642" data-name="Path 8642" d="M503.246,209.052a43.567,43.567,0,0,0,2.141,10.192c1.69,4.466,3.5,5.839,5.636,7.737s-8.517,13.212-18,16.082c0,0-6.877-8.379-3.723-13.049s5.652-5.081,4.523-11.317c-.985-5.435-1.572-8.449-1.572-8.449Z" transform="translate(-408.511 -181.798)" fill="#ffb072"/>
                <g id="Group_2255" data-name="Group 2255" transform="translate(74.417 7.521)">
                  <g id="Group_2247" data-name="Group 2247" transform="translate(0.392 18.052)">
                    <path id="Path_8643" data-name="Path 8643" d="M490.251,212.491c0,2.678-1.1,4.857-2.452,4.857s-2.452-2.179-2.452-4.857a6.572,6.572,0,0,1,1.255-4.213c.23-.3-.063-.523-.293-.227a6.918,6.918,0,0,0-1.33,4.44c0,2.93,1.24,5.224,2.821,5.224s2.819-2.294,2.819-5.224a7.1,7.1,0,0,0-.787-3.653c-.06.071-.212.192-.279.265A7.507,7.507,0,0,1,490.251,212.491Z" transform="translate(-484.978 -207.912)" fill="#fff"/>
                  </g>
                  <g id="Group_2249" data-name="Group 2249" transform="translate(0.959)">
                    <path id="Path_8644" data-name="Path 8644" d="M504.722,215.4s-1.538,11.645-12.479,10.82c-5.494-.414-8.3-11.69-6.159-14.525a32.728,32.728,0,0,1,0-10.34c.973-4.664,10.181-7.106,17.677-4.823,0,0,2.153,2.05,1.327,11.213a2.8,2.8,0,0,1,3.558-.479c1.65.9,1.824,3.029,1.264,5.037C509.238,214.713,506.727,216.788,504.722,215.4Z" transform="translate(-485.362 -195.67)" fill="#ffb072" fill-rule="evenodd"/>
                    <path id="Path_8645" data-name="Path 8645" d="M499.2,210.273l.817-2.178-1.4-.58s.907-4.071,3.178-2.57C503.667,206.178,501.533,211.1,499.2,210.273Z" transform="translate(-479.068 -191.425)" fill="#e57e55"/>
                    <g id="Group_2248" data-name="Group 2248" transform="translate(18.348 18.052)">
                      <path id="Path_8646" data-name="Path 8646" d="M503.078,212.491c0,2.678-1.1,4.857-2.452,4.857s-2.452-2.179-2.452-4.857a6.581,6.581,0,0,1,1.255-4.213c.23-.3-.063-.523-.293-.227a6.918,6.918,0,0,0-1.33,4.44c0,2.93,1.24,5.224,2.821,5.224s2.819-2.294,2.819-5.224a7.1,7.1,0,0,0-.787-3.653c-.06.071-.212.192-.279.265A7.488,7.488,0,0,1,503.078,212.491Z" transform="translate(-497.805 -207.912)" fill="#fff"/>
                    </g>
                  </g>
                  <g id="Group_2254" data-name="Group 2254" transform="translate(0 10.365)">
                    <g id="Group_2250" data-name="Group 2250" transform="translate(4.953 11.58)">
                      <path id="Path_8647" data-name="Path 8647" d="M488.071,211.894s.745-1.817,6.488-1.222C493.906,213.711,488.531,215.207,488.071,211.894Z" transform="translate(-488.071 -210.552)" fill="#fd6141"/>
                      <path id="Path_8648" data-name="Path 8648" d="M488.071,211.855a19.333,19.333,0,0,0,6.488-1.222" transform="translate(-488.071 -210.514)" fill="#e57e55" stroke="#e57e55" stroke-miterlimit="10" stroke-width="0.249" style="mix-blend-mode: multiply;isolation: isolate"/>
                    </g>
                    <g id="Group_2251" data-name="Group 2251" transform="translate(0 0.99)">
                      <path id="Path_8649" data-name="Path 8649" d="M485.877,206.783c.043.516.721.553,1.547.485s1.489-.22,1.447-.736-.749-.877-1.575-.808S485.834,206.267,485.877,206.783Z" transform="translate(-484.16 -202.256)" fill="#3e2344"/>
                      <path id="Path_8650" data-name="Path 8650" d="M484.712,205.746c-.025.075,1.918-1.657,2.439-1.628s2.46.749,2.653.481a4.059,4.059,0,0,0,.38-.857,15.24,15.24,0,0,0-3.3-.333A5.973,5.973,0,0,0,484.712,205.746Z" transform="translate(-484.712 -203.37)" fill="#3e2344"/>
                    </g>
                    <g id="Group_2252" data-name="Group 2252" transform="translate(7.376)">
                      <path id="Path_8651" data-name="Path 8651" d="M491.014,206.353c.044.516.721.554,1.548.485s1.488-.22,1.445-.734-.748-.879-1.575-.81S490.971,205.837,491.014,206.353Z" transform="translate(-489.098 -201.471)" fill="#3e2344"/>
                      <path id="Path_8652" data-name="Path 8652" d="M496.538,204.293c.041.068-2.572-1-3.222-.838s-2.737,1.221-3.014,1a3.416,3.416,0,0,1-.588-.756,23.13,23.13,0,0,1,3.794-1A5.913,5.913,0,0,1,496.538,204.293Z" transform="translate(-489.714 -202.699)" fill="#3e2344"/>
                    </g>
                    <g id="Group_2253" data-name="Group 2253" transform="translate(3.173 1.982)">
                      <path id="Path_8653" data-name="Path 8653" d="M489.538,209.892s1.911-.063,1.868-.587-4.045-1.1-4.265-.721S488.68,209.653,489.538,209.892Z" transform="translate(-486.741 -201.946)" fill="#e57e55" opacity="0.5"/>
                      <path id="Path_8654" data-name="Path 8654" d="M489.333,204.043a9.645,9.645,0,0,1,.271,3.256c-.286.863-2.041,2.806-2.078,3.216s1.986,1.416,2.135,1.475-2.884-.406-2.8-1.346,2.345-3.306,2.426-3.768S489.333,204.043,489.333,204.043Z" transform="translate(-486.864 -204.043)" fill="#e57e55"/>
                    </g>
                  </g>
                </g>
                <path id="Path_8655" data-name="Path 8655" d="M502.852,199.06c-9.117.964-13.162,9.548-19.84,9.555-4.133-7.183,8.5-25.413,23.4-11.26,6.833,6.488.671,11.462.671,11.462l-1.522,5.245s.133-3.937-1.268-5.447A8.581,8.581,0,0,1,502.852,199.06Z" transform="translate(-411.479 -189.834)" fill="#3e2344"/>
              </g>
            </g>
          </g>
        </g>
        <g id="Group_2263" data-name="Group 2263" transform="translate(425.186 126.889)">
          <path id="Path_8656" data-name="Path 8656" d="M497.69,172.485l-93.7-23.061h0l-11.848-2.915a8.6,8.6,0,0,0-10.409,6.3l-9.308,37.818h0l-.529,2.153-4.257,17.3a8.6,8.6,0,0,0,6.3,10.408L477.8,246.044a8.6,8.6,0,0,0,10.408-6.3l1.243-5.05h0L493,220.3h0l5.167-21h0l4.553-18.5A6.872,6.872,0,0,0,497.69,172.485Z" transform="translate(-363.91 -141.029)" fill="#764582" opacity="0.3"/>
          <g id="Group_2262" data-name="Group 2262">
            <rect id="Rectangle_355" data-name="Rectangle 355" width="124.17" height="76.18" rx="5.833" transform="translate(18.206 0) rotate(13.826)" fill="#ffbe57"/>
            <path id="Path_8657" data-name="Path 8657" d="M381.409,163.8c-3.535,9.425-2.356,22.384,7.069,27.1,33.756,20.11,69.7,18.329,102.229,5.065l4.553-18.5a6.872,6.872,0,0,0-5.03-8.315l-93.7-23.061C389.515,150.069,384.466,156.924,381.409,163.8Z" transform="translate(-358.126 -141.112)" fill="#ffd25a"/>
            <rect id="Rectangle_356" data-name="Rectangle 356" width="124.17" height="14.828" transform="matrix(0.971, 0.239, -0.239, 0.971, 6.842, 46.171)" fill="#764582"/>
            <rect id="Rectangle_357" data-name="Rectangle 357" width="44.424" height="7.414" rx="2.341" transform="translate(21.11 9.295) rotate(13.826)" fill="#764582"/>
            <path id="Rectangle_358" data-name="Rectangle 358" d="M1.17,0H76.252a1.17,1.17,0,0,1,1.17,1.17V2.537a1.17,1.17,0,0,1-1.17,1.17H1.171A1.171,1.171,0,0,1,0,2.536V1.17A1.17,1.17,0,0,1,1.17,0Z" transform="translate(18.452 20.094) rotate(13.826)" fill="#764582"/>
            <g id="Group_2260" data-name="Group 2260" transform="translate(71.65 49.227)">
              <rect id="Rectangle_359" data-name="Rectangle 359" width="7.264" height="5.213" rx="1.646" transform="translate(1.246 0) rotate(13.825)" fill="#fff"/>
              <rect id="Rectangle_360" data-name="Rectangle 360" width="7.264" height="5.213" rx="1.646" transform="translate(10.223 2.209) rotate(13.825)" fill="#fff"/>
              <rect id="Rectangle_361" data-name="Rectangle 361" width="7.264" height="5.213" rx="1.646" transform="translate(19.201 4.419) rotate(13.826)" fill="#fff"/>
            </g>
            <g id="Group_2261" data-name="Group 2261" transform="translate(100.433 29.23)">
              <path id="Path_8658" data-name="Path 8658" d="M448.225,166.608a8.078,8.078,0,1,0-2.659,10.806,8.052,8.052,0,0,1,2.659-10.806Z" transform="translate(-433.139 -162.534)" fill="#fd6141"/>
              <path id="Path_8659" data-name="Path 8659" d="M450.5,164.665a8.044,8.044,0,0,0-6.277,1.044,8.053,8.053,0,0,1-2.659,10.806,8.075,8.075,0,1,0,8.936-11.85Z" transform="translate(-429.139 -161.634)" fill="#fd6141"/>
            </g>
          </g>
        </g>
      </g>
    </g>
  </g>
</svg>
